<svg width="25" height="25" viewBox="0 0 25 25" fill="none" xmlns="http://www.w3.org/2000/svg">
<path d="M13.2218 7.47987C14.9989 7.47987 16.1977 8.24754 16.8812 8.88901L19.5521 6.28105C17.9117 4.75623 15.777 3.82031 13.2218 3.82031C9.52032 3.82031 6.32361 5.94454 4.76732 9.03623L7.82733 11.4128C8.59496 9.13088 10.7191 7.47987 13.2218 7.47987Z" fill="white"/>
<path d="M22.3071 13.495C22.3071 12.7168 22.244 12.149 22.1073 11.5601H13.2218V15.0724H18.4374C18.3323 15.9452 17.7644 17.2597 16.5026 18.1431L19.489 20.4566C21.2766 18.8056 22.3071 16.3764 22.3071 13.495Z" fill="white"/>
<path d="M7.83782 15.1565C7.63803 14.5676 7.52235 13.9367 7.52235 13.2847C7.52235 12.6327 7.63805 12.0017 7.82733 11.4128L4.76732 9.03623C4.12588 10.3192 3.75781 11.7598 3.75781 13.2847C3.75781 14.8095 4.12585 16.2502 4.7673 17.5331L7.83782 15.1565Z" fill="white"/>
<path d="M13.2217 22.749C15.777 22.749 17.9222 21.9078 19.489 20.4566L16.5026 18.1431C15.7034 18.7004 14.6308 19.0895 13.2217 19.0895C10.719 19.0895 8.59493 17.4385 7.83782 15.1565L4.77779 17.5331C6.33408 20.6248 9.52028 22.749 13.2217 22.749Z" fill="white"/>
<path d="M12.964 7.15956C14.7411 7.15956 15.9398 7.92722 16.6233 8.5687L19.2943 5.96074C17.6539 4.43592 15.5192 3.5 12.964 3.5C9.26251 3.5 6.0658 5.62423 4.50951 8.71592L7.56951 11.0925C8.33714 8.81056 10.4613 7.15956 12.964 7.15956Z" fill="white"/>
<path d="M22.0493 13.1747C22.0493 12.3965 21.9862 11.8286 21.8495 11.2397H12.9639V14.7521H18.1796C18.0745 15.6249 17.5066 16.9394 16.2448 17.8227L19.2312 20.1363C21.0188 18.4853 22.0493 16.0561 22.0493 13.1747Z" fill="white"/>
<path d="M7.58001 14.8362C7.38021 14.2473 7.26454 13.6163 7.26454 12.9644C7.26454 12.3124 7.38024 11.6814 7.56951 11.0925L4.50951 8.71592C3.86806 9.99887 3.5 11.4395 3.5 12.9644C3.5 14.4892 3.86804 15.9299 4.50949 17.2128L7.58001 14.8362Z" fill="white"/>
<path d="M12.9639 22.4287C15.5192 22.4287 17.6644 21.5875 19.2312 20.1363L16.2448 17.8227C15.4456 18.3801 14.373 18.7692 12.9639 18.7692C10.4612 18.7692 8.33712 17.1182 7.58001 14.8362L4.51998 17.2128C6.07627 20.3045 9.26246 22.4287 12.9639 22.4287Z" fill="white"/>
</svg>
