<svg width="25" height="25" viewBox="0 0 25 25" fill="none" xmlns="http://www.w3.org/2000/svg">
<path d="M6.13547 20.4174V10.2174C6.13547 8.5372 6.13547 7.69712 6.46245 7.05539C6.75007 6.4909 7.20901 6.03196 7.7735 5.74434C8.41523 5.41736 9.25531 5.41736 10.9355 5.41736H12.0174C12.7026 5.41736 13.329 5.80449 13.6355 6.41736V6.41736C13.9419 7.03022 14.5683 7.41736 15.2535 7.41736H15.5944C16.097 7.41736 16.3483 7.41736 16.559 7.4474C17.8795 7.6357 18.9171 8.67331 19.1054 9.99386C19.1355 10.2045 19.1355 10.4558 19.1355 10.9584V11.8763C19.1355 12.3789 19.1355 12.6302 19.1054 12.8409C18.9171 14.1614 17.8795 15.199 16.559 15.3873C16.3483 15.4174 16.097 15.4174 15.5944 15.4174H15.2535C14.5683 15.4174 13.9419 15.0302 13.6355 14.4174V14.4174C13.329 13.8045 12.7026 13.4174 12.0174 13.4174H6.13547" stroke="#313A34" stroke-width="2" stroke-linecap="round" stroke-linejoin="round"/>
</svg>
