<svg xmlns="http://www.w3.org/2000/svg" width="32" height="32" viewBox="0 0 24 24" fill="none">
<path fill-rule="evenodd" clip-rule="evenodd" d="M16.5858 6H14V4H17.5C18.8807 4 20 5.11929 20 6.5V10H18V7.41421L14.4462 10.968C14.7981 11.5635 15 12.2582 15 13V17C15 19.2091 13.2091 21 11 21H7C4.79086 21 3 19.2091 3 17V13C3 10.7909 4.79086 9 7 9H11C11.7418 9 12.4365 9.20193 13.032 9.55382L16.5858 6ZM7 11C5.89543 11 5 11.8954 5 13V17C5 18.1046 5.89543 19 7 19H11C12.1046 19 13 18.1046 13 17V13C13 11.8954 12.1046 11 11 11H7Z" fill="black"/>
</svg>