<svg width="25" height="25" viewBox="0 0 25 25" fill="none" xmlns="http://www.w3.org/2000/svg">
<path d="M16.6355 11.9174L14.2668 14.286C13.8708 14.682 13.6728 14.88 13.4445 14.9542C13.2436 15.0195 13.0273 15.0195 12.8265 14.9542C12.5981 14.88 12.4001 14.682 12.0041 14.286L9.63547 11.9174C9.33885 11.6207 9.19054 11.4724 9.09407 11.323C8.73825 10.7717 8.73825 10.0631 9.09407 9.51176C9.19054 9.36229 9.33885 9.21398 9.63547 8.91736C9.93209 8.62074 10.0804 8.47243 10.2299 8.37596C10.7812 8.02014 11.4898 8.02014 12.0411 8.37596C12.1905 8.47243 12.3388 8.62074 12.6355 8.91736L13.1355 9.41736L13.6355 8.91736L13.6355 8.91736C13.9321 8.62074 14.0804 8.47243 14.2299 8.37596C14.7812 8.02014 15.4898 8.02014 16.0411 8.37596C16.1905 8.47243 16.3389 8.62074 16.6355 8.91736L16.6355 8.91738C16.9321 9.21398 17.0804 9.36229 17.1769 9.51176C17.5327 10.0631 17.5327 10.7717 17.1769 11.323C17.0804 11.4724 16.9321 11.6207 16.6355 11.9173L16.6355 11.9174Z" stroke="#313A34" stroke-width="2" stroke-linecap="round" stroke-linejoin="round"/>
<path d="M17.168 22.4174V18.1525C17.168 16.8695 17.7063 15.6454 18.6517 14.7782V14.7782C19.5972 13.9111 20.1355 12.687 20.1355 11.404V9.41736C20.1355 5.55137 17.0015 2.41736 13.1355 2.41736V2.41736C9.26947 2.41736 6.13547 5.55136 6.13547 9.41736V9.84797C6.13547 10.2224 6.04828 10.5917 5.88082 10.9267L4.68825 13.3118C4.43428 13.8197 4.80364 14.4174 5.37154 14.4174V14.4174C5.79344 14.4174 6.13547 14.7594 6.13547 15.1813V15.9174C6.13547 16.7458 6.80704 17.4174 7.63547 17.4174V17.4174C8.46389 17.4174 9.13547 18.0889 9.13547 18.9174V22.4174" stroke="#313A34" stroke-width="2" stroke-linecap="round" stroke-linejoin="round"/>
</svg>
