<svg width="25" height="25" viewBox="0 0 25 25" fill="none" xmlns="http://www.w3.org/2000/svg">
<path d="M6.13547 9.41736H7.53547C8.09552 9.41736 8.37555 9.41736 8.58946 9.30836C8.77762 9.21249 8.9306 9.05951 9.02647 8.87135C9.13547 8.65744 9.13547 8.37741 9.13547 7.81736V6.41736C9.13547 5.95286 9.13547 5.7206 9.16625 5.52627C9.33568 4.45654 10.1747 3.61757 11.2444 3.44814C11.4387 3.41736 11.671 3.41736 12.1355 3.41736C12.6 3.41736 12.8322 3.41736 13.0266 3.44814C14.0963 3.61757 14.9353 4.45654 15.1047 5.52627C15.1355 5.7206 15.1355 5.95286 15.1355 6.41736V7.81736C15.1355 8.37741 15.1355 8.65744 15.2445 8.87135C15.3403 9.05951 15.4933 9.21249 15.6815 9.30836C15.8954 9.41736 16.1754 9.41736 16.7355 9.41736H18.1355C18.6 9.41736 18.8322 9.41736 19.0266 9.44814C20.0963 9.61757 20.9353 10.4565 21.1047 11.5263C21.1355 11.7206 21.1355 11.9529 21.1355 12.4174C21.1355 12.8819 21.1355 13.1141 21.1047 13.3084C20.9353 14.3782 20.0963 15.2172 19.0266 15.3866C18.8322 15.4174 18.6 15.4174 18.1355 15.4174H16.7355C16.1754 15.4174 15.8954 15.4174 15.6815 15.5264C15.4933 15.6222 15.3403 15.7752 15.2445 15.9634C15.1355 16.1773 15.1355 16.4573 15.1355 17.0174V18.4174C15.1355 18.8819 15.1355 19.1141 15.1047 19.3084C14.9353 20.3782 14.0963 21.2171 13.0266 21.3866C12.8322 21.4174 12.6 21.4174 12.1355 21.4174C11.671 21.4174 11.4387 21.4174 11.2444 21.3866C10.1747 21.2171 9.33568 20.3782 9.16625 19.3084C9.13547 19.1141 9.13547 18.8819 9.13547 18.4174V17.0174C9.13547 16.4573 9.13547 16.1773 9.02647 15.9634C8.9306 15.7752 8.77762 15.6222 8.58946 15.5264C8.37555 15.4174 8.09552 15.4174 7.53547 15.4174H6.13547C5.67096 15.4174 5.43871 15.4174 5.24438 15.3866C4.17465 15.2172 3.33568 14.3782 3.16625 13.3084C3.13547 13.1141 3.13547 12.8819 3.13547 12.4174C3.13547 11.9529 3.13547 11.7206 3.16625 11.5263C3.33568 10.4565 4.17465 9.61757 5.24438 9.44814C5.43871 9.41736 5.67096 9.41736 6.13547 9.41736Z" stroke="#313A34" stroke-width="2" stroke-linecap="round" stroke-linejoin="round"/>
</svg>
