<svg width="25" height="25" viewBox="0 0 25 25" fill="none" xmlns="http://www.w3.org/2000/svg">
<path d="M3.59219 7.12126C3.13547 8.22388 3.13547 9.62171 3.13547 12.4174C3.13547 15.213 3.13547 16.6108 3.59219 17.7135C4.20115 19.1836 5.3692 20.3517 6.83937 20.9606C7.94199 21.4174 9.33982 21.4174 12.1355 21.4174H15.1175C18.4071 21.4174 21.0739 18.7506 21.0739 15.4609C21.0739 15.3386 20.7713 15.2955 20.7226 15.4077C20.0535 16.9502 18.6341 18.0839 16.9176 18.3558C16.529 18.4174 16.0645 18.4174 15.1355 18.4174C14.2065 18.4174 13.742 18.4174 13.3533 18.3558C11.2138 18.0169 9.53588 16.339 9.19703 14.1995C9.13547 13.8109 9.13547 13.3464 9.13547 12.4174C9.13547 11.4884 9.13547 11.0238 9.19703 10.6352C9.53588 8.49572 11.2138 6.81777 13.3533 6.47892C13.742 6.41736 14.2065 6.41736 15.1355 6.41736C16.0645 6.41736 16.529 6.41736 16.9176 6.47892C18.6341 6.75077 20.0535 7.88452 20.7226 9.42701C20.7713 9.53926 21.0739 9.49615 21.0739 9.37379C21.0739 6.08414 18.4071 3.41736 15.1175 3.41736H12.1355C9.33982 3.41736 7.94199 3.41736 6.83937 3.87408C5.3692 4.48304 4.20115 5.65109 3.59219 7.12126Z" stroke="#313A34" stroke-width="2" stroke-linecap="round" stroke-linejoin="round"/>
</svg>
