<svg width="25" height="25" viewBox="0 0 25 25" fill="none" xmlns="http://www.w3.org/2000/svg">
<path d="M15.6561 18.4174H8.61481C7.49646 18.4174 6.93728 18.4174 6.60034 18.2922C5.59154 17.9175 5.06008 16.8117 5.39768 15.7899C5.51044 15.4486 5.85976 15.012 6.55838 14.1387L6.55839 14.1387C6.69548 13.9673 6.76403 13.8817 6.82156 13.7915C6.98759 13.5312 7.09113 13.2361 7.12406 12.9291C7.13547 12.8228 7.13547 12.713 7.13547 12.4936V11.4174C7.13547 10.488 7.13547 10.0234 7.21233 9.637C7.52795 8.05023 8.76834 6.80984 10.3551 6.49422C10.7415 6.41736 11.2062 6.41736 12.1355 6.41736C13.0648 6.41736 13.5294 6.41736 13.9158 6.49422C15.5026 6.80984 16.743 8.05023 17.0586 9.637C17.1355 10.0234 17.1355 10.488 17.1355 11.4174V12.4936C17.1355 12.713 17.1355 12.8228 17.1469 12.9291C17.1798 13.2361 17.2833 13.5312 17.4494 13.7915C17.5069 13.8817 17.5755 13.9673 17.7125 14.1387L17.7126 14.1387C18.4112 15.012 18.7605 15.4486 18.8733 15.7899C19.2109 16.8117 18.6794 17.9175 17.6706 18.2922C17.3337 18.4174 16.7745 18.4174 15.6561 18.4174Z" stroke="#313A34" stroke-width="2" stroke-linejoin="round"/>
<path d="M12.1355 6.41736V4.41736" stroke="#313A34" stroke-width="2" stroke-linecap="round" stroke-linejoin="round"/>
<path d="M10.1355 19.4174V19.4174C10.1355 19.7239 10.1355 19.8772 10.1555 20.0055C10.2677 20.7226 10.8302 21.2851 11.5473 21.3973C11.6756 21.4174 11.8289 21.4174 12.1355 21.4174V21.4174C12.442 21.4174 12.5953 21.4174 12.7236 21.3973C13.4407 21.2851 14.0032 20.7226 14.1154 20.0055C14.1355 19.8772 14.1355 19.7239 14.1355 19.4174V19.4174" stroke="#313A34" stroke-width="2" stroke-linecap="round" stroke-linejoin="round"/>
</svg>
