<svg width="38" height="38" viewBox="0 0 38 38" fill="none" xmlns="http://www.w3.org/2000/svg">
<rect width="38" height="38" rx="10" fill="#2F3932"/>
<path d="M23.1074 26H14.8926C12.9911 26 12.0403 26 11.5286 25.6484C10.9431 25.246 10.6149 24.5633 10.6665 23.8547C10.7116 23.2355 11.3056 22.4931 12.4934 21.0082C12.7256 20.718 12.8417 20.5728 12.9277 20.4131C13.0268 20.229 13.0964 20.0306 13.134 19.8249C13.1667 19.6465 13.1667 19.4606 13.1667 19.0889V17.8333C13.1667 16.1259 13.1667 15.2722 13.423 14.591C13.8288 13.5129 14.6796 12.6621 15.7577 12.2564C16.4388 12 17.2926 12 19 12C20.7074 12 21.5612 12 22.2423 12.2564C23.3204 12.6621 24.1712 13.5129 24.577 14.591C24.8333 15.2722 24.8333 16.1259 24.8333 17.8333V19.0889C24.8333 19.4606 24.8333 19.6465 24.866 19.8249C24.9036 20.0306 24.9732 20.229 25.0723 20.4131C25.1583 20.5728 25.2744 20.718 25.5066 21.0082L25.5066 21.0083C26.6944 22.4931 27.2884 23.2355 27.3335 23.8547C27.3851 24.5633 27.0569 25.246 26.4714 25.6484C25.9597 26 25.0089 26 23.1074 26Z" fill="white" stroke="white" stroke-width="2" stroke-linejoin="round"/>
<path d="M19 12.0001V9.66675" stroke="white" stroke-width="3" stroke-linecap="round" stroke-linejoin="round"/>
<path d="M16.6667 27.1667V27.1667C16.6667 27.7841 16.6667 28.0927 16.7474 28.3427C16.9122 28.8539 17.3129 29.2546 17.8242 29.4195C18.0741 29.5001 18.3828 29.5001 19.0001 29.5001V29.5001C19.6174 29.5001 19.926 29.5001 20.176 29.4195C20.6872 29.2546 21.0879 28.8539 21.2528 28.3427C21.3334 28.0927 21.3334 27.7841 21.3334 27.1667V27.1667" stroke="white" stroke-width="2" stroke-linecap="round" stroke-linejoin="round"/>
</svg>
