<svg width="25" height="25" viewBox="0 0 25 25" fill="none" xmlns="http://www.w3.org/2000/svg">
<path d="M13.1355 5.41735C13.2948 5.25805 13.3744 5.1784 13.445 5.11429C14.9706 3.72752 17.3004 3.72752 18.826 5.11429C18.8965 5.1784 18.9762 5.25805 19.1355 5.41736V5.41736C19.2948 5.57667 19.3744 5.65632 19.4385 5.72684C20.8253 7.25248 20.8253 9.58224 19.4385 11.1079C19.3744 11.1784 19.2948 11.2581 19.1355 11.4174L11.1355 19.4174C10.9762 19.5767 10.8965 19.6563 10.826 19.7204C9.30035 21.1072 6.97058 21.1072 5.44495 19.7204C5.37443 19.6563 5.29478 19.5767 5.13547 19.4174V19.4174C4.97616 19.2581 4.89651 19.1784 4.8324 19.1079C3.44563 17.5822 3.44563 15.2525 4.8324 13.7268C4.89651 13.6563 4.97616 13.5767 5.13547 13.4174L13.1355 5.41735Z" stroke="#313A34" stroke-width="2" stroke-linecap="round" stroke-linejoin="round"/>
<path d="M9.13547 9.41736L15.1355 15.4174" stroke="#313A34" stroke-width="2" stroke-linecap="round" stroke-linejoin="round"/>
</svg>
