<svg width="25" height="25" viewBox="0 0 25 25" fill="none" xmlns="http://www.w3.org/2000/svg">
<path d="M20.1355 13.4174V14.4174V14.4174C20.1355 16.2811 20.1355 17.213 19.831 17.9481C19.425 18.9282 18.6463 19.7069 17.6662 20.1129C16.9311 20.4174 15.9992 20.4174 14.1355 20.4174H10.1355C8.2717 20.4174 7.33982 20.4174 6.60473 20.1129C5.62462 19.7069 4.84593 18.9282 4.43995 17.9481C4.13547 17.213 4.13547 16.2811 4.13547 14.4174V14.4174V13.4174C4.13547 12.488 4.13547 12.0234 4.21233 11.637C4.52795 10.0502 5.76834 8.80984 7.35511 8.49422C7.7415 8.41736 8.20616 8.41736 9.13547 8.41736V8.41736" stroke="#313A34" stroke-width="2" stroke-linecap="round" stroke-linejoin="round"/>
<path d="M12.1355 6.7605C12.1355 5.46642 13.1845 4.41736 14.4786 4.41736H18.1355C18.6 4.41736 18.8322 4.41736 19.0266 4.44814C20.0963 4.61757 20.9353 5.45654 21.1047 6.52627C21.1355 6.7206 21.1355 6.95286 21.1355 7.41736V7.41736C21.1355 7.88186 21.1355 8.11411 21.1047 8.30844C20.9353 9.37818 20.0963 10.2172 19.0266 10.3866C18.8322 10.4174 18.6 10.4174 18.1355 10.4174H14.5497C14.2845 10.4174 14.0301 10.5227 13.8426 10.7103V10.7103C13.2126 11.3402 12.1355 10.894 12.1355 10.0031V6.7605Z" stroke="#313A34" stroke-width="2" stroke-linecap="round" stroke-linejoin="round"/>
<circle cx="9.13547" cy="14.4174" r="1" fill="#313A34"/>
<circle cx="15.1355" cy="14.4174" r="1" fill="#313A34"/>
<path d="M20.1355 14.4174L21.1355 14.4174" stroke="#313A34" stroke-width="2" stroke-linecap="round" stroke-linejoin="round"/>
<path d="M3.13547 14.4174L4.13547 14.4174" stroke="#313A34" stroke-width="2" stroke-linecap="round" stroke-linejoin="round"/>
</svg>
