<svg width="25" height="25" viewBox="0 0 25 25" fill="none" xmlns="http://www.w3.org/2000/svg">
<path d="M9.13547 12.4174H15.1355" stroke="#313A34" stroke-width="2" stroke-linecap="round" stroke-linejoin="round"/>
<path d="M12.1355 9.41736L12.1355 15.4174" stroke="#313A34" stroke-width="2" stroke-linecap="round" stroke-linejoin="round"/>
<path d="M19.1355 14.7033V10.4174V9.81736C19.1355 7.57715 19.1355 6.45704 18.6995 5.6014C18.316 4.84875 17.7041 4.23683 16.9514 3.85333C16.0958 3.41736 14.9757 3.41736 12.7355 3.41736H11.5355C9.29526 3.41736 8.17515 3.41736 7.31951 3.85333C6.56686 4.23683 5.95493 4.84875 5.57144 5.6014C5.13547 6.45704 5.13547 7.57715 5.13547 9.81736V10.4174V14.7033C5.13547 16.056 5.13547 16.7323 5.3329 17.3372C5.50757 17.8724 5.79325 18.3647 6.17124 18.7818C6.59847 19.2534 7.18571 19.5889 8.36018 20.2601L8.96018 20.6029C10.1175 21.2643 10.6962 21.5949 11.3108 21.7244C11.8546 21.839 12.4163 21.839 12.9601 21.7244C13.5747 21.5949 14.1534 21.2643 15.3108 20.6029L15.9108 20.2601C17.0852 19.5889 17.6725 19.2534 18.0997 18.7818C18.4777 18.3647 18.7634 17.8724 18.938 17.3372C19.1355 16.7323 19.1355 16.056 19.1355 14.7033Z" stroke="#313A34" stroke-width="2" stroke-linecap="round" stroke-linejoin="round"/>
</svg>
