<svg width="25" height="25" viewBox="0 0 25 25" fill="none" xmlns="http://www.w3.org/2000/svg">
<path d="M9.13547 6.41736V6.08936C9.13547 5.15407 9.13547 4.68643 9.31749 4.32919C9.4776 4.01496 9.73307 3.75949 10.0473 3.59938C10.4045 3.41736 10.8722 3.41736 11.8075 3.41736H12.4635C13.3988 3.41736 13.8664 3.41736 14.2236 3.59938C14.5379 3.75949 14.7933 4.01496 14.9534 4.32919C15.1355 4.68643 15.1355 5.15407 15.1355 6.08936V6.41736" stroke="#313A34" stroke-width="2" stroke-linecap="round" stroke-linejoin="round"/>
<path d="M5.13547 6.41736H19.1355" stroke="#313A34" stroke-width="2" stroke-linecap="round" stroke-linejoin="round"/>
<path d="M6.13547 6.41736V15.4174C6.13547 17.2811 6.13547 18.213 6.43995 18.9481C6.84593 19.9282 7.62462 20.7069 8.60473 21.1129C9.33982 21.4174 10.2717 21.4174 12.1355 21.4174V21.4174C13.9992 21.4174 14.9311 21.4174 15.6662 21.1129C16.6463 20.7069 17.425 19.9282 17.831 18.9481C18.1355 18.213 18.1355 17.2811 18.1355 15.4174V6.41736" stroke="#313A34" stroke-width="2" stroke-linecap="round" stroke-linejoin="round"/>
<path d="M14.1154 16.0055C14.1355 15.8772 14.1355 15.7239 14.1355 15.4174C14.1355 15.1108 14.1355 14.9575 14.1154 14.8292C14.0032 14.1121 13.4407 13.5496 12.7236 13.4374C12.5953 13.4174 12.442 13.4174 12.1355 13.4174C11.8289 13.4174 11.6756 13.4174 11.5473 13.4374C10.8302 13.5496 10.2677 14.1121 10.1555 14.8292C10.1355 14.9575 10.1355 15.1108 10.1355 15.4174C10.1355 15.7239 10.1355 15.8772 10.1555 16.0055C10.2677 16.7226 10.8302 17.2851 11.5473 17.3973C11.6756 17.4174 11.8289 17.4174 12.1355 17.4174C12.442 17.4174 12.5953 17.4174 12.7236 17.3973C13.4407 17.2851 14.0032 16.7226 14.1154 16.0055Z" stroke="#313A34" stroke-width="2" stroke-linecap="round" stroke-linejoin="round"/>
</svg>
