<svg width="25" height="25" viewBox="0 0 25 25" fill="none" xmlns="http://www.w3.org/2000/svg">
<path d="M15.0446 13.4174H9.22638C8.21241 13.4174 7.70542 13.4174 7.28521 13.5088C5.75499 13.8416 4.55976 15.0369 4.22688 16.5671C4.13547 16.9873 4.13547 17.4943 4.13547 18.5083C4.13547 18.8885 4.13547 19.0786 4.16975 19.2362C4.29458 19.81 4.74279 20.2582 5.31662 20.3831C5.4742 20.4174 5.66432 20.4174 6.04456 20.4174H18.2264C18.6066 20.4174 18.7967 20.4174 18.9543 20.3831C19.5281 20.2582 19.9764 19.81 20.1012 19.2362C20.1355 19.0786 20.1355 18.8885 20.1355 18.5083C20.1355 17.4943 20.1355 16.9873 20.0441 16.5671C19.7112 15.0369 18.5159 13.8416 16.9857 13.5088C16.5655 13.4174 16.0585 13.4174 15.0446 13.4174Z" stroke="#313A34" stroke-width="2" stroke-linecap="round" stroke-linejoin="round"/>
<rect x="9.13547" y="4.41736" width="6" height="6" rx="2.5" stroke="#313A34" stroke-width="2" stroke-linecap="round" stroke-linejoin="round"/>
</svg>
