<svg width="25" height="25" viewBox="0 0 25 25" fill="none" xmlns="http://www.w3.org/2000/svg">
<path d="M8.13483 12.4458C8.13483 10.2467 9.91801 8.46355 12.1183 8.46355C14.3185 8.46355 16.1027 10.2467 16.1027 12.4458C16.1027 14.6449 14.3185 16.4281 12.1183 16.4281C9.91801 16.4281 8.13483 14.6449 8.13483 12.4458ZM5.98093 12.4458C5.98093 15.8336 8.72862 18.5798 12.1183 18.5798C15.5079 18.5798 18.2556 15.8336 18.2556 12.4458C18.2556 9.05797 15.5079 6.31178 12.1183 6.31178C8.72862 6.31178 5.98093 9.05797 5.98093 12.4458ZM17.0643 6.06856C17.0642 6.35208 17.1482 6.62926 17.3057 6.86506C17.4632 7.10086 17.6871 7.28469 17.9492 7.39329C18.2112 7.50189 18.4996 7.5304 18.7778 7.4752C19.0561 7.42 19.3117 7.28357 19.5124 7.08317C19.713 6.88277 19.8497 6.6274 19.9052 6.34936C19.9606 6.07131 19.9323 5.78307 19.8239 5.52109C19.7154 5.25911 19.5317 5.03515 19.2959 4.87754C19.0601 4.71993 18.7828 4.63575 18.4992 4.63564H18.4986C18.1183 4.63581 17.7537 4.78682 17.4848 5.05549C17.2159 5.32416 17.0646 5.68853 17.0643 6.06856ZM7.28956 22.1694C6.12427 22.1164 5.49089 21.9224 5.06998 21.7585C4.51195 21.5413 4.1138 21.2827 3.69518 20.8649C3.27657 20.4471 3.01744 20.0495 2.80115 19.4918C2.63707 19.0713 2.44297 18.4381 2.39 17.2734C2.33205 16.0143 2.32048 15.636 2.32048 12.4459C2.32048 9.25579 2.33301 8.87859 2.39 7.61836C2.44306 6.45369 2.6386 5.82171 2.80115 5.39998C3.0184 4.84225 3.27714 4.44431 3.69518 4.02592C4.11323 3.60753 4.511 3.34855 5.06998 3.13238C5.4907 2.96838 6.12427 2.77438 7.28956 2.72144C8.54943 2.66353 8.92788 2.65196 12.1183 2.65196C15.3087 2.65196 15.6875 2.66448 16.9484 2.72144C18.1137 2.77448 18.746 2.96991 19.168 3.13238C19.726 3.34855 20.1242 3.60811 20.5428 4.02592C20.9614 4.44374 21.2196 4.84225 21.4368 5.39998C21.6009 5.82047 21.795 6.45369 21.848 7.61836C21.9059 8.87859 21.9175 9.25579 21.9175 12.4459C21.9175 15.636 21.9059 16.0132 21.848 17.2734C21.7949 18.4381 21.5999 19.0711 21.4368 19.4918C21.2196 20.0495 20.9608 20.4475 20.5428 20.8649C20.1248 21.2823 19.726 21.5413 19.168 21.7585C18.7473 21.9225 18.1137 22.1165 16.9484 22.1694C15.6886 22.2273 15.3101 22.2389 12.1183 22.2389C8.92645 22.2389 8.54904 22.2273 7.28956 22.1694ZM7.1906 0.572344C5.91821 0.630257 5.04875 0.831902 4.28945 1.1272C3.50309 1.43215 2.83739 1.84127 2.17218 2.50508C1.50696 3.16888 1.09867 3.83527 0.793557 4.62121C0.498097 5.38058 0.296343 6.24908 0.238399 7.52079C0.179498 8.7945 0.166016 9.2017 0.166016 12.4458C0.166016 15.6899 0.179498 16.0971 0.238399 17.3708C0.296343 18.6426 0.498097 19.511 0.793557 20.2704C1.09867 21.0559 1.50706 21.723 2.17218 22.3865C2.8373 23.05 3.50309 23.4586 4.28945 23.7644C5.05019 24.0597 5.91821 24.2613 7.1906 24.3193C8.46567 24.3772 8.87243 24.3916 12.1183 24.3916C15.3641 24.3916 15.7716 24.3781 17.046 24.3193C18.3184 24.2613 19.1873 24.0597 19.9471 23.7644C20.733 23.4586 21.3992 23.0503 22.0644 22.3865C22.7296 21.7227 23.137 21.0559 23.443 20.2704C23.7385 19.511 23.9412 18.6425 23.9982 17.3708C24.0561 16.0962 24.0696 15.6899 24.0696 12.4458C24.0696 9.2017 24.0561 8.7945 23.9982 7.52079C23.9402 6.24899 23.7385 5.3801 23.443 4.62121C23.137 3.83575 22.7285 3.16993 22.0644 2.50508C21.4002 1.84022 20.733 1.43215 19.9481 1.1272C19.1873 0.831902 18.3183 0.629301 17.0469 0.572344C15.7725 0.514431 15.3651 0.5 12.1192 0.5C8.87338 0.5 8.46567 0.513475 7.1906 0.572344Z" fill="white"/>
</svg>
