<svg width="25" height="25" viewBox="0 0 25 25" fill="none" xmlns="http://www.w3.org/2000/svg">
<path d="M14.1154 12.0055C14.1355 11.8772 14.1355 11.7239 14.1355 11.4174C14.1355 11.1108 14.1355 10.9575 14.1154 10.8292C14.0032 10.1121 13.4407 9.54962 12.7236 9.43743C12.5953 9.41736 12.442 9.41736 12.1355 9.41736C11.8289 9.41736 11.6756 9.41736 11.5473 9.43743C10.8302 9.54962 10.2677 10.1121 10.1555 10.8292C10.1355 10.9575 10.1355 11.1108 10.1355 11.4174C10.1355 11.7239 10.1355 11.8772 10.1555 12.0055C10.2677 12.7226 10.8302 13.2851 11.5473 13.3973C11.6756 13.4174 11.8289 13.4174 12.1355 13.4174C12.442 13.4174 12.5953 13.4174 12.7236 13.3973C13.4407 13.2851 14.0032 12.7226 14.1154 12.0055Z" stroke="#313A34" stroke-width="2" stroke-linecap="round" stroke-linejoin="round"/>
<path d="M5.13547 11.4675C5.13547 11.9175 5.13547 12.1425 5.1502 12.3523C5.24138 13.6508 5.75237 14.8845 6.60608 15.8671C6.74406 16.0259 6.89822 16.1801 7.20653 16.4884L9.87273 19.1546C10.6648 19.9467 11.0608 20.3427 11.5174 20.491C11.9191 20.6216 12.3518 20.6216 12.7535 20.491C13.2102 20.3427 13.6062 19.9467 14.3982 19.1546L17.0644 16.4884C17.3727 16.1801 17.5269 16.0259 17.6649 15.8671C18.5186 14.8845 19.0296 13.6508 19.1207 12.3523C19.1355 12.1425 19.1355 11.9175 19.1355 11.4675V11.4675C19.1355 10.5052 19.1355 10.0241 19.0841 9.6342C18.7297 6.9418 16.611 4.82315 13.9186 4.46869C13.5287 4.41736 13.0643 4.41736 12.1355 4.41736V4.41736C11.2066 4.41736 10.7422 4.41736 10.3523 4.46869C7.65991 4.82315 5.54126 6.9418 5.1868 9.6342C5.13547 10.0241 5.13547 10.5052 5.13547 11.4675V11.4675Z" stroke="#313A34" stroke-width="2" stroke-linejoin="round"/>
</svg>
