<svg width="24" height="24" viewBox="0 0 24 24" fill="none" xmlns="http://www.w3.org/2000/svg">
<path d="M4 11.2609L7.52452 7.813C9.09439 6.27726 9.87933 5.50938 10.7807 5.2209C11.5737 4.96706 12.4263 4.96706 13.2193 5.2209C14.1207 5.50938 14.9056 6.27726 16.4755 7.813L20 11.2609" stroke="white" stroke-width="2" stroke-linecap="round" stroke-linejoin="round"/>
<path d="M6 9.30444V14.0653C6 15.9291 6 16.861 6.30448 17.596C6.71046 18.5762 7.48915 19.3549 8.46927 19.7608C9.20435 20.0653 10.1362 20.0653 12 20.0653V20.0653C13.8638 20.0653 14.7956 20.0653 15.5307 19.7608C16.5108 19.3549 17.2895 18.5762 17.6955 17.596C18 16.861 18 15.9291 18 14.0653V9.30444" stroke="white" stroke-width="2" stroke-linecap="round" stroke-linejoin="round"/>
<path d="M12.0435 13.2173H11.9565C11.6904 13.2173 11.5573 13.2173 11.4456 13.2324C10.7014 13.3333 10.116 13.9187 10.0151 14.6629C10 14.7746 10 14.9077 10 15.1738C10 15.4399 10 15.573 10.0151 15.6847C10.116 16.4289 10.7014 17.0143 11.4456 17.1152C11.5573 17.1303 11.6904 17.1303 11.9565 17.1303H11.9565H12.0435H12.0435C12.3096 17.1303 12.4427 17.1303 12.5544 17.1152C13.2986 17.0143 13.884 16.4289 13.9849 15.6847C14 15.573 14 15.4399 14 15.1738C14 14.9077 14 14.7746 13.9849 14.6629C13.884 13.9187 13.2986 13.3333 12.5544 13.2324C12.4427 13.2173 12.3096 13.2173 12.0435 13.2173Z" stroke="white" stroke-width="2" stroke-linecap="round" stroke-linejoin="round"/>
</svg>
