<svg width="24" height="24" viewBox="0 0 24 24" fill="none" xmlns="http://www.w3.org/2000/svg">
<path d="M11.4 21.0435H12.6C14.8402 21.0435 15.9603 21.0435 16.816 20.6075C17.5686 20.224 18.1805 19.6121 18.564 18.8595C19 18.0038 19 16.8837 19 14.6435V14.1957V10.0401C19 9.04697 19 8.5504 18.8864 8.08392C18.7857 7.67037 18.6196 7.27555 18.3944 6.91435C18.1404 6.50693 17.7854 6.15968 17.0755 5.46518L16.8656 5.25988C16.1768 4.58602 15.8324 4.24908 15.4325 4.00828C15.078 3.79477 14.6925 3.63756 14.2898 3.54228C13.8356 3.43481 13.3538 3.43481 12.3901 3.43481H11.4C9.15979 3.43481 8.03969 3.43481 7.18404 3.87079C6.43139 4.25428 5.81947 4.8662 5.43597 5.61885C5 6.4745 5 7.5946 5 9.83481V14.6435C5 16.8837 5 18.0038 5.43597 18.8595C5.81947 19.6121 6.43139 20.224 7.18404 20.6075C8.03969 21.0435 9.15979 21.0435 11.4 21.0435Z" stroke="#A4A9A4" stroke-width="2" stroke-linecap="round" stroke-linejoin="round"/>
<path d="M9 12.239L15 12.239" stroke="#A4A9A4" stroke-width="2" stroke-linecap="round" stroke-linejoin="round"/>
<path d="M9 16.1521L12 16.1521" stroke="#A4A9A4" stroke-width="2" stroke-linecap="round" stroke-linejoin="round"/>
<path d="M18 8.32613H17.2C16.0799 8.32613 15.5198 8.32613 15.092 8.10814C14.7157 7.9164 14.4097 7.61043 14.218 7.23411C14 6.80629 14 6.24623 14 5.12613V4.41309" stroke="#A4A9A4" stroke-width="2" stroke-linecap="round" stroke-linejoin="round"/>
</svg>
