<svg width="24" height="24" viewBox="0 0 24 24" fill="none" xmlns="http://www.w3.org/2000/svg">
<path d="M15.0198 13.2173H8.98024C8.06932 13.2173 7.61387 13.2173 7.23487 13.2911C5.63579 13.6028 4.38549 14.8531 4.07386 16.4522C4 16.8312 4 17.2866 4 18.1975C4 18.5391 4 18.7099 4.0277 18.852C4.14456 19.4517 4.61342 19.9206 5.21308 20.0374C5.3552 20.0651 5.526 20.0651 5.86759 20.0651H18.1324C18.474 20.0651 18.6448 20.0651 18.7869 20.0374C19.3866 19.9206 19.8554 19.4517 19.9723 18.852C20 18.7099 20 18.5391 20 18.1975C20 17.2866 20 16.8312 19.9261 16.4522C19.6145 14.8531 18.3642 13.6028 16.7651 13.2911C16.3861 13.2173 15.9307 13.2173 15.0198 13.2173Z" stroke="#A4A9A4" stroke-width="2" stroke-linecap="round" stroke-linejoin="round"/>
<rect x="9" y="4.41309" width="6" height="5.86957" rx="2.5" stroke="#A4A9A4" stroke-width="2" stroke-linecap="round" stroke-linejoin="round"/>
</svg>
