<svg width="24" height="24" viewBox="0 0 24 24" fill="none" xmlns="http://www.w3.org/2000/svg">
<path d="M21 10.2826C21 9.49524 21 9.10153 20.9631 8.7703C20.6525 5.98276 18.4521 3.78236 15.6645 3.47173C15.3333 3.43481 14.9396 3.43481 14.1522 3.43481H9.84782C9.06042 3.43481 8.66672 3.43481 8.33549 3.47173C5.54794 3.78236 3.34755 5.98276 3.03691 8.7703C3 9.10153 3 9.49524 3 10.2826V10.2826V17.3491C3 18.7254 4.65704 19.4225 5.64091 18.46V18.46C6.51214 17.6077 7.68248 17.1305 8.90127 17.1305H14.1522C14.9396 17.1305 15.3333 17.1305 15.6645 17.0936C18.4521 16.7829 20.6525 14.5825 20.9631 11.795C21 11.4637 21 11.07 21 10.2826V10.2826Z" stroke="#A4A9A4" stroke-width="2" stroke-linejoin="round"/>
<path d="M7 8.32617L17 8.32617" stroke="#A4A9A4" stroke-width="2" stroke-linecap="round" stroke-linejoin="round"/>
<path d="M7 12.239L12 12.239" stroke="#A4A9A4" stroke-width="2" stroke-linecap="round" stroke-linejoin="round"/>
</svg>
