<svg width="24" height="24" viewBox="0 0 24 24" fill="none" xmlns="http://www.w3.org/2000/svg">
<path d="M21 18.0653V6.41309C21 6.10652 21 5.95323 20.9799 5.82494C20.8677 5.10786 20.3052 4.54535 19.5881 4.43316C19.4599 4.41309 19.3066 4.41309 19 4.41309C18.6934 4.41309 18.5401 4.41309 18.4119 4.43316C17.6948 4.54535 17.1323 5.10786 17.0201 5.82494C17 5.95323 17 6.10652 17 6.41309V18.0653C17 18.3718 17 18.5251 17.0201 18.6534C17.1323 19.3705 17.6948 19.933 18.4119 20.0452C18.5401 20.0653 18.6934 20.0653 19 20.0653C19.3066 20.0653 19.4599 20.0653 19.5881 20.0452C20.3052 19.933 20.8677 19.3705 20.9799 18.6534C21 18.5251 21 18.3718 21 18.0653Z" stroke="#A4A9A4" stroke-width="2" stroke-linecap="round" stroke-linejoin="round"/>
<path d="M7 18.0651V15.2173C7 14.9107 7 14.7574 6.97993 14.6291C6.86774 13.9121 6.30522 13.3495 5.58814 13.2374C5.45985 13.2173 5.30657 13.2173 5 13.2173C4.69343 13.2173 4.54015 13.2173 4.41186 13.2374C3.69478 13.3495 3.13226 13.9121 3.02007 14.6291C3 14.7574 3 14.9107 3 15.2173V18.0651C3 18.3717 3 18.525 3.02007 18.6533C3.13226 19.3703 3.69478 19.9328 4.41186 20.045C4.54015 20.0651 4.69343 20.0651 5 20.0651C5.30657 20.0651 5.45985 20.0651 5.58814 20.045C6.30522 19.9328 6.86774 19.3703 6.97993 18.6533C7 18.525 7 18.3717 7 18.0651Z" stroke="#A4A9A4" stroke-width="2" stroke-linecap="round" stroke-linejoin="round"/>
<path d="M14 18.0653V11.3044C14 10.9979 14 10.8446 13.9799 10.7163C13.8677 9.99922 13.3052 9.43671 12.5881 9.32452C12.4599 9.30444 12.3066 9.30444 12 9.30444C11.6934 9.30444 11.5401 9.30444 11.4119 9.32452C10.6948 9.43671 10.1323 9.99922 10.0201 10.7163C10 10.8446 10 10.9979 10 11.3044V18.0653C10 18.3719 10 18.5252 10.0201 18.6535C10.1323 19.3705 10.6948 19.933 11.4119 20.0452C11.5401 20.0653 11.6934 20.0653 12 20.0653C12.3066 20.0653 12.4599 20.0653 12.5881 20.0452C13.3052 19.933 13.8677 19.3705 13.9799 18.6535C14 18.5252 14 18.3719 14 18.0653Z" stroke="#A4A9A4" stroke-width="2" stroke-linecap="round" stroke-linejoin="round"/>
</svg>
