<svg width="24" height="24" viewBox="0 0 24 24" fill="none" xmlns="http://www.w3.org/2000/svg">
<path d="M9.91257 4H14.0875C14.9329 3.99994 15.4579 3.99989 15.9137 4.0599C17.1348 4.22066 18.2548 4.69249 19.192 5.39378L18.0811 6.50467C16.8814 7.70439 16.0236 8.5611 15.2967 9.17819C14.5787 9.7877 14.0545 10.1045 13.5451 10.27C12.5409 10.5963 11.4591 10.5963 10.4549 10.27C9.94548 10.1045 9.42128 9.7877 8.70331 9.17819C7.97641 8.5611 7.1186 7.70439 5.91888 6.50467L4.808 5.39379C5.74521 4.69249 6.86519 4.22066 8.08633 4.0599C8.54207 3.99989 9.06713 3.99994 9.91257 4Z" fill="#A2A9A4"/>
<path d="M3.39379 6.808C2.69249 7.74521 2.22066 8.86519 2.0599 10.0863C1.99989 10.5421 1.99994 11.0671 2 11.9126V12.0875C1.99994 12.9329 1.99989 13.4579 2.0599 13.9137C2.47343 17.0548 4.94519 19.5266 8.08633 19.9401C8.54208 20.0001 9.06714 20.0001 9.91258 20H14.0874C14.9329 20.0001 15.4579 20.0001 15.9137 19.9401C19.0548 19.5266 21.5266 17.0548 21.9401 13.9137C22.0001 13.4579 22.0001 12.9329 22 12.0875V11.9125C22.0001 11.0671 22.0001 10.5421 21.9401 10.0863C21.7794 8.86518 21.3075 7.7452 20.6062 6.80799L19.464 7.95026C18.3025 9.11172 17.3875 10.0267 16.591 10.7029C15.7785 11.3927 15.0237 11.8925 14.1631 12.1721C12.7572 12.6289 11.2428 12.6289 9.83688 12.1721C8.97634 11.8925 8.22153 11.3927 7.40896 10.7029C6.61248 10.0267 5.69752 9.11174 4.53607 7.95028L3.39379 6.808Z" fill="#A2A9A4"/>
</svg>
