<svg width="41" height="40" viewBox="0 0 41 40" fill="none" xmlns="http://www.w3.org/2000/svg">
<path d="M32.4514 21.6666H5.50004C4.57957 21.6666 3.83337 20.9204 3.83337 19.9999C3.83337 19.0794 4.57957 18.3333 5.50004 18.3333H32.4514C32.2875 17.8957 31.9845 17.4019 31.3856 16.6965C30.7181 15.9101 29.7852 14.9755 28.4457 13.636L25.9882 11.1784C25.3373 10.5276 25.3373 9.47228 25.9882 8.82141C26.6391 8.17053 27.6943 8.17053 28.3452 8.82141L30.8532 11.3294C32.1304 12.6066 33.1607 13.6368 33.9268 14.5392C34.7155 15.4684 35.3217 16.3711 35.6641 17.4248C36.2079 19.0985 36.2079 20.9014 35.6641 22.5751C35.3217 23.6287 34.7155 24.5315 33.9268 25.4606C33.1607 26.363 32.1305 27.3932 30.8532 28.6705L28.3452 31.1784C27.6943 31.8293 26.6391 31.8293 25.9882 31.1784C25.3373 30.5276 25.3373 29.4723 25.9882 28.8214L28.4457 26.3639C29.7852 25.0244 30.7181 24.0897 31.3856 23.3034C31.9845 22.598 32.2875 22.1041 32.4514 21.6666Z" fill="white"/>
</svg>
