<svg width="40" height="40" viewBox="0 0 40 40" fill="none" xmlns="http://www.w3.org/2000/svg">
<path d="M8.04866 18.3333C8.21254 17.8957 8.51559 17.4019 9.11443 16.6965C9.78199 15.9101 10.7148 14.9755 12.0543 13.636L14.5119 11.1784C15.1627 10.5276 15.1627 9.47228 14.5119 8.82141C13.861 8.17053 12.8057 8.17053 12.1548 8.82141L9.64687 11.3294C8.36961 12.6066 7.33938 13.6368 6.5733 14.5392C5.78452 15.4684 5.17833 16.3711 4.83596 17.4248C4.29215 19.0985 4.29215 20.9014 4.83596 22.5751C5.17832 23.6287 5.78452 24.5315 6.5733 25.4606C7.33938 26.363 8.36959 27.3932 9.64685 28.6705L12.1548 31.1784C12.8057 31.8293 13.861 31.8293 14.5119 31.1784C15.1627 30.5276 15.1627 29.4723 14.5119 28.8214L12.0543 26.3639C10.7148 25.0244 9.78199 24.0897 9.11443 23.3034C8.51559 22.598 8.21254 22.1041 8.04866 21.6666H35C35.9205 21.6666 36.6667 20.9204 36.6667 19.9999C36.6667 19.0794 35.9205 18.3333 35 18.3333H8.04866Z" fill="white"/>
</svg>
