<svg width="24" height="24" viewBox="0 0 24 24" fill="none" xmlns="http://www.w3.org/2000/svg">
<path fill-rule="evenodd" clip-rule="evenodd" d="M5.3806 5.08658C5.87614 3.89024 6.81594 2.93398 8.0006 2.41716C8.00198 2.69589 8.00651 2.94486 8.02135 3.16238C8.04385 3.49221 8.09336 3.82212 8.22836 4.14805C8.53284 4.88313 9.11687 5.46716 9.85195 5.77164C10.1779 5.90664 10.5078 5.95615 10.8376 5.97865C11.1509 6.00002 11.5294 6.00001 11.968 6H12.032C12.4706 6.00001 12.8491 6.00002 13.1624 5.97865C13.4922 5.95615 13.8221 5.90664 14.1481 5.77164C14.8831 5.46716 15.4672 4.88313 15.7716 4.14805C15.9066 3.82212 15.9561 3.49221 15.9787 3.16238C15.9935 2.94486 15.998 2.69589 15.9994 2.41716C17.1841 2.93398 18.1239 3.89024 18.6194 5.08658C18.8305 5.59628 18.9181 6.13456 18.9596 6.74331C19 7.3353 19 8.06268 19 8.96441V15.0355C19 15.9372 19 16.6647 18.9596 17.2567C18.9181 17.8654 18.8305 18.4037 18.6194 18.9134C18.1119 20.1386 17.1386 21.1119 15.9134 21.6194C15.4037 21.8305 14.8654 21.9181 14.2567 21.9596C13.6647 22 12.9373 22 12.0355 22H11.9645C11.0627 22 10.3353 22 9.74331 21.9596C9.13456 21.9181 8.59628 21.8305 8.08658 21.6194C6.86144 21.1119 5.88807 20.1386 5.3806 18.9134C5.16948 18.4037 5.08192 17.8654 5.04038 17.2567C4.99999 16.6647 4.99999 15.9373 5 15.0355V8.96448C4.99999 8.06274 4.99999 7.33531 5.04038 6.74331C5.08192 6.13456 5.16948 5.59628 5.3806 5.08658ZM12 19C12.5523 19 13 18.5523 13 18C13 17.4477 12.5523 17 12 17C11.4477 17 11 17.4477 11 18C11 18.5523 11.4477 19 12 19Z" fill="#84CC16"/>
<path d="M12.0355 2C12.811 1.99999 13.4576 1.99999 14 2.02568C14 2.49072 13.9992 2.79352 13.9833 3.02624C13.9677 3.25424 13.9411 3.34107 13.9239 3.38268C13.8224 3.62771 13.6277 3.82239 13.3827 3.92388C13.3411 3.94112 13.2542 3.96773 13.0262 3.98329C12.7893 3.99946 12.4796 4 12 4C11.5204 4 11.2107 3.99946 10.9738 3.98329C10.7458 3.96773 10.6589 3.94112 10.6173 3.92388C10.3723 3.82239 10.1776 3.62771 10.0761 3.38268C10.0589 3.34107 10.0323 3.25424 10.0167 3.02624C10.0008 2.79352 10 2.49072 10 2.02568C10.5424 1.99999 11.189 1.99999 11.9645 2H12.0355Z" fill="#84CC16"/>
</svg>
