<svg width="24" height="24" viewBox="0 0 24 24" fill="none" xmlns="http://www.w3.org/2000/svg">
<path fill-rule="evenodd" clip-rule="evenodd" d="M11.8624 1.99993C11.067 1.99949 10.4764 1.99917 9.96472 2.13627C8.58436 2.50614 7.50617 3.58433 7.1363 4.9647C6.9992 5.47635 6.99952 6.06701 6.99995 6.86239L7 8.12457C6.68085 8.17899 6.37901 8.25945 6.08658 8.38058C4.86144 8.88805 3.88807 9.86142 3.3806 11.0866C3.16948 11.5963 3.08191 12.1345 3.04038 12.7433C2.99999 13.3353 2.99999 14.0627 3 14.9645V15.0355C2.99999 15.9372 2.99999 16.6647 3.04038 17.2567C3.08191 17.8654 3.16948 18.4037 3.3806 18.9134C3.88807 20.1385 4.86144 21.1119 6.08658 21.6194C6.59628 21.8305 7.13456 21.9181 7.74331 21.9596C8.3353 22 9.0627 22 9.96443 22H14.0355C14.9373 22 15.6647 22 16.2567 21.9596C16.8654 21.9181 17.4037 21.8305 17.9134 21.6194C19.1386 21.1119 20.1119 20.1385 20.6194 18.9134C20.8305 18.4037 20.9181 17.8654 20.9596 17.2567C21 16.6647 21 15.9373 21 15.0355V14.9645C21 14.0627 21 13.3353 20.9596 12.7433C20.9181 12.1345 20.8305 11.5963 20.6194 11.0866C20.1119 9.86142 19.1386 8.88805 17.9134 8.38058C17.621 8.25945 17.3192 8.17899 17 8.12457L17 6.8624C17.0005 6.06702 17.0008 5.47635 16.8637 4.9647C16.4938 3.58433 15.4156 2.50614 14.0353 2.13627C13.5236 1.99917 12.933 1.99949 12.1376 1.99993H11.8624ZM15 8.00226V6.99997C15 6.00562 14.9914 5.70461 14.9319 5.48234C14.7469 4.79215 14.2078 4.25306 13.5176 4.06812C13.2954 4.00856 12.9944 3.99997 12 3.99997C11.0056 3.99997 10.7046 4.00856 10.4824 4.06812C9.79218 4.25306 9.25308 4.79215 9.06815 5.48234C9.00859 5.70461 9 6.00562 9 6.99997V8.00226C9.29722 7.99997 9.61797 7.99997 9.96446 7.99997H14.0355C14.382 7.99997 14.7028 7.99997 15 8.00226ZM10 15C10 14.6934 10 14.5401 10.0201 14.4118C10.1323 13.6948 10.6948 13.1322 11.4119 13.02C11.5401 13 11.6934 13 12 13C12.3066 13 12.4599 13 12.5881 13.02C13.3052 13.1322 13.8677 13.6948 13.9799 14.4118C14 14.5401 14 14.6934 14 15C14 15.3065 14 15.4598 13.9799 15.5881C13.8677 16.3052 13.3052 16.8677 12.5881 16.9799C12.4599 17 12.3066 17 12 17C11.6934 17 11.5401 17 11.4119 16.9799C10.6948 16.8677 10.1323 16.3052 10.0201 15.5881C10 15.4598 10 15.3065 10 15Z" fill="#A2A9A4"/>
</svg>
