<svg width="25" height="25" viewBox="0 0 25 25" fill="none" xmlns="http://www.w3.org/2000/svg">
<path d="M9.57826 8.28761C10.3604 5.88033 10.7515 4.67669 11.3309 4.35816C11.8319 4.08274 12.439 4.08274 12.94 4.35816C13.5194 4.67669 13.9105 5.88033 14.6927 8.28761V8.28761C14.8233 8.68959 14.8886 8.89058 15.0102 9.03756C15.1175 9.16735 15.256 9.26791 15.4126 9.32991C15.5899 9.40014 15.8013 9.40014 16.2239 9.40014V9.40014C18.7551 9.40014 20.0207 9.40014 20.5027 9.85276C20.9194 10.2441 21.107 10.8215 20.9999 11.3831C20.876 12.0326 19.8521 12.7764 17.8044 14.2642V14.2642C17.4624 14.5127 17.2914 14.6369 17.1892 14.7979C17.099 14.9402 17.0461 15.1029 17.0355 15.271C17.0236 15.4614 17.0889 15.6623 17.2195 16.0643V16.0643C18.0016 18.4716 18.3927 19.6752 18.1112 20.2735C17.8678 20.7908 17.3767 21.1476 16.8095 21.2193C16.1535 21.3022 15.1296 20.5583 13.0818 19.0705V19.0705C12.7399 18.8221 12.5689 18.6978 12.3842 18.6504C12.221 18.6085 12.0499 18.6085 11.8868 18.6504C11.702 18.6978 11.531 18.8221 11.1891 19.0705V19.0705C9.14134 20.5583 8.11746 21.3022 7.46148 21.2193C6.89427 21.1476 6.40314 20.7908 6.15972 20.2735C5.8782 19.6752 6.26928 18.4716 7.05146 16.0643V16.0643C7.18207 15.6623 7.24737 15.4614 7.23539 15.271C7.22482 15.1029 7.17195 14.9402 7.08169 14.7979C6.97948 14.6369 6.80851 14.5127 6.46657 14.2642V14.2642C4.41881 12.7764 3.39494 12.0326 3.27104 11.3831C3.16391 10.8215 3.35151 10.2441 3.76827 9.85276C4.25026 9.40014 5.51584 9.40014 8.047 9.40014V9.40014C8.46967 9.40014 8.681 9.40014 8.85836 9.32991C9.01497 9.26791 9.15338 9.16735 9.26075 9.03756C9.38235 8.89058 9.44765 8.68959 9.57826 8.28761V8.28761Z" stroke="#313A34" stroke-width="2" stroke-linejoin="round"/>
</svg>
