<svg width="25" height="25" viewBox="0 0 25 25" fill="none" xmlns="http://www.w3.org/2000/svg">
<path d="M16.1355 20.4174V20.4174C9.50805 20.4174 4.13547 15.0448 4.13547 8.41736V8.41736" stroke="#313A34" stroke-width="2" stroke-linecap="round" stroke-linejoin="round"/>
<path d="M4.13547 6.91736V7.91736C4.13547 8.38201 4.13547 8.61434 4.1739 8.80754C4.33171 9.60092 4.95191 10.2211 5.74529 10.3789C5.93848 10.4174 6.17081 10.4174 6.63547 10.4174C7.10012 10.4174 7.33245 10.4174 7.52565 10.3789C8.31903 10.2211 8.93922 9.60092 9.09704 8.80754C9.13547 8.61434 9.13547 8.38201 9.13547 7.91736V6.91736C9.13547 6.4527 9.13547 6.22038 9.09704 6.02718C8.93922 5.2338 8.31903 4.6136 7.52565 4.45579C7.33245 4.41736 7.10012 4.41736 6.63547 4.41736C6.17081 4.41736 5.93848 4.41736 5.74529 4.45579C4.95191 4.6136 4.33171 5.2338 4.1739 6.02718C4.13547 6.22038 4.13547 6.4527 4.13547 6.91736Z" stroke="#313A34" stroke-width="2" stroke-linecap="round" stroke-linejoin="round"/>
<path d="M17.6355 15.4174L16.6355 15.4174C16.1708 15.4174 15.9385 15.4174 15.7453 15.4558C14.9519 15.6136 14.3317 16.2338 14.1739 17.0272C14.1355 17.2204 14.1355 17.4527 14.1355 17.9174C14.1355 18.382 14.1355 18.6143 14.1739 18.8075C14.3317 19.6009 14.9519 20.2211 15.7453 20.3789C15.9385 20.4174 16.1708 20.4174 16.6355 20.4174L17.6355 20.4174C18.1001 20.4174 18.3325 20.4174 18.5256 20.3789C19.319 20.2211 19.9392 19.6009 20.097 18.8075C20.1355 18.6143 20.1355 18.382 20.1355 17.9174C20.1355 17.4527 20.1355 17.2204 20.097 17.0272C19.9392 16.2338 19.319 15.6136 18.5256 15.4558C18.3325 15.4174 18.1001 15.4174 17.6355 15.4174Z" stroke="#313A34" stroke-width="2" stroke-linecap="round" stroke-linejoin="round"/>
</svg>
