<svg width="375" height="520" viewBox="0 0 375 520" fill="none" xmlns="http://www.w3.org/2000/svg">
<g clip-path="url(#clip0_112_1808)">
<path d="M0 0H375V443.2C375 470.083 375 483.524 369.768 493.792C365.166 502.823 357.823 510.166 348.792 514.768C338.524 520 325.083 520 298.2 520H76.8C49.9175 520 36.4762 520 26.2085 514.768C17.1767 510.166 9.83361 502.823 5.23169 493.792C0 483.524 0 470.083 0 443.2V0Z" fill="#1E40AF"/>
<path fill-rule="evenodd" clip-rule="evenodd" d="M-64.7177 213.306C-64.7177 213.306 -329.517 234.6 -257.855 145.462C-186.099 56.3489 -368.479 92.0566 -319.493 32.538C-270.6 -27.0057 62.1802 -220.244 117.527 -154.377C172.908 -88.451 -5.27803 -5.34528 81.5773 26.7512C168.467 58.9069 201.968 176.926 -64.7177 213.306Z" fill="#1D4ED8"/>
<path fill-rule="evenodd" clip-rule="evenodd" d="M143.846 293.895C143.846 293.895 358.18 42.075 373.562 183.612C388.84 325.209 517.941 133.247 527.212 228.754C536.587 324.2 413.761 787.201 307.069 777.941C200.295 768.659 283.985 538.671 179.283 586.87C74.4992 635.046 -58.8688 560.654 143.846 293.895Z" fill="#1D4ED8"/>
<path d="M281.389 128.761C281.254 128.761 281.12 128.761 280.851 128.761C279.776 128.493 279.239 127.418 279.507 126.477L284.076 109.412C284.345 108.337 285.42 107.8 286.36 108.068C287.435 108.337 287.973 109.412 287.704 110.353L283.135 127.418C283.001 128.224 282.329 128.761 281.389 128.761Z" fill="#60A5FA"/>
<path d="M271.31 168.536C270.907 168.536 270.504 168.536 270.235 168.402C267.951 167.73 266.607 165.445 267.279 163.161L277.356 125.806C278.028 123.522 280.313 122.178 282.597 122.85C284.881 123.522 286.225 125.806 285.553 128.091L275.475 165.445C274.938 167.327 273.191 168.536 271.31 168.536Z" fill="#1D4ED8"/>
<path d="M169.054 350.072C163.948 350.072 159.917 345.906 159.917 340.935V333.141C159.917 314.733 174.966 299.683 193.374 299.683H204.393C209.499 299.683 213.53 303.849 213.53 308.82C213.53 313.927 209.364 317.958 204.393 317.958H193.374C185.044 317.958 178.325 324.676 178.325 333.007V340.8C178.325 345.906 174.16 350.072 169.054 350.072Z" fill="#3B82F6"/>
<path d="M178.46 485.11H160.051V528.915H178.46V485.11Z" fill="#3B82F6"/>
<path d="M168.652 441.577C163.546 441.577 159.515 437.411 159.515 432.44V374.795C159.515 369.689 163.681 365.658 168.652 365.658C173.624 365.658 177.789 369.823 177.789 374.795V432.44C177.924 437.546 173.758 441.577 168.652 441.577Z" fill="#3B82F6"/>
<path d="M199.558 405.239L156.694 405.351L156.96 506.8L199.824 506.688L199.558 405.239Z" fill="#DBEAFE"/>
<path d="M185.583 405.239L142.719 405.351L142.985 506.8L185.849 506.688L185.583 405.239Z" fill="white"/>
<path d="M197.711 325.935L154.848 326.089L155.043 380.509L197.907 380.355L197.711 325.935Z" fill="#DBEAFE"/>
<path d="M185.753 325.94L142.89 326.093L143.085 380.513L185.948 380.359L185.753 325.94Z" fill="white"/>
<path d="M290.39 501.769L282.731 610.205H228.715L221.056 501.769H290.39Z" fill="#DBEAFE"/>
<path d="M381.224 501.769L373.027 610.205H320.085L311.889 501.769H381.224Z" fill="#DBEAFE"/>
<path d="M332.178 511.981C332.178 521.118 267.009 521.118 267.009 511.981L256.797 459.442H342.256L332.178 511.981Z" fill="#3B82F6"/>
<path d="M307.993 511.981C307.993 521.118 242.823 521.118 242.823 511.981L232.611 459.442H318.07L307.993 511.981Z" fill="#1D4ED8"/>
<path d="M263.786 501.769L256.126 610.205H202.11L194.451 501.769H263.786Z" fill="white"/>
<path d="M354.619 501.769L346.423 610.205H293.481L285.285 501.769H354.619Z" fill="white"/>
<path d="M316.457 526.896C316.457 544.364 234.357 544.364 234.357 526.896V501.769H316.457V526.896Z" fill="white"/>
<path d="M381.895 313.249V468.446H220.517V313.249C220.517 294.035 236.104 278.448 255.319 278.448H347.228C366.308 278.448 381.895 294.035 381.895 313.249Z" fill="#DBEAFE"/>
<path d="M355.829 313.249V468.446H194.451V313.249C194.451 294.035 210.038 278.448 229.253 278.448H321.161C340.242 278.448 355.829 294.035 355.829 313.249Z" fill="white"/>
<path d="M321.966 328.707V357.328C321.966 365.121 315.65 371.571 307.722 371.571H242.553C237.582 371.571 233.148 369.018 230.729 365.121C229.251 362.837 228.445 360.284 228.445 357.328V328.707C228.445 320.914 234.76 314.464 242.688 314.464H307.857C310.544 314.464 313.097 315.27 315.247 316.48C319.144 319.033 321.966 323.601 321.966 328.707Z" fill="#3B82F6"/>
<path d="M317.397 324.273V352.894C317.397 360.687 311.082 367.137 303.154 367.137H237.985C235.298 367.137 232.744 366.331 230.595 365.121C229.117 362.837 228.31 360.284 228.31 357.328V328.707C228.31 320.914 234.626 314.464 242.553 314.464H307.723C310.41 314.464 312.963 315.27 315.113 316.48C316.457 318.764 317.397 321.451 317.397 324.273Z" fill="#1D4ED8"/>
<path d="M254.78 332.465H244.568C242.553 332.465 241.074 330.853 241.074 328.972C241.074 327.09 242.687 325.478 244.568 325.478H254.78C256.796 325.478 258.274 327.09 258.274 328.972C258.274 330.853 256.661 332.465 254.78 332.465Z" fill="#60A5FA"/>
<path d="M280.444 332.465H270.232C268.217 332.465 266.739 330.853 266.739 328.972C266.739 327.09 268.351 325.478 270.232 325.478H280.444C282.46 325.478 283.938 327.09 283.938 328.972C283.938 330.853 282.46 332.465 280.444 332.465Z" fill="#60A5FA"/>
<path d="M306.244 332.465H296.031C294.016 332.465 292.538 330.853 292.538 328.972C292.538 327.09 294.15 325.478 296.031 325.478H306.244C308.259 325.478 309.737 327.09 309.737 328.972C309.737 330.853 308.259 332.465 306.244 332.465Z" fill="#60A5FA"/>
<path d="M254.78 346.575H244.568C242.553 346.575 241.074 344.962 241.074 343.081C241.074 341.065 242.687 339.587 244.568 339.587H254.78C256.796 339.587 258.274 341.2 258.274 343.081C258.274 345.097 256.661 346.575 254.78 346.575Z" fill="white"/>
<path d="M280.445 346.575H270.233C268.218 346.575 266.74 344.962 266.74 343.081C266.74 341.065 268.352 339.587 270.233 339.587H280.445C282.461 339.587 283.939 341.2 283.939 343.081C284.073 345.097 282.461 346.575 280.445 346.575Z" fill="#60A5FA"/>
<path d="M306.245 346.575H296.033C294.017 346.575 292.539 344.962 292.539 343.081C292.539 341.065 294.151 339.587 296.033 339.587H306.245C308.26 339.587 309.738 341.2 309.738 343.081C309.738 345.097 308.26 346.575 306.245 346.575Z" fill="#3B82F6"/>
<path d="M254.782 360.823H244.57C242.554 360.823 241.076 359.21 241.076 357.329C241.076 355.448 242.689 353.835 244.57 353.835H254.782C256.797 353.835 258.275 355.448 258.275 357.329C258.275 359.21 256.663 360.823 254.782 360.823Z" fill="#3B82F6"/>
<path d="M280.446 360.822H270.234C268.218 360.822 266.74 359.21 266.74 357.329C266.74 355.448 268.352 353.835 270.234 353.835H280.446C282.461 353.835 283.939 355.448 283.939 357.329C283.939 359.21 282.461 360.822 280.446 360.822Z" fill="#60A5FA"/>
<path d="M306.244 360.822H296.032C294.016 360.822 292.538 359.21 292.538 357.329C292.538 355.448 294.151 353.835 296.032 353.835H306.244C308.259 353.835 309.737 355.448 309.737 357.329C309.737 359.21 308.259 360.822 306.244 360.822Z" fill="#60A5FA"/>
<path d="M266.875 157.651C266.875 151.335 271.981 146.095 278.431 146.095H298.855C305.171 146.095 310.411 151.201 310.411 157.651C310.411 164.1 305.305 169.206 298.855 169.206H278.431C272.116 169.206 266.875 164.1 266.875 157.651Z" fill="#DBEAFE"/>
<path d="M278.297 301.289C267.682 301.289 258.679 293.227 257.739 282.477L254.917 251.975C253.842 240.554 262.173 230.476 273.594 229.401C285.016 228.326 295.093 236.657 296.168 248.079L298.99 278.58C300.065 290.002 291.734 300.079 280.313 301.154C279.506 301.289 278.835 301.289 278.297 301.289Z" fill="#DBEAFE"/>
<path d="M278.297 302.232C277.894 302.232 277.625 302.232 277.222 302.232C276.684 302.232 276.281 301.695 276.281 301.292C276.281 300.754 276.819 300.351 277.222 300.351C278.162 300.351 279.103 300.351 280.044 300.351C285.956 299.814 291.331 296.589 294.69 291.617C294.959 291.214 295.63 291.08 296.034 291.348C296.437 291.617 296.571 292.289 296.302 292.692C292.674 298.201 286.762 301.695 280.312 302.232C279.64 302.232 278.969 302.232 278.297 302.232Z" fill="#1D4ED8"/>
<path d="M298.854 279.662C298.317 279.662 297.914 279.259 297.914 278.856L297.107 269.585C297.107 269.047 297.511 268.644 297.914 268.51C298.451 268.51 298.854 268.913 298.989 269.316L299.795 278.587C299.795 279.125 299.526 279.528 298.854 279.662Z" fill="#1D4ED8"/>
<path d="M300.468 262.461H286.493C259.485 262.461 237.717 240.559 237.717 213.685V209.251C237.717 178.48 262.71 153.488 293.481 153.488C324.251 153.488 349.244 178.48 349.244 209.251V213.685C349.244 240.693 327.476 262.461 300.468 262.461Z" fill="#DBEAFE"/>
<path d="M253.438 157.651C253.438 151.335 258.544 146.095 264.994 146.095H275.609C281.925 146.095 287.165 151.201 287.165 157.651C287.165 164.1 282.059 169.206 275.609 169.206H264.994C258.544 169.206 253.438 164.1 253.438 157.651Z" fill="white"/>
<path d="M277.222 262.461H263.247C236.239 262.461 214.471 240.559 214.471 213.685V209.251C214.471 178.48 239.464 153.488 270.234 153.488C301.005 153.488 325.998 178.48 325.998 209.251V213.685C325.998 240.693 304.23 262.461 277.222 262.461Z" fill="white"/>
<path d="M277.222 262.461H263.247C236.239 262.461 214.471 240.559 214.471 213.685V209.251C214.471 178.48 239.464 153.488 270.234 153.488C301.005 153.488 325.998 178.48 325.998 209.251V213.685C325.998 219.329 325.057 224.703 323.31 229.809L277.222 262.461Z" fill="white"/>
<path d="M258.141 164.101C257.738 164.101 257.335 163.833 257.2 163.295C257.066 162.758 257.469 162.22 257.872 162.086C265.665 160.339 273.862 160.339 281.655 161.952C282.193 162.086 282.462 162.623 282.462 163.027C282.327 163.564 281.79 163.833 281.387 163.833C273.862 162.355 265.934 162.355 258.41 163.967C258.275 164.101 258.141 164.101 258.141 164.101Z" fill="#1D4ED8"/>
<path d="M215.949 226.585C209.633 226.585 204.393 221.479 204.393 215.03V204.414C204.393 198.099 209.499 192.859 215.949 192.859C222.264 192.859 227.504 197.965 227.504 204.414V215.03C227.504 221.479 222.264 226.585 215.949 226.585Z" fill="white"/>
<path d="M344.81 226.585C338.494 226.585 333.254 221.479 333.254 215.03V204.414C333.254 198.099 338.36 192.859 344.81 192.859C351.125 192.859 356.365 197.965 356.365 204.414V215.03C356.365 221.479 351.125 226.585 344.81 226.585Z" fill="#DBEAFE"/>
<path d="M327.073 226.585C320.758 226.585 315.517 221.479 315.517 215.03V204.414C315.517 198.099 320.623 192.859 327.073 192.859C333.388 192.859 338.629 197.965 338.629 204.414V215.03C338.494 221.479 333.388 226.585 327.073 226.585Z" fill="white"/>
<path d="M334.731 207.237C334.193 207.237 333.79 206.834 333.79 206.297C333.79 202.534 330.834 199.578 327.072 199.578C326.534 199.578 326.131 199.175 326.131 198.638C326.131 198.1 326.534 197.697 327.072 197.697C331.775 197.697 335.672 201.594 335.672 206.297C335.672 206.7 335.268 207.237 334.731 207.237Z" fill="#1D4ED8"/>
<path d="M309.202 207.905C309.202 213.415 306.918 218.521 303.29 222.149C299.662 225.777 294.556 228.061 289.047 228.061H244.705C237.046 228.061 230.327 223.761 226.968 217.446C225.49 214.624 224.55 211.399 224.55 207.905C224.55 202.396 226.834 197.29 230.462 193.662C234.09 190.034 239.196 187.75 244.705 187.75H289.181C293.884 187.75 298.184 189.362 301.543 192.05C306.246 195.812 309.202 201.59 309.202 207.905Z" fill="#3B82F6"/>
<path d="M303.962 201.59C303.962 207.099 301.678 212.205 298.05 215.833C294.422 219.461 289.316 221.745 283.806 221.745H239.33C234.627 221.745 230.327 220.133 226.968 217.446C225.49 214.624 224.55 211.399 224.55 207.905C224.55 202.396 226.834 197.29 230.462 193.662C234.09 190.034 239.196 187.75 244.705 187.75H289.181C289.853 187.75 290.391 187.75 291.062 187.884C293.75 188.153 296.303 188.959 298.587 190.169C299.662 190.706 300.737 191.378 301.678 192.184C303.021 195.006 303.962 198.231 303.962 201.59Z" fill="#1D4ED8"/>
<path d="M295.496 408.116C295.496 419.403 286.359 428.54 275.072 428.54C269.16 428.54 263.785 425.987 260.023 421.821C256.663 418.194 254.782 413.356 254.782 408.116C254.782 396.829 263.919 387.692 275.206 387.692C279.506 387.692 283.403 389.035 286.628 391.185C292.003 394.948 295.496 401.129 295.496 408.116Z" fill="#3B82F6"/>
<path d="M291.868 405.026C291.868 416.313 282.731 425.45 271.444 425.45C267.144 425.45 263.248 424.107 260.023 421.957C256.664 418.329 254.782 413.491 254.782 408.251C254.782 396.964 263.92 387.827 275.207 387.827C279.506 387.827 283.403 389.171 286.628 391.32C289.987 394.948 291.868 399.651 291.868 405.026Z" fill="#1D4ED8"/>
<path d="M243.899 422.358C243.899 429.614 237.987 435.527 230.731 435.527C226.834 435.527 223.341 433.914 221.056 431.227C218.907 428.942 217.697 425.852 217.697 422.358C217.697 415.102 223.61 409.19 230.865 409.19C233.553 409.19 236.106 409.996 238.256 411.474C241.615 413.893 243.899 417.79 243.899 422.358Z" fill="#3B82F6"/>
<path d="M241.615 420.343C241.615 427.599 235.703 433.511 228.447 433.511C225.759 433.511 223.206 432.705 221.056 431.227C218.907 428.942 217.697 425.852 217.697 422.358C217.697 415.102 223.61 409.19 230.865 409.19C233.553 409.19 236.106 409.996 238.256 411.474C240.271 413.759 241.615 416.849 241.615 420.343Z" fill="#1D4ED8"/>
<path d="M222.267 423.298C221.73 423.298 221.327 422.895 221.327 422.357C221.327 417.117 225.626 412.951 230.733 412.951C231.27 412.951 231.673 413.354 231.673 413.892C231.673 414.429 231.27 414.832 230.733 414.832C226.567 414.832 223.208 418.192 223.208 422.357C223.208 422.895 222.805 423.298 222.267 423.298Z" fill="white"/>
<path d="M332.716 422.358C332.716 429.614 326.804 435.527 319.548 435.527C315.651 435.527 312.158 433.914 309.873 431.227C307.723 428.942 306.514 425.852 306.514 422.358C306.514 415.102 312.426 409.19 319.682 409.19C322.37 409.19 324.923 409.996 327.073 411.474C330.432 413.893 332.716 417.79 332.716 422.358Z" fill="#3B82F6"/>
<path d="M330.298 420.343C330.298 427.599 324.386 433.511 317.13 433.511C314.443 433.511 311.89 432.705 309.74 431.227C307.59 428.942 306.381 425.852 306.381 422.358C306.381 415.102 312.293 409.19 319.549 409.19C322.236 409.19 324.789 409.996 326.939 411.474C329.089 413.759 330.298 416.849 330.298 420.343Z" fill="#1D4ED8"/>
<path d="M178.057 494.242H151.855C151.318 494.242 150.915 493.839 150.915 493.302C150.915 492.764 151.318 492.361 151.855 492.361H178.057C178.595 492.361 178.998 492.764 178.998 493.302C178.998 493.705 178.595 494.242 178.057 494.242Z" fill="#1D4ED8"/>
<path d="M254.513 210.592C252.498 208.979 249.542 208.039 246.317 208.039C243.092 208.039 240.136 208.979 238.12 210.592C238.523 206.426 242.017 203.067 246.317 203.067C250.617 203.067 254.11 206.426 254.513 210.592Z" fill="#60A5FA"/>
<path d="M289.853 210.592C287.837 208.979 284.881 208.039 281.656 208.039C278.431 208.039 275.475 208.979 273.46 210.592C273.863 206.426 277.356 203.067 281.656 203.067C285.956 203.067 289.45 206.426 289.853 210.592Z" fill="#60A5FA"/>
<path d="M284.074 408.117H265.8C265.263 408.117 264.86 407.713 264.86 407.176C264.86 406.638 265.263 406.235 265.8 406.235H284.074C284.612 406.235 285.015 406.638 285.015 407.176C285.015 407.579 284.612 408.117 284.074 408.117Z" fill="#60A5FA"/>
<path d="M278.028 399.653H271.982C271.444 399.653 271.041 399.25 271.041 398.712C271.041 398.175 271.444 397.772 271.982 397.772H278.028C278.566 397.772 278.969 398.175 278.969 398.712C278.969 399.25 278.566 399.653 278.028 399.653Z" fill="#60A5FA"/>
<path d="M278.028 416.578H271.982C271.444 416.578 271.041 416.175 271.041 415.637C271.041 415.1 271.444 414.697 271.982 414.697H278.028C278.566 414.697 278.969 415.1 278.969 415.637C278.969 416.04 278.566 416.578 278.028 416.578Z" fill="#60A5FA"/>
<path d="M277.222 263.402C276.684 263.402 276.281 262.999 276.281 262.461C276.281 261.924 276.684 261.521 277.222 261.521C292.002 261.521 305.708 254.802 314.845 243.247C315.114 242.844 315.786 242.709 316.189 243.112C316.592 243.381 316.726 244.053 316.323 244.456C306.917 256.549 292.54 263.402 277.222 263.402Z" fill="#1D4ED8"/>
<path d="M321.16 235.987C321.026 235.987 320.891 235.987 320.757 235.853C320.219 235.584 320.085 235.046 320.354 234.509C321.16 232.897 321.832 231.15 322.504 229.403C322.638 228.865 323.176 228.597 323.713 228.865C324.251 229 324.519 229.537 324.251 230.075C323.579 231.956 322.907 233.703 321.966 235.45C321.832 235.853 321.429 235.987 321.16 235.987Z" fill="#1D4ED8"/>
<path d="M319.279 429.885C318.876 429.885 318.473 429.616 318.338 429.213C318.204 428.676 318.473 428.138 319.01 428.004C320.354 427.735 321.429 427.063 322.37 426.123C322.773 425.72 323.31 425.72 323.713 426.123C324.116 426.526 324.116 427.063 323.713 427.467C322.504 428.542 321.026 429.348 319.413 429.751C319.413 429.885 319.279 429.885 319.279 429.885Z" fill="white"/>
<path d="M325.729 422.629C325.057 422.495 324.654 422.091 324.788 421.554C324.923 420.613 324.788 419.807 324.654 418.867C324.52 418.329 324.788 417.792 325.326 417.657C325.863 417.523 326.401 417.792 326.535 418.329C326.804 419.404 326.804 420.479 326.669 421.688C326.669 422.226 326.266 422.629 325.729 422.629Z" fill="white"/>
<path d="M409.178 350.072C414.284 350.072 418.315 345.906 418.315 340.935V333.141C418.315 314.733 403.265 299.683 384.857 299.683H373.838C368.732 299.683 364.701 303.849 364.701 308.82C364.701 313.927 368.867 317.958 373.838 317.958H384.857C393.188 317.958 399.906 324.676 399.906 333.007V340.8C399.906 345.906 404.072 350.072 409.178 350.072Z" fill="#1D4ED8"/>
<path d="M254.782 452.729H243.898C243.36 452.729 242.957 452.326 242.957 451.789C242.957 451.251 243.36 450.848 243.898 450.848H254.782C255.319 450.848 255.722 451.251 255.722 451.789C255.722 452.326 255.319 452.729 254.782 452.729Z" fill="#1D4ED8"/>
<path d="M230.73 452.729H211.516C210.978 452.729 210.575 452.326 210.575 451.789C210.575 451.251 210.978 450.848 211.516 450.848H230.865C231.402 450.848 231.805 451.251 231.805 451.789C231.671 452.326 231.268 452.729 230.73 452.729Z" fill="#1D4ED8"/>
<rect x="102" y="122" width="81" height="79.2198" rx="24" fill="white"/>
<path d="M145.038 174.019C152.464 172.814 157.507 165.817 156.302 158.39C155.097 150.964 148.099 145.921 140.673 147.126C133.247 148.331 128.203 155.328 129.409 162.755C130.614 170.181 137.611 175.224 145.038 174.019Z" fill="#3B82F6"/>
<path d="M149.823 152.954C149.517 152.954 149.229 152.858 148.961 152.666C148.348 152.187 148.233 151.306 148.712 150.693L156.184 141.037C156.663 140.423 157.545 140.309 158.158 140.788C158.771 141.267 158.886 142.148 158.407 142.761L150.935 152.417C150.666 152.762 150.245 152.954 149.823 152.954Z" fill="#3B82F6"/>
<path d="M161.472 142.282C160.284 143.834 158.062 144.102 156.51 142.914C154.958 141.726 154.689 139.504 155.877 137.952C157.065 136.4 159.288 136.132 160.84 137.32C162.392 138.527 162.66 140.749 161.472 142.282Z" fill="#3B82F6"/>
<path d="M149.823 152.954C149.517 152.954 149.229 152.858 148.961 152.666C148.348 152.187 148.233 151.306 148.712 150.693L156.184 141.037C156.663 140.423 157.545 140.309 158.158 140.788C158.771 141.267 158.886 142.148 158.407 142.761L150.935 152.417C150.666 152.762 150.245 152.954 149.823 152.954Z" fill="#3B82F6"/>
<path d="M161.472 142.282C160.284 143.834 158.062 144.102 156.51 142.914C154.958 141.726 154.689 139.504 155.877 137.952C157.065 136.4 159.288 136.132 160.84 137.32C162.392 138.527 162.66 140.749 161.472 142.282Z" fill="#3B82F6"/>
<path d="M153.885 159.104C153.253 159.104 152.697 158.683 152.525 158.05C152.333 157.303 152.774 156.537 153.54 156.345L165.362 153.28C166.109 153.088 166.875 153.529 167.067 154.295C167.259 155.042 166.818 155.809 166.052 156L154.23 159.066C154.134 159.104 154 159.104 153.885 159.104Z" fill="#3B82F6"/>
<path d="M168.771 157.514C166.875 158.012 164.939 156.862 164.461 154.966C163.962 153.069 165.112 151.134 167.009 150.655C168.906 150.156 170.841 151.306 171.32 153.203C171.799 155.1 170.649 157.016 168.771 157.514Z" fill="#3B82F6"/>
<path d="M164.557 171.289C164.366 171.289 164.193 171.251 164.002 171.174L152.774 166.365C152.065 166.059 151.739 165.235 152.046 164.526C152.353 163.817 153.176 163.491 153.885 163.798L165.113 168.607C165.822 168.914 166.147 169.737 165.841 170.446C165.63 170.983 165.113 171.289 164.557 171.289Z" fill="#3B82F6"/>
<path d="M165.208 174.029C163.407 173.263 162.583 171.174 163.349 169.373C164.116 167.572 166.204 166.748 168.005 167.515C169.806 168.281 170.63 170.37 169.863 172.171C169.097 173.952 167.009 174.795 165.208 174.029Z" fill="#3B82F6"/>
<path d="M154.325 182.651C153.827 182.651 153.348 182.383 153.099 181.923L147.16 171.232C146.776 170.561 147.025 169.699 147.696 169.316C148.367 168.933 149.229 169.182 149.612 169.853L155.551 180.544C155.935 181.214 155.686 182.076 155.015 182.459C154.785 182.594 154.555 182.651 154.325 182.651Z" fill="#3B82F6"/>
<path d="M152.294 184.912C151.336 183.207 151.969 181.042 153.674 180.103C155.379 179.145 157.544 179.777 158.483 181.482C159.441 183.188 158.809 185.353 157.103 186.291C155.398 187.23 153.252 186.617 152.294 184.912Z" fill="#3B82F6"/>
<path d="M139.266 185.333C139.189 185.333 139.132 185.333 139.055 185.314C138.289 185.199 137.771 184.49 137.886 183.724L139.726 171.653C139.841 170.887 140.55 170.37 141.316 170.485C142.082 170.6 142.6 171.309 142.485 172.075L140.645 184.145C140.55 184.835 139.956 185.333 139.266 185.333Z" fill="#3B82F6"/>
<path d="M135.434 185.602C135.721 183.667 137.542 182.345 139.477 182.632C141.412 182.919 142.734 184.74 142.446 186.675C142.159 188.61 140.339 189.932 138.404 189.644C136.469 189.338 135.127 187.537 135.434 185.602Z" fill="#3B82F6"/>
<path d="M125.72 178.264C125.356 178.264 124.973 178.11 124.705 177.823C124.168 177.267 124.187 176.367 124.762 175.849L133.614 167.419C134.169 166.883 135.07 166.902 135.587 167.477C136.124 168.032 136.105 168.933 135.53 169.45L126.678 177.88C126.41 178.129 126.065 178.264 125.72 178.264Z" fill="#3B82F6"/>
<path d="M121.658 175.83C123.076 174.489 125.317 174.547 126.659 175.964C128 177.382 127.942 179.624 126.524 180.965C125.107 182.306 122.865 182.249 121.524 180.831C120.183 179.413 120.24 177.172 121.658 175.83Z" fill="#3B82F6"/>
<path d="M119.322 164.373C118.613 164.373 118 163.836 117.923 163.108C117.846 162.342 118.402 161.652 119.168 161.575L131.335 160.33C132.101 160.253 132.791 160.809 132.868 161.575C132.944 162.342 132.389 163.032 131.622 163.108L119.456 164.354C119.418 164.373 119.379 164.373 119.322 164.373Z" fill="#3B82F6"/>
<path d="M116.754 159.679C118.689 159.487 120.433 160.905 120.624 162.84C120.816 164.775 119.398 166.519 117.463 166.71C115.528 166.902 113.784 165.484 113.593 163.549C113.382 161.614 114.8 159.87 116.754 159.679Z" fill="#3B82F6"/>
<path d="M133.154 155.943C132.905 155.943 132.637 155.866 132.407 155.732L122.042 149.275C121.39 148.873 121.18 147.991 121.601 147.34C122.004 146.689 122.885 146.478 123.536 146.899L133.883 153.337C134.534 153.739 134.745 154.621 134.323 155.272C134.074 155.713 133.614 155.943 133.154 155.943Z" fill="#3B82F6"/>
<path d="M122.75 143.891C124.417 144.926 124.915 147.11 123.881 148.758C122.846 150.425 120.662 150.923 119.014 149.888C117.347 148.854 116.849 146.669 117.884 145.022C118.918 143.374 121.102 142.857 122.75 143.891Z" fill="#3B82F6"/>
<path d="M140.837 151.881C140.167 151.881 139.573 151.402 139.458 150.731L137.293 138.699C137.159 137.933 137.657 137.204 138.423 137.07C139.19 136.936 139.918 137.434 140.052 138.201L142.217 150.233C142.351 150.999 141.853 151.727 141.086 151.862C141.01 151.881 140.914 151.881 140.837 151.881Z" fill="#3B82F6"/>
<path d="M141.757 135.633C142.102 137.549 140.818 139.389 138.902 139.753C136.986 140.098 135.147 138.814 134.783 136.898C134.438 134.982 135.722 133.143 137.638 132.779C139.573 132.434 141.412 133.717 141.757 135.633Z" fill="#3B82F6"/>
<path d="M145.018 155.247C145.346 152.579 143.45 150.151 140.783 149.822C138.115 149.494 135.686 151.39 135.358 154.058C135.029 156.725 136.926 159.154 139.593 159.482C142.261 159.811 144.689 157.915 145.018 155.247Z" fill="#60A5FA"/>
<path d="M140.824 166.21C141.016 165.029 140.214 163.917 139.034 163.726C137.854 163.534 136.742 164.336 136.55 165.516C136.359 166.696 137.16 167.808 138.34 168C139.521 168.191 140.633 167.39 140.824 166.21Z" fill="#60A5FA"/>
<path d="M151.567 163.204C151.567 164.66 150.398 165.829 148.942 165.829C147.486 165.829 146.317 164.66 146.317 163.204C146.317 161.748 147.486 160.579 148.942 160.579C150.398 160.579 151.567 161.748 151.567 163.204Z" fill="#60A5FA"/>
<rect x="38" y="211" width="101" height="98.7802" rx="24" fill="white"/>
<path d="M119.105 264.743C121.151 247.747 109.158 232.295 92.3175 230.23C75.4771 228.165 60.1668 240.269 58.1209 257.265C56.075 274.261 68.0683 289.713 84.9087 291.778C101.749 293.843 117.059 281.739 119.105 264.743Z" fill="#3B82F6"/>
<path d="M109.373 238.386C107.618 241.209 103.943 242.095 101.145 240.378C98.3478 238.607 97.4702 234.898 99.1706 232.075C100.926 229.252 104.601 228.366 107.398 230.082C110.25 231.853 111.128 235.562 109.373 238.386Z" fill="#3B82F6"/>
<path d="M118.04 252.723C115.078 254.218 111.512 253.055 110.031 250.066C108.55 247.077 109.702 243.479 112.664 241.984C115.626 240.489 119.191 241.652 120.672 244.641C122.153 247.63 121.002 251.229 118.04 252.723Z" fill="#3B82F6"/>
<path d="M117.929 269.552C114.638 269.275 112.225 266.341 112.499 263.02C112.773 259.698 115.68 257.263 118.971 257.539C122.262 257.816 124.676 260.75 124.401 264.072C124.127 267.338 121.22 269.829 117.929 269.552Z" fill="#3B82F6"/>
<path d="M109.154 283.779C106.521 281.786 105.917 278.022 107.892 275.365C109.867 272.707 113.597 272.098 116.229 274.091C118.862 276.084 119.466 279.849 117.491 282.506C115.571 285.163 111.786 285.772 109.154 283.779Z" fill="#3B82F6"/>
<path d="M94.2893 291.252C93.0826 288.152 94.5636 284.665 97.5804 283.391C100.652 282.174 104.108 283.613 105.369 286.713C106.576 289.813 105.15 293.301 102.078 294.574C99.0064 295.847 95.496 294.352 94.2893 291.252Z" fill="#3B82F6"/>
<path d="M77.7236 289.758C78.2721 286.492 81.3438 284.277 84.6348 284.831C87.871 285.385 90.065 288.485 89.5165 291.806C88.968 295.072 85.8964 297.286 82.6053 296.733C79.3143 296.179 77.1203 293.079 77.7236 289.758Z" fill="#3B82F6"/>
<path d="M64.341 279.738C66.5351 277.247 70.2649 276.97 72.788 279.184C75.2563 281.399 75.5306 285.163 73.3366 287.709C71.1425 290.201 67.4127 290.477 64.8895 288.263C62.4212 286.049 62.2018 282.229 64.341 279.738Z" fill="#3B82F6"/>
<path d="M58.1969 264.127C61.3234 263.13 64.6693 264.957 65.6566 268.113C66.6439 271.268 64.8338 274.645 61.7073 275.641C58.5809 276.638 55.235 274.811 54.2477 271.656C53.2603 268.5 55.0704 265.123 58.1969 264.127Z" fill="#3B82F6"/>
<path d="M61.1043 247.575C64.2856 248.405 66.2054 251.672 65.3826 254.938C64.5599 258.148 61.3237 260.086 58.0875 259.256C54.9061 258.425 52.9863 255.159 53.8091 251.893C54.6319 248.682 57.9229 246.745 61.1043 247.575Z" fill="#3B82F6"/>
<path d="M72.1293 235.009C74.433 237.389 74.3233 241.209 71.9647 243.534C69.6061 245.859 65.8214 245.748 63.5177 243.368C61.214 240.987 61.3237 237.168 63.6822 234.843C66.0408 232.573 69.8255 232.628 72.1293 235.009Z" fill="#3B82F6"/>
<path d="M90.998 229.584C91.711 232.85 89.6815 236.06 86.4453 236.78C83.2091 237.5 80.0278 235.452 79.3147 232.185C78.6017 228.919 80.6312 225.709 83.8674 224.989C87.1584 224.269 90.3398 226.318 90.998 229.584Z" fill="#3B82F6"/>
<path d="M98.0138 255.196C99.8713 247.157 94.9196 239.12 86.9539 237.245C78.9882 235.37 71.025 240.368 69.1675 248.407C67.31 256.446 72.2617 264.483 80.2274 266.358C88.193 268.233 96.1563 263.235 98.0138 255.196Z" fill="#60A5FA"/>
<path d="M110.8 269.552C110.8 273.15 107.893 276.084 104.327 276.084C100.762 276.084 97.855 273.15 97.855 269.552C97.855 265.954 100.762 263.02 104.327 263.02C107.893 263.02 110.8 265.954 110.8 269.552Z" fill="#60A5FA"/>
<path d="M76.6815 274.036C76.6815 276.084 75.036 277.745 73.0065 277.745C70.977 277.745 69.3315 276.084 69.3315 274.036C69.3315 271.988 70.977 270.327 73.0065 270.327C75.036 270.327 76.6815 271.988 76.6815 274.036Z" fill="#60A5FA"/>
<path d="M58.3999 455.2H63.0999V410.8L40.6999 375.6L90.3999 348.9V312.7H85.5999V346.1L33.8999 373.9L58.3999 412.2V455.2Z" fill="#93C5FD"/>
<path d="M90.0524 318.588C89.5321 318.7 88.9048 318.7 87.65 318.7C86.3952 318.7 85.7679 318.7 85.2476 318.588C83.3264 318.174 81.8256 316.674 81.412 314.752C81.3 314.232 81.3 313.605 81.3 312.35C81.3 311.095 81.3 310.468 81.412 309.948C81.8256 308.026 83.3264 306.526 85.2476 306.112C85.7679 306 86.3952 306 87.65 306C88.9048 306 89.5321 306 90.0524 306.112C91.9736 306.526 93.4744 308.026 93.888 309.948C94 310.468 94 311.095 94 312.35C94 313.605 94 314.232 93.888 314.752C93.4744 316.674 91.9736 318.174 90.0524 318.588Z" fill="#60A5FA"/>
<path d="M89.7526 353.788C89.2323 353.9 88.605 353.9 87.3502 353.9C86.0954 353.9 85.4681 353.9 84.9478 353.788C83.0266 353.374 81.5258 351.874 81.1122 349.952C81.0002 349.432 81.0002 348.805 81.0002 347.55C81.0002 346.295 81.0002 345.668 81.1122 345.148C81.5258 343.226 83.0266 341.726 84.9478 341.312C85.4681 341.2 86.0954 341.2 87.3502 341.2C88.605 341.2 89.2323 341.2 89.7526 341.312C91.6738 341.726 93.1746 343.226 93.5882 345.148C93.7002 345.668 93.7002 346.295 93.7002 347.55C93.7002 348.805 93.7002 349.432 93.5882 349.952C93.1746 351.874 91.6738 353.374 89.7526 353.788Z" fill="#60A5FA"/>
<path d="M39.6525 380.988C39.1322 381.1 38.5049 381.1 37.2501 381.1C35.9953 381.1 35.368 381.1 34.8477 380.988C32.9265 380.574 31.4257 379.074 31.0121 377.152C30.9001 376.632 30.9001 376.005 30.9001 374.75C30.9001 373.495 30.9001 372.868 31.0121 372.348C31.4257 370.426 32.9265 368.926 34.8477 368.512C35.368 368.4 35.9953 368.4 37.2501 368.4C38.5049 368.4 39.1322 368.4 39.6525 368.512C41.5737 368.926 43.0745 370.426 43.4881 372.348C43.6001 372.868 43.6001 373.495 43.6001 374.75C43.6001 376.005 43.6001 376.632 43.4881 377.152C43.0745 379.074 41.5737 380.574 39.6525 380.988Z" fill="#60A5FA"/>
<path d="M63.1525 417.688C62.6322 417.8 62.0049 417.8 60.7501 417.8C59.4953 417.8 58.868 417.8 58.3477 417.688C56.4265 417.274 54.9257 415.774 54.5121 413.852C54.4001 413.332 54.4001 412.705 54.4001 411.45C54.4001 410.195 54.4001 409.568 54.5121 409.048C54.9257 407.126 56.4265 405.626 58.3477 405.212C58.868 405.1 59.4953 405.1 60.7501 405.1C62.0049 405.1 62.6322 405.1 63.1525 405.212C65.0737 405.626 66.5745 407.126 66.9881 409.048C67.1001 409.568 67.1001 410.195 67.1001 411.45C67.1001 412.705 67.1001 413.332 66.9881 413.852C66.5745 415.774 65.0737 417.274 63.1525 417.688Z" fill="#60A5FA"/>
<path d="M63.1525 461.488C62.6322 461.6 62.0049 461.6 60.7501 461.6C59.4953 461.6 58.868 461.6 58.3477 461.488C56.4265 461.074 54.9257 459.574 54.5121 457.652C54.4001 457.132 54.4001 456.505 54.4001 455.25C54.4001 453.995 54.4001 453.368 54.5121 452.848C54.9257 450.926 56.4265 449.426 58.3477 449.012C58.868 448.9 59.4953 448.9 60.7501 448.9C62.0049 448.9 62.6322 448.9 63.1525 449.012C65.0737 449.426 66.5745 450.926 66.9881 452.848C67.1001 453.368 67.1001 453.995 67.1001 455.25C67.1001 456.505 67.1001 457.132 66.9881 457.652C66.5745 459.574 65.0737 461.074 63.1525 461.488Z" fill="#60A5FA"/>
<rect x="31" y="431" width="64" height="62.5934" rx="16" fill="white"/>
<path fill-rule="evenodd" clip-rule="evenodd" d="M39.2391 455.981C39.9824 453.22 45.3627 455.627 46.6016 453.256C47.8404 450.884 43.0619 447.486 44.7963 445.468C46.6723 443.38 50.3182 448.088 52.4774 446.566C54.6365 445.044 51.9464 439.663 54.3888 438.708C56.9727 437.717 58.0346 443.734 60.6185 443.415C63.2025 443.097 63.2378 437.009 65.8218 437.327C68.5119 437.681 66.7775 443.557 69.1844 444.548C71.5914 445.504 74.3523 440.088 76.4761 441.61C78.6707 443.238 74.5293 447.663 76.1929 449.681C77.8566 451.698 82.7413 448.159 83.9093 450.566C85.1128 453.079 79.4848 455.025 80.0511 457.645C80.6175 460.264 86.4579 459.45 86.4225 462.14C86.3517 464.972 80.5467 464.016 79.8741 466.6C79.2016 469.219 84.6881 471.308 83.4492 473.679C82.1041 476.192 77.4672 472.511 75.6974 474.529C73.9276 476.546 77.7858 481.042 75.6266 482.599C73.3258 484.192 70.9189 478.67 68.4411 479.626C65.9988 480.582 67.3438 486.457 64.7953 486.811C62.0698 487.13 62.4237 481.006 59.8398 480.688C57.2913 480.369 55.8046 486.28 53.3977 485.36C50.8845 484.334 53.9286 479.024 51.8048 477.502C49.7164 475.98 45.752 480.582 44.0884 478.564C42.3186 476.44 47.3803 473.148 46.2122 470.777C45.0441 468.405 39.5577 470.635 38.9559 468.016C38.3896 465.255 44.2654 464.759 44.3362 462.069C44.4424 459.273 38.602 458.6 39.2391 455.981Z" fill="#3B82F6"/>
<path fill-rule="evenodd" clip-rule="evenodd" d="M49.3624 452.654C51.4862 444.513 58.8133 445.716 66.919 447.84C75.0602 449.964 85.3605 460.087 77.8211 466.388C70.2817 472.688 67.4146 479.378 59.2734 477.29C51.1676 475.166 47.2386 460.795 49.3624 452.654Z" fill="#60A5FA"/>
<path fill-rule="evenodd" clip-rule="evenodd" d="M53.8224 454.742C55.3445 448.902 60.6186 449.751 66.459 451.273C72.2994 452.795 79.7326 460.052 74.2816 464.618C68.8659 469.149 66.8129 473.962 60.9371 472.44C55.0967 470.883 52.3004 460.583 53.8224 454.742Z" fill="#93C5FD"/>
<path fill-rule="evenodd" clip-rule="evenodd" d="M59.3087 457.149C60.0875 454.141 63.1669 452.335 66.1402 453.114C69.1489 453.893 70.9541 456.972 70.1754 459.946C69.3967 462.954 66.3172 464.76 63.3439 463.981C60.3352 463.202 58.53 460.123 59.3087 457.149Z" fill="#3B82F6"/>
<path fill-rule="evenodd" clip-rule="evenodd" d="M56.4065 464.866C56.4065 463.804 57.2914 462.99 58.3533 462.99C59.4152 462.99 60.2293 463.875 60.2293 464.937C60.2293 465.998 59.3444 466.813 58.2825 466.813C57.2206 466.777 56.4065 465.892 56.4065 464.866Z" fill="#3B82F6"/>
<path fill-rule="evenodd" clip-rule="evenodd" d="M61.9985 469.396C61.9985 468.866 62.4233 468.441 62.9542 468.476C63.4852 468.476 63.9099 468.901 63.8745 469.432C63.8745 469.963 63.4498 470.388 62.9188 470.352C62.4233 470.352 61.9985 469.927 61.9985 469.396Z" fill="#3B82F6"/>
</g>
<defs>
<clipPath id="clip0_112_1808">
<path d="M0 0H375V443.2C375 470.083 375 483.524 369.768 493.792C365.166 502.823 357.823 510.166 348.792 514.768C338.524 520 325.083 520 298.2 520H76.8C49.9175 520 36.4762 520 26.2085 514.768C17.1767 510.166 9.83361 502.823 5.23169 493.792C0 483.524 0 470.083 0 443.2V0Z" fill="white"/>
</clipPath>
</defs>
</svg>
