<svg width="99" height="340" viewBox="0 0 99 340" fill="none" xmlns="http://www.w3.org/2000/svg">
<mask id="mask0_45_1496" style="mask-type:alpha" maskUnits="userSpaceOnUse" x="0" y="0" width="99" height="340">
<path fill-rule="evenodd" clip-rule="evenodd" d="M84.219 339.884C91.3676 339.884 97.3992 334.539 98.8513 327.567V159.658C97.5109 141.299 91.3676 130.144 74.9482 116.2C67.2412 109.228 64.8956 96.7943 64.8956 86.6849V34.0465H65.5658C67.0178 34.0465 68.3582 32.7683 68.3582 31.1415V5.46138C68.2465 2.44019 65.9008 0 62.9967 0H35.8545C32.9504 0 30.6048 2.44019 30.6048 5.46138V31.1415C30.6048 32.6521 31.8335 34.0465 33.3972 34.0465H34.0674V86.8011C34.0674 96.9105 31.7218 109.344 24.0147 116.316C7.48365 130.144 1.34036 141.299 0 159.658V327.683C1.45205 334.655 7.48366 340 14.6322 340H84.219V339.884Z" fill="#AF52DE"/>
</mask>
<g mask="url(#mask0_45_1496)">
<path d="M0 0H99V314.4C99 323.361 99 327.841 97.2561 331.264C95.7221 334.274 93.2744 336.722 90.2638 338.256C86.8413 340 82.3608 340 73.4 340H22.4C14.5593 340 10.6389 340 7.64413 338.474C5.00986 337.132 2.86814 334.99 1.52591 332.356C0 329.361 0 325.441 0 317.6V0Z" fill="#AA8BFA"/>
<ellipse cx="26.1665" cy="221.576" rx="7.75304" ry="8.02086" fill="#C4B5FD"/>
<ellipse cx="55.2404" cy="250.652" rx="11.6296" ry="12.0313" fill="#DDD6FE"/>
<ellipse cx="45.5491" cy="294.766" rx="7.75304" ry="8.02086" fill="#C4B5FD"/>
<ellipse cx="80.4378" cy="213.555" rx="3.87652" ry="4.01043" fill="#DDD6FE"/>
<ellipse cx="26.1665" cy="272.709" rx="7.75304" ry="8.02086" fill="#C4B5FD"/>
<ellipse cx="84.3143" cy="308.803" rx="1.93826" ry="2.00521" fill="#C4B5FD"/>
<ellipse cx="56.2096" cy="223.581" rx="1.93826" ry="2.00521" fill="#C4B5FD"/>
<ellipse cx="82.3761" cy="244.636" rx="1.93826" ry="2.00521" fill="#C4B5FD"/>
<ellipse cx="19.3826" cy="309.806" rx="2.90739" ry="3.00782" fill="#C4B5FD"/>
<ellipse cx="15.5061" cy="241.628" rx="1.93826" ry="2.00521" fill="#C4B5FD"/>
<ellipse cx="71.7156" cy="281.733" rx="3.87652" ry="4.01043" fill="#C4B5FD"/>
<ellipse cx="66.87" cy="323.842" rx="3.87652" ry="4.01043" fill="#C4B5FD"/>
</g>
</svg>
