<svg width="343" height="234" viewBox="0 0 343 234" fill="none" xmlns="http://www.w3.org/2000/svg">
<path fill-rule="evenodd" clip-rule="evenodd" d="M176.977 102.582C179.514 93.1955 197.876 101.379 202.104 93.3159C206.333 85.2529 190.024 73.6998 195.943 66.8403C202.346 59.74 214.789 75.7457 222.158 70.5709C229.527 65.3961 220.346 47.1039 228.682 43.8546C237.621 40.4849 241.245 60.9434 250.064 59.8603C258.883 58.7772 259.004 37.9577 267.823 39.0408C277.004 40.2443 271.084 60.2213 279.299 63.591C287.514 66.8403 296.937 48.4276 304.185 53.6024C311.675 59.1382 297.541 74.1812 303.218 81.0408C308.896 87.9004 325.567 75.866 329.554 84.0494C333.661 92.5938 314.453 99.2127 316.386 108.118C318.319 117.024 338.252 114.256 338.131 123.402C337.89 133.029 318.078 129.78 315.782 138.565C313.487 147.471 332.212 154.571 327.984 162.634C323.393 171.058 307.567 158.663 301.527 165.522C295.487 172.382 308.655 187.665 301.286 192.961C293.433 198.376 285.218 179.602 276.762 182.852C268.427 186.101 273.017 206.078 264.319 207.282C255.017 208.365 256.225 187.545 247.406 186.462C238.708 185.379 233.635 205.476 225.42 202.347C216.843 198.857 227.232 180.806 219.984 175.631C212.856 170.456 199.326 186.101 193.648 179.241C187.729 172.021 204.883 160.829 200.896 152.766C196.91 144.703 178.185 152.284 176.131 143.379C174.198 133.992 194.252 132.307 194.494 123.161C194.735 113.654 174.802 111.367 176.977 102.582Z" fill="#BEF264"/>
<path fill-rule="evenodd" clip-rule="evenodd" d="M211.527 91.1497C218.776 63.4707 243.782 67.5624 271.447 74.783C299.232 82.0036 334.386 116.422 308.655 137.843C282.923 159.264 273.138 182.009 245.353 174.909C217.688 167.688 204.279 118.829 211.527 91.1497Z" fill="#A3E635"/>
<path fill-rule="evenodd" clip-rule="evenodd" d="M226.749 98.25C231.943 78.3933 249.943 81.2815 269.876 86.4563C289.809 91.6311 315.178 116.302 296.574 131.826C278.091 147.23 271.084 163.597 251.031 158.422C231.098 153.247 221.554 118.107 226.749 98.25Z" fill="#84CC16"/>
<path fill-rule="evenodd" clip-rule="evenodd" d="M269.755 136.399C270.48 133.511 273.38 131.826 276.279 132.548C279.178 133.27 280.87 136.158 280.145 139.047C279.42 141.935 276.521 143.62 273.621 142.898C270.722 142.055 269.031 139.167 269.755 136.399Z" fill="#65A30D"/>
<path fill-rule="evenodd" clip-rule="evenodd" d="M245.473 106.433C248.131 96.2041 258.641 90.0666 268.789 92.7142C279.057 95.3617 285.218 105.832 282.561 115.941C279.903 126.17 269.393 132.307 259.245 129.66C248.977 127.012 242.816 116.663 245.473 106.433Z" fill="#65A30D"/>
<path fill-rule="evenodd" clip-rule="evenodd" d="M235.568 132.668C235.568 129.058 238.588 126.29 242.212 126.29C245.836 126.29 248.614 129.299 248.614 132.909C248.614 136.519 245.594 139.287 241.97 139.287C238.346 139.167 235.568 136.158 235.568 132.668Z" fill="#65A30D"/>
<path fill-rule="evenodd" clip-rule="evenodd" d="M254.655 148.072C254.655 146.267 256.104 144.823 257.917 144.943C259.729 144.943 261.178 146.387 261.057 148.193C261.057 149.998 259.608 151.442 257.796 151.322C256.104 151.322 254.655 149.877 254.655 148.072Z" fill="#65A30D"/>
<path fill-rule="evenodd" clip-rule="evenodd" d="M199.809 139.889C199.809 137.843 201.5 136.279 203.554 136.279C205.608 136.279 207.178 137.963 207.178 140.009C207.178 142.055 205.487 143.62 203.433 143.62C201.38 143.62 199.688 141.935 199.809 139.889Z" fill="#A3E635"/>
<path fill-rule="evenodd" clip-rule="evenodd" d="M197.876 116.903C197.876 115.82 198.722 115.098 199.809 115.098C200.896 115.098 201.621 115.941 201.621 117.024C201.621 118.107 200.776 118.829 199.688 118.829C198.722 118.829 197.876 117.986 197.876 116.903Z" fill="#A3E635"/>
<path fill-rule="evenodd" clip-rule="evenodd" d="M56.126 130.508C57.826 133.008 57.226 136.408 54.826 138.108C52.326 139.808 48.9259 139.208 47.2259 136.808C47.2259 136.808 40.7259 127.808 41.7259 118.408C42.2259 113.808 38.926 110.508 38.926 110.508C36.826 108.408 36.726 104.908 38.926 102.808C41.026 100.708 44.526 100.608 46.626 102.808C46.626 102.808 53.726 109.908 52.626 119.708C52.026 124.808 56.126 130.508 56.126 130.508Z" fill="#FACC15"/>
<path fill-rule="evenodd" clip-rule="evenodd" d="M83.926 118.308C82.426 118.508 81.126 117.408 80.926 115.908C80.726 114.408 81.826 113.108 83.326 112.908C84.826 112.708 86.126 113.808 86.326 115.308C86.526 116.808 85.426 118.108 83.926 118.308Z" fill="#CA8A04"/>
<path fill-rule="evenodd" clip-rule="evenodd" d="M28.926 163.808C28.026 142.708 44.426 124.908 65.526 124.008C86.626 123.108 104.426 139.508 105.326 160.608C106.226 181.708 89.826 199.508 68.726 200.408C47.626 201.308 29.826 184.908 28.926 163.808Z" fill="#FACC15"/>
<path fill-rule="evenodd" clip-rule="evenodd" d="M41.426 163.308C40.826 149.108 51.926 137.208 66.026 136.608C80.226 136.008 92.226 147.008 92.726 161.208C93.326 175.408 82.326 187.308 68.126 187.908C54.026 188.508 42.026 177.508 41.426 163.308Z" fill="#FDE047"/>
<path fill-rule="evenodd" clip-rule="evenodd" d="M102.326 180.508C99.526 181.008 96.826 179.208 96.226 176.408C95.726 173.608 97.526 170.908 100.326 170.308C100.326 170.308 110.626 168.108 118.326 172.708C122.126 174.908 126.226 173.308 126.226 173.308C128.926 172.308 131.826 173.608 132.926 176.308C133.926 179.008 132.626 181.908 129.926 183.008C129.926 183.008 121.126 186.408 113.026 181.608C108.826 179.208 102.326 180.508 102.326 180.508Z" fill="#FACC15"/>
<path fill-rule="evenodd" clip-rule="evenodd" d="M92.726 140.608C91.826 143.308 88.926 144.808 86.226 144.008C83.526 143.108 82.026 140.208 82.826 137.508C82.826 137.508 85.826 127.408 93.526 122.908C97.326 120.708 97.826 116.308 97.826 116.308C98.226 113.508 100.826 111.508 103.626 111.908C106.426 112.308 108.426 114.908 108.026 117.708C108.026 117.708 106.826 127.108 98.726 131.908C94.626 134.108 92.726 140.508 92.726 140.608Z" fill="#FACC15"/>
<path fill-rule="evenodd" clip-rule="evenodd" d="M89.226 155.008C87.326 157.108 84.026 157.308 81.926 155.408C79.826 153.508 79.626 150.208 81.526 148.108C81.526 148.108 88.426 140.208 97.326 139.208C101.626 138.708 104.026 135.008 104.026 135.008C105.526 132.608 108.726 131.808 111.126 133.308C113.526 134.808 114.326 138.008 112.826 140.408C112.826 140.408 107.826 148.408 98.526 149.508C93.626 150.008 89.226 155.008 89.226 155.008Z" fill="#FDE047"/>
<path fill-rule="evenodd" clip-rule="evenodd" d="M49.126 140.508C52.426 141.308 54.426 144.608 53.726 147.908C52.926 151.208 49.626 153.208 46.326 152.508C46.326 152.508 34.126 149.808 28.026 141.208C25.026 137.008 19.826 136.708 19.826 136.708C16.426 136.508 13.826 133.608 14.026 130.208C14.226 126.808 17.126 124.208 20.526 124.408C20.526 124.408 31.726 125.008 38.126 134.108C41.326 138.808 49.126 140.508 49.126 140.508Z" fill="#FDE047"/>
<path fill-rule="evenodd" clip-rule="evenodd" d="M59.826 220.108C59.226 222.908 61.0259 225.608 63.7259 226.308C66.5259 226.908 69.2259 225.108 69.9259 222.408C69.9259 222.408 72.3259 212.108 68.0259 204.408C65.9259 200.608 67.6259 196.508 67.6259 196.508C68.726 193.908 67.426 190.808 64.826 189.808C62.226 188.708 59.1259 190.008 58.1259 192.608C58.1259 192.608 54.5259 201.308 59.0259 209.508C61.3259 213.508 59.826 220.108 59.826 220.108Z" fill="#FACC15"/>
<path fill-rule="evenodd" clip-rule="evenodd" d="M93.826 204.908C94.526 207.708 97.326 209.308 100.126 208.608C102.926 207.908 104.526 205.108 103.826 202.308C103.826 202.308 101.326 192.108 93.926 187.108C90.326 184.708 89.926 180.308 89.926 180.208C89.726 177.408 87.226 175.208 84.426 175.408C81.626 175.608 79.426 178.108 79.626 180.908C79.626 180.908 80.326 190.308 88.126 195.608C92.226 198.408 93.826 204.908 93.826 204.908Z" fill="#FDE047"/>
<path fill-rule="evenodd" clip-rule="evenodd" d="M39.326 161.108C41.626 159.808 44.426 160.708 45.726 163.008C47.026 165.308 46.126 168.108 43.826 169.408C43.826 169.408 35.526 174.208 27.626 172.408C23.726 171.508 20.626 174.108 20.626 174.108C18.626 175.708 15.626 175.408 14.026 173.408C12.426 171.408 12.726 168.408 14.726 166.808C14.726 166.808 21.426 161.408 29.726 163.208C34.026 164.108 39.326 161.108 39.326 161.108Z" fill="#FDE047"/>
<path fill-rule="evenodd" clip-rule="evenodd" d="M50.626 170.008C50.426 164.608 55.226 160.008 61.526 159.708C67.726 159.408 72.926 163.608 73.226 169.108C73.426 174.508 68.626 179.108 62.326 179.408C56.126 179.608 50.926 175.408 50.626 170.008Z" fill="#FACC15"/>
<path fill-rule="evenodd" clip-rule="evenodd" d="M74.626 163.508C74.526 160.908 76.826 158.708 79.826 158.608C82.826 158.508 85.326 160.508 85.426 163.108C85.526 165.708 83.226 167.908 80.226 168.008C77.226 168.108 74.726 166.108 74.626 163.508Z" fill="#FACC15"/>
<path fill-rule="evenodd" clip-rule="evenodd" d="M72.026 138.208C71.926 136.208 73.526 134.508 75.526 134.408C77.526 134.308 79.226 135.908 79.326 137.908C79.426 139.908 77.826 141.608 75.826 141.708C73.826 141.708 72.126 140.208 72.026 138.208Z" fill="#A16207"/>
<path fill-rule="evenodd" clip-rule="evenodd" d="M57.526 145.908C57.526 144.908 58.226 144.108 59.226 144.008C60.226 144.008 61.026 144.708 61.126 145.708C61.126 146.708 60.426 147.508 59.426 147.608C58.426 147.708 57.626 146.908 57.526 145.908Z" fill="#A16207"/>
<path fill-rule="evenodd" clip-rule="evenodd" d="M96.826 166.008C96.726 164.008 98.326 162.308 100.326 162.208C102.326 162.108 104.026 163.708 104.126 165.708C104.226 167.708 102.626 169.408 100.626 169.508C98.626 169.608 96.926 168.008 96.826 166.008Z" fill="#A16207"/>
<path fill-rule="evenodd" clip-rule="evenodd" d="M58.326 131.908C58.326 130.908 59.026 130.108 60.026 130.008C61.026 130.008 61.826 130.708 61.926 131.708C61.926 132.708 61.226 133.508 60.226 133.608C59.226 133.708 58.426 132.908 58.326 131.908Z" fill="#A16207"/>
<path fill-rule="evenodd" clip-rule="evenodd" d="M49.726 178.308C49.626 175.808 51.526 173.808 54.026 173.708C56.526 173.608 58.526 175.508 58.626 178.008C58.726 180.508 56.826 182.508 54.326 182.608C51.926 182.608 49.826 180.708 49.726 178.308Z" fill="#A16207"/>
<path fill-rule="evenodd" clip-rule="evenodd" d="M46.326 183.708C48.826 183.208 51.326 184.808 51.926 187.308C52.426 189.808 50.826 192.308 48.326 192.908C48.326 192.908 38.926 195.008 31.926 191.008C28.426 189.008 24.726 190.508 24.726 190.508C22.326 191.508 19.526 190.308 18.626 187.908C17.626 185.508 18.826 182.708 21.226 181.808C21.226 181.808 29.226 178.608 36.626 182.808C40.426 185.008 46.326 183.708 46.326 183.708Z" fill="#FACC15"/>
<path fill-rule="evenodd" clip-rule="evenodd" d="M58.126 123.808C57.526 126.608 59.226 129.408 62.026 130.008C64.826 130.608 67.626 128.908 68.226 126.108C68.226 126.108 70.726 115.908 66.426 108.108C64.326 104.308 66.026 100.208 66.026 100.208C67.126 97.6078 65.926 94.5078 63.326 93.4078C60.726 92.3078 57.626 93.5078 56.526 96.1078C56.526 96.1078 52.826 104.808 57.326 113.008C59.726 117.308 58.126 123.808 58.126 123.808Z" fill="#FACC15"/>
<path fill-rule="evenodd" clip-rule="evenodd" d="M124.451 37.8398C138.479 49.5993 153.33 71.3645 142.835 89.5414C140.458 93.6596 136.992 97.0236 132.082 97.7232C126.158 98.5313 120.8 95.0594 116.485 91.4317C112.026 87.7215 107.95 83.3487 103.758 79.2874C100.497 76.1421 96.732 72.7694 92.8288 70.5159C88.2592 67.8776 81.6242 66.5084 76.4384 65.5971C70.5244 64.5179 64.4941 63.7502 58.6763 62.2847C53.1987 60.8894 46.9604 58.6131 44.5278 53.0431C42.6574 48.8076 43.749 44.3886 45.99 40.5071C55.2546 24.4603 79.2034 22.0037 95.8434 24.7314C96.5239 24.8718 97.2318 24.9649 97.8647 25.0779C99.0151 25.174 101.377 25.1495 102.04 24.3325C103.931 21.8268 106.475 19.5088 109.317 17.9939C112.868 16.1309 117.335 15.4283 120.474 18.5659C121.52 19.6118 122.205 20.9539 122.488 22.4426C122.737 23.6596 122.599 24.7788 122.318 25.8156C122.508 25.9255 122.671 26.0828 122.861 26.1927C124.581 27.5012 125.523 29.4968 125.696 31.6161C125.835 33.4637 125.328 35.0013 124.589 36.7206C124.48 36.91 124.336 37.2688 124.22 37.5803C124.336 37.7101 124.403 37.8124 124.451 37.8398Z" fill="#FDA4B0"/>
<path fill-rule="evenodd" clip-rule="evenodd" d="M120.294 19.9768C121.223 18.3674 123.246 17.8313 124.844 18.6909C126.463 19.6253 127.01 21.6453 126.156 23.2349C126.156 23.2349 122.957 29.2144 117.486 31.105C114.802 32.0168 113.884 34.7057 113.884 34.7057C113.268 36.4327 111.394 37.3703 109.659 36.7474C107.925 36.1245 106.975 34.2511 107.592 32.5241C107.592 32.5241 109.598 26.7401 115.294 24.7899C118.23 23.7713 120.294 19.9768 120.294 19.9768Z" fill="#FB7185"/>
<path fill-rule="evenodd" clip-rule="evenodd" d="M120.343 42.5369C134.072 53.9345 145.464 72.5668 137.429 86.4834C127.782 103.193 112.767 74.8956 95.9647 65.1945C79.162 55.4935 41.7895 60.4244 51.464 43.6676C58.4603 31.5497 78.156 28.2154 94.9185 30.9506C95.6739 31.0712 96.3544 31.2117 97.1099 31.3323C99.8734 31.6024 104.626 31.5059 107.131 28.1557C110.674 23.4481 116.009 21.3529 116.42 23.6096C116.83 25.8664 111.562 28.5051 114.098 30.1586C116.607 31.8595 119.45 29.9034 119.616 32.1448C119.679 34.4535 115.226 37.8786 120.343 42.5369Z" fill="#FB7185"/>
<path fill-rule="evenodd" clip-rule="evenodd" d="M116.282 24.2874C115.672 26.3335 111.752 28.615 114.003 30.1036C115.424 31.0502 116.888 30.8226 117.991 30.8912C117.814 30.9783 117.664 31.018 117.487 31.105C114.802 32.0167 113.884 34.7057 113.884 34.7057C113.268 36.4326 111.394 37.3703 109.659 36.7474C107.925 36.1245 106.975 34.251 107.592 32.5241C107.592 32.5241 109.598 26.74 115.294 24.7899C115.621 24.6631 115.975 24.489 116.282 24.2874Z" fill="#FDA4B0"/>
<path fill-rule="evenodd" clip-rule="evenodd" d="M108.526 41.8991C120.521 48.8245 133.647 65.5541 126.732 77.53C119.845 89.4586 109.11 69.249 97.1148 62.3237C85.1197 55.3983 58.4046 58.9086 65.3189 46.9327C72.2332 34.9568 96.531 34.9737 108.526 41.8991Z" fill="#F43F5E"/>
<path fill-rule="evenodd" clip-rule="evenodd" d="M118.023 58.4274C121.486 59.3541 124.31 63.698 124.376 68.0909C124.394 72.4563 121.651 75.2278 118.188 74.3011C114.725 73.3745 111.901 69.0306 111.835 64.6377C111.817 60.2723 114.587 57.4535 118.023 58.4274Z" fill="#E11D3A"/>
<path fill-rule="evenodd" clip-rule="evenodd" d="M99.0834 48.2501C99.6705 47.453 101.114 47.1506 102.271 47.5659C103.427 47.9811 103.861 48.9889 103.274 49.7859C102.687 50.583 101.243 50.8854 100.086 50.4702C98.9775 50.0824 98.4689 49.0945 99.0834 48.2501Z" fill="#E11D3A"/>
<path fill-rule="evenodd" clip-rule="evenodd" d="M168.408 199.65C167.77 196.539 172.03 193.076 177.93 191.969C183.847 190.831 189.13 192.432 189.769 195.544C190.407 198.655 186.147 202.118 180.247 203.225C174.38 204.351 169.047 202.762 168.408 199.65Z" fill="#48524B"/>
<path fill-rule="evenodd" clip-rule="evenodd" d="M136.806 207.816C136.696 208.003 136.432 208.016 136.292 207.891C136.121 207.748 136.087 207.517 136.229 207.349C136.229 207.349 139.663 203.189 146.386 203.072C148.702 203.05 150.824 203.502 152.751 203.923C156.297 204.71 159.294 205.341 161.742 202.493C165.858 197.683 170.798 198.998 170.817 198.967C171.012 198.998 171.146 199.203 171.099 199.428C171.07 199.621 170.865 199.753 170.638 199.703C170.638 199.703 166.133 198.519 162.319 202.96C159.587 206.146 156.395 205.483 152.591 204.628C150.678 204.257 148.637 203.811 146.403 203.839C140.044 203.918 136.838 207.834 136.806 207.816Z" fill="#48524B"/>
<path fill-rule="evenodd" clip-rule="evenodd" d="M157.713 213.878C157.524 213.766 157.471 213.566 157.581 213.379C157.692 213.191 157.892 213.141 158.082 213.253C158.082 213.253 162.182 215.63 164.013 212.165C164.631 210.972 165.024 209.437 165.368 207.914C166.171 204.601 166.913 201.462 170.263 201.712C174.48 202.012 175.137 200.463 175.137 200.463C175.216 200.257 175.466 200.195 175.625 200.288C175.833 200.369 175.899 200.618 175.807 200.774C175.807 200.774 174.924 202.778 170.185 202.424C167.489 202.222 166.78 205.086 166.08 208.082C165.718 209.636 165.337 211.221 164.632 212.488C162.497 216.615 157.713 213.878 157.713 213.878Z" fill="#48524B"/>
<path fill-rule="evenodd" clip-rule="evenodd" d="M171.346 195.828C171.501 195.709 171.746 195.728 171.868 195.883C171.989 196.039 171.973 196.283 171.818 196.401C171.8 196.433 165.539 201.913 160.378 193.525C155.71 185.89 147.674 192.428 147.642 192.409C147.487 192.528 147.242 192.51 147.121 192.354C146.999 192.198 147.015 191.955 147.17 191.836C147.189 191.805 155.915 184.748 161.044 193.118C165.711 200.753 171.346 195.828 171.346 195.828Z" fill="#48524B"/>
<path fill-rule="evenodd" clip-rule="evenodd" d="M186.599 29.4391C189.277 32.4006 186.876 38.8702 181.196 43.8363C175.516 48.848 168.773 50.4881 166.095 47.5267C163.416 44.5653 165.818 38.0956 171.498 33.1295C177.132 28.1634 183.92 26.4777 186.599 29.4391Z" fill="#48524B"/>
<path fill-rule="evenodd" clip-rule="evenodd" d="M215.6 0.417023C215.6 0.143659 215.878 -0.0385834 216.108 0.00697731C216.386 0.052538 216.57 0.280341 216.524 0.553705C216.524 0.553705 215.462 7.25112 208.258 11.6705C205.764 13.174 203.178 14.0397 200.823 14.8142C196.482 16.2266 192.834 17.4567 192.002 22.1039C190.617 29.9403 184.429 31.6716 184.429 31.7172C184.198 31.8083 183.921 31.6716 183.828 31.3983C183.736 31.1705 183.875 30.8971 184.152 30.806C184.152 30.806 189.786 29.2114 191.079 21.9672C192.002 16.7733 195.881 15.452 200.546 13.9485C202.855 13.1284 205.348 12.3084 207.75 10.8504C214.584 6.70439 215.554 0.417023 215.6 0.417023Z" fill="#48524B"/>
<path fill-rule="evenodd" clip-rule="evenodd" d="M189.093 7.20557C189.37 7.20557 189.555 7.38781 189.555 7.66117C189.555 7.93454 189.37 8.11678 189.093 8.11678C189.093 8.11678 183.135 8.16234 183.366 13.0829C183.459 14.7686 184.013 16.6822 184.613 18.5502C185.86 22.6506 187.061 26.5233 183.274 28.3913C178.517 30.7604 178.795 32.8562 178.795 32.8562C178.841 33.1296 178.61 33.3574 178.379 33.3574C178.102 33.4029 177.871 33.1751 177.871 32.9473C177.871 32.9473 177.548 30.2137 182.905 27.5712C185.952 26.0677 184.89 22.5139 183.736 18.8235C183.135 16.91 182.535 14.9509 182.489 13.1285C182.166 7.29669 189.093 7.20557 189.093 7.20557Z" fill="#48524B"/>
<path fill-rule="evenodd" clip-rule="evenodd" d="M185.86 35.4531C185.768 35.6809 185.49 35.8176 185.26 35.7265C185.029 35.6353 184.89 35.362 184.982 35.1342C184.982 35.0886 188.261 25.1564 199.206 30.9426C209.135 36.2276 213.66 24.0174 213.707 24.0174C213.799 23.7896 214.076 23.6529 214.307 23.744C214.538 23.8351 214.676 24.1085 214.584 24.3363C214.584 24.3818 209.643 37.5944 198.744 31.8082C188.815 26.5232 185.86 35.4531 185.86 35.4531Z" fill="#48524B"/>
</svg>
