<svg width="375" height="520" viewBox="0 0 375 520" fill="none" xmlns="http://www.w3.org/2000/svg">
<g clip-path="url(#clip0_112_1550)">
<path d="M0 0H375V443.2C375 470.083 375 483.524 369.768 493.792C365.166 502.823 357.823 510.166 348.792 514.768C338.524 520 325.083 520 298.2 520H76.8C49.9175 520 36.4762 520 26.2085 514.768C17.1767 510.166 9.83361 502.823 5.23169 493.792C0 483.524 0 470.083 0 443.2V0Z" fill="#365314"/>
<path fill-rule="evenodd" clip-rule="evenodd" d="M412.44 370.828C412.44 370.828 583.142 574.379 468.972 567.574C354.768 560.678 489.494 688.688 412.603 683.218C335.746 677.838 -14.5034 518.435 7.14504 435.171C28.822 351.844 199.76 448.987 175.63 359.59C151.529 270.131 228.346 174.475 412.44 370.828Z" fill="#3E6212"/>
<path fill-rule="evenodd" clip-rule="evenodd" d="M92.7593 -12.5325C92.7593 -12.5325 243.6 206.143 130.573 188.651C17.5209 171.065 139.635 311.157 63.5972 298.493C-12.4156 285.923 -346.155 94.3455 -316.786 13.4806C-287.383 -67.4435 -126.318 45.3168 -141.949 -45.9503C-157.547 -137.277 -72.0901 -225.299 92.7593 -12.5325Z" fill="#3E6212"/>
<path fill-rule="evenodd" clip-rule="evenodd" d="M296.684 142H77.5263C61.8421 142 49 154.737 49 170.526V605.474C49 621.263 61.7368 634 77.5263 634H296.684C312.474 634 325.211 621.263 325.211 605.474V170.526C325.211 154.737 312.368 142 296.684 142Z" fill="#84CC16"/>
<path fill-rule="evenodd" clip-rule="evenodd" d="M293.842 152.316H80.3685C68.4737 152.316 58.8948 161.895 58.8948 173.79V602.105C58.8948 614 68.4737 623.579 80.3685 623.579H293.842C305.737 623.579 315.316 614 315.316 602.105V173.79C315.316 162 305.632 152.316 293.842 152.316Z" fill="#3E6212"/>
<path fill-rule="evenodd" clip-rule="evenodd" d="M214.158 171.158H160.158C157.737 171.158 155.737 169.158 155.737 166.737C155.737 164.316 157.737 162.316 160.158 162.316H214.158C216.579 162.316 218.579 164.316 218.579 166.737C218.579 169.158 216.579 171.158 214.158 171.158Z" fill="#3E6212"/>
<path fill-rule="evenodd" clip-rule="evenodd" d="M287.421 185.158C286.368 186.211 286.368 187.895 287.421 188.842L291.316 192.316C292.368 193.369 294.053 193.369 295 192.316C296.053 191.263 296.053 189.579 295 188.632L291.105 185.158C290.158 184.105 288.474 184.105 287.421 185.158Z" fill="#BEF264"/>
<path fill-rule="evenodd" clip-rule="evenodd" d="M285.632 170.316C281.842 166.527 275.526 166.527 271.737 170.316C267.947 174.105 267.947 180.421 271.737 184.211C275.526 188 281.842 188 285.632 184.211C289.421 180.421 289.421 174.211 285.632 170.316ZM282.579 181.263C280.474 183.369 276.895 183.369 274.79 181.263C272.684 179.158 272.684 175.579 274.79 173.474C276.895 171.369 280.474 171.369 282.579 173.474C284.684 175.579 284.684 179.053 282.579 181.263Z" fill="#BEF264"/>
<path fill-rule="evenodd" clip-rule="evenodd" d="M262.904 444.132H111.307C96.7607 444.132 84.8838 432.255 84.8838 417.709V284.128C84.8838 269.582 96.7607 257.705 111.307 257.705H262.904C277.449 257.705 289.326 269.582 289.326 284.128V417.709C289.326 432.255 277.449 444.132 262.904 444.132Z" fill="#365314"/>
<path fill-rule="evenodd" clip-rule="evenodd" d="M269.576 429.053H104.634C90.0883 429.053 78.2114 417.176 78.2114 402.63V239.423C78.2114 224.877 90.0883 213 104.634 213H269.576C284.122 213 295.999 224.877 295.999 239.423V402.63C296.132 417.309 284.255 429.053 269.576 429.053Z" fill="#4D7C0F"/>
<path fill-rule="evenodd" clip-rule="evenodd" d="M235.147 391.154H273.046C276.382 391.154 279.184 393.956 279.184 397.292C279.184 400.628 276.382 403.431 273.046 403.431H235.147C231.81 403.431 229.008 400.628 229.008 397.292C229.008 393.956 231.81 391.154 235.147 391.154Z" fill="#65A30D"/>
<path fill-rule="evenodd" clip-rule="evenodd" d="M212.727 391.154C215.93 391.154 218.465 393.689 218.465 396.892V397.826C218.465 401.029 215.93 403.564 212.727 403.564C209.524 403.564 206.989 401.029 206.989 397.826V396.892C206.989 393.689 209.524 391.154 212.727 391.154Z" fill="#65A30D"/>
<path fill-rule="evenodd" clip-rule="evenodd" d="M253.562 368.734H273.046C276.382 368.734 279.184 371.537 279.184 374.873C279.184 378.209 276.382 381.011 273.046 381.011H253.562C250.226 381.011 247.424 378.209 247.424 374.873C247.424 371.403 250.226 368.734 253.562 368.734Z" fill="#65A30D"/>
<path fill-rule="evenodd" clip-rule="evenodd" d="M101.965 392.354H163.084C166.821 392.354 169.89 395.424 169.89 399.16C169.89 402.897 166.821 405.966 163.084 405.966H101.965C98.2286 405.966 95.1593 402.897 95.1593 399.16C95.0259 395.424 98.0952 392.354 101.965 392.354Z" fill="#65A30D"/>
<path fill-rule="evenodd" clip-rule="evenodd" d="M101.965 369.535H125.586C129.322 369.535 132.391 372.604 132.391 376.341C132.391 380.077 129.322 383.146 125.586 383.146H101.965C98.2286 383.146 95.1593 380.077 95.1593 376.341C95.0259 372.604 98.0952 369.535 101.965 369.535Z" fill="#65A30D"/>
<path fill-rule="evenodd" clip-rule="evenodd" d="M254.719 240.351C257.415 237.69 261.877 237.69 264.573 240.351L265.967 241.727L267.455 240.351C270.151 237.69 274.613 237.69 277.309 240.351C280.005 243.011 280.005 247.414 277.309 250.075L266.06 261.175L254.812 250.075C252.023 247.323 252.023 243.011 254.719 240.351Z" fill="#A3E635"/>
<g clip-path="url(#clip1_112_1550)">
<rect x="95.6931" y="238.355" width="114.098" height="114.098" rx="20.2841" fill="#84CC16"/>
<path d="M146.072 301.449H133.883C128.231 301.449 123.688 296.906 123.688 291.255V260.338H146.072V301.449Z" fill="#313A34"/>
<path d="M159.923 252.138H123.688L120.474 260.227C120.474 266.433 125.461 271.419 131.666 271.419H159.923V290.811C159.923 296.684 164.688 301.338 170.451 301.338C176.324 301.338 180.978 296.574 180.978 290.811V267.541C180.978 259.008 174.107 252.138 165.575 252.138H159.923Z" fill="#48524B"/>
<path d="M134.991 287.598C134.991 291.698 131.666 295.133 127.456 295.133C123.355 295.133 119.92 291.809 119.92 287.598C119.92 283.387 123.245 280.063 127.456 280.063C131.666 280.063 134.991 283.498 134.991 287.598Z" fill="#FDA4B0"/>
<path d="M220.427 437.97H93.5466V380.237C93.5466 350.983 116.596 326.715 145.85 326.715L167.569 327.269C196.824 327.269 220.427 350.983 220.427 380.126V437.97Z" fill="white"/>
<path d="M116.374 372.369H112.163V337.685C112.163 329.042 119.144 322.061 127.788 322.061H135.766V326.271H127.788C121.471 326.271 116.374 331.369 116.374 337.685V372.369Z" fill="#48524B"/>
<path d="M174.218 321.063H131.777V435.865H174.218V321.063Z" fill="#A3E635"/>
<path d="M138.425 354.085L153.607 339.68L131.777 328.82L131.888 351.315C131.888 354.75 135.988 356.412 138.425 354.085Z" fill="#84CC16"/>
<path d="M193.5 372.369H189.289V337.685C189.289 331.369 184.191 326.271 177.875 326.271H169.896V322.061H177.875C186.518 322.061 193.5 329.042 193.5 337.685V372.369Z" fill="#48524B"/>
<path d="M167.57 353.975L152.388 337.796L174.218 325.607L174.108 350.872C174.218 354.64 170.118 356.523 167.57 353.975Z" fill="#84CC16"/>
<path d="M163.137 339.68H142.969C136.875 339.68 131.888 334.693 131.888 328.598V291.033H174.329V328.598C174.218 334.693 169.232 339.68 163.137 339.68Z" fill="#FDA4B0"/>
<path d="M131.223 310.647C131.223 310.647 141.528 334.472 174.329 321.839V295.133L131.223 310.647Z" fill="#FB7185"/>
<path d="M150.615 321.064C137.65 321.064 127.012 310.426 127.012 297.46V266.765C127.012 263.552 129.671 260.892 132.885 260.892H168.345C171.559 260.892 174.218 263.552 174.218 266.765V297.35C174.218 310.426 163.58 321.064 150.615 321.064Z" fill="#FDA4B0"/>
<path d="M162.694 271.198H127.455L125.682 258.343H156.931L172.999 260.892C172.999 266.543 168.345 271.198 162.694 271.198Z" fill="#48524B"/>
<path d="M185.964 287.598C185.964 291.698 182.64 295.133 178.429 295.133C174.329 295.133 170.894 291.809 170.894 287.598C170.894 283.387 174.218 280.063 178.429 280.063C182.64 280.063 185.964 283.498 185.964 287.598Z" fill="#FDA4B0"/>
<path d="M163.137 285.16C165.353 285.16 167.237 286.711 167.791 288.706C167.902 288.262 168.013 287.819 168.013 287.376C168.013 284.716 165.796 282.5 163.137 282.5C160.477 282.5 158.261 284.716 158.261 287.376C158.261 287.819 158.372 288.262 158.483 288.706C159.037 286.6 160.92 285.16 163.137 285.16Z" fill="#48524B"/>
<path d="M136.099 285.16C138.315 285.16 140.199 286.711 140.753 288.706C140.864 288.262 140.974 287.819 140.974 287.376C140.974 284.716 138.758 282.5 136.099 282.5C133.439 282.5 131.223 284.716 131.223 287.376C131.223 287.819 131.334 288.262 131.445 288.706C131.999 286.6 133.882 285.16 136.099 285.16Z" fill="#48524B"/>
<path d="M138.315 278.843L128.896 278.622L136.874 273.635C138.979 272.306 141.861 272.97 142.415 274.854C142.969 276.849 140.863 278.954 138.315 278.843Z" fill="#48524B"/>
<path d="M159.813 278.843L169.232 278.622L161.253 273.635C159.148 272.306 156.267 272.97 155.713 274.854C155.158 276.849 157.264 278.954 159.813 278.843Z" fill="#48524B"/>
<path d="M148.399 312.53C146.183 312.53 143.967 312.309 141.972 311.755C141.086 311.533 140.532 310.536 140.864 309.649C141.086 308.874 141.972 308.43 142.748 308.652C144.41 309.095 146.405 309.317 148.399 309.317C150.948 309.317 153.386 308.984 155.38 308.209C156.156 307.987 157.043 308.32 157.375 308.984C157.818 309.871 157.375 310.868 156.489 311.201C154.162 312.087 151.28 312.53 148.399 312.53Z" fill="#48524B"/>
<path d="M123.466 289.925H127.677C128.342 289.925 128.896 289.371 128.896 288.706C128.896 288.041 128.342 287.487 127.677 287.487H123.466C122.801 287.487 122.247 288.041 122.247 288.706C122.358 289.481 122.801 289.925 123.466 289.925Z" fill="#313A34"/>
<path d="M180.978 287.931C180.978 289.814 179.426 291.255 177.653 291.255C175.77 291.255 174.329 289.704 174.329 287.931C174.329 286.047 175.88 284.606 177.653 284.606C179.426 284.495 180.978 286.047 180.978 287.931Z" fill="#FDA4B0"/>
<path d="M170.229 289.925H174.44C175.105 289.925 175.659 289.371 175.659 288.706C175.659 288.041 175.105 287.487 174.44 287.487H170.229C169.564 287.487 169.01 288.041 169.01 288.706C169.01 289.481 169.564 289.925 170.229 289.925Z" fill="#313A34"/>
<path d="M158.705 289.925H141.307C140.642 289.925 140.088 289.371 140.088 288.706C140.088 288.041 140.642 287.487 141.307 287.487H158.705C159.369 287.487 159.923 288.041 159.923 288.706C159.923 289.481 159.369 289.925 158.705 289.925Z" fill="#313A34"/>
<path d="M140.088 292.363H128.009C126.679 292.363 125.682 291.255 125.682 290.036C125.682 288.706 126.79 287.709 128.009 287.709H140.088C141.418 287.709 142.415 288.817 142.415 290.036C142.526 291.255 141.418 292.363 140.088 292.363Z" fill="white"/>
<path d="M170.007 292.363H157.929C156.599 292.363 155.602 291.255 155.602 290.036C155.602 288.706 156.71 287.709 157.929 287.709H170.007C171.337 287.709 172.334 288.817 172.334 290.036C172.334 291.255 171.226 292.363 170.007 292.363Z" fill="white"/>
<path d="M124.353 243.827C124.131 242.497 122.247 242.165 121.804 243.494C118.591 251.141 114.601 264.549 123.688 269.535C131.556 273.857 135.656 252.249 135.656 252.249C135.656 252.249 125.904 253.578 124.353 243.827Z" fill="#48524B"/>
<path d="M118.258 259.008C118.258 259.008 116.041 271.198 126.79 271.198C137.539 271.198 163.58 271.198 163.58 271.198C163.58 271.198 172.002 271.53 172.777 262.998C172.777 262.998 171.559 268.871 160.477 268.427C152.277 268.206 137.207 268.317 129.782 268.317C124.131 268.427 118.368 264.66 118.258 259.23C118.258 256.349 118.258 259.119 118.258 259.008Z" fill="#313A34"/>
<path d="M128.896 257.568C128.896 257.568 130.225 268.316 147.623 268.206C157.928 268.206 144.077 270.311 144.077 270.311C144.077 270.311 131.666 273.746 128.896 257.568Z" fill="#313A34"/>
<path d="M172.777 259.451C172.002 259.119 171.559 258.232 171.891 257.346L174.994 249.811C175.326 249.035 176.213 248.592 177.099 248.924C177.875 249.257 178.318 250.143 177.986 251.03L174.883 258.565C174.55 259.451 173.553 259.784 172.777 259.451Z" fill="#48524B"/>
<path d="M172.778 261.446C172.224 260.781 172.224 259.784 172.889 259.23L178.872 253.8C179.537 253.246 180.535 253.246 181.089 253.911C181.643 254.576 181.643 255.573 180.978 256.127L174.994 261.557C174.329 262.111 173.332 262.111 172.778 261.446Z" fill="#48524B"/>
<path d="M152.499 344.334C152.499 344.334 148.842 387.108 153.385 435.533C153.385 435.533 156.82 403.397 152.499 344.334Z" fill="#84CC16"/>
</g>
<path fill-rule="evenodd" clip-rule="evenodd" d="M93.5263 193.895H82.1579C78.6842 193.895 75.9474 191.158 75.9474 187.684V175.79C75.9474 172.316 78.6842 169.579 82.1579 169.579H93.6316C97.1053 169.579 99.8421 172.316 99.8421 175.79V187.684C99.7369 191.158 97 193.895 93.5263 193.895Z" fill="#BEF264"/>
<path fill-rule="evenodd" clip-rule="evenodd" d="M83.6315 183.052C82.3683 183.052 81.3157 184.105 81.3157 185.368V185.684C81.3157 186.947 82.3683 188 83.6315 188C84.8946 188 85.9473 186.947 85.9473 185.684V185.368C85.9473 184.105 84.8946 183.052 83.6315 183.052Z" fill="#3E6212"/>
<path fill-rule="evenodd" clip-rule="evenodd" d="M91.842 175.474H83.842C82.4736 175.474 81.3157 176.632 81.3157 178C81.3157 179.368 82.4736 180.526 83.842 180.526H91.842C93.2104 180.526 94.3683 179.368 94.3683 178C94.3683 176.526 93.2104 175.474 91.842 175.474Z" fill="#3E6212"/>
<rect x="78" y="457" width="218" height="62" rx="16" fill="#84CC16"/>
<path d="M147.424 498.667C146.646 498.667 146.047 498.455 145.628 498.032C145.209 497.608 145 497.003 145 496.216V479.784C145 478.997 145.209 478.392 145.628 477.968C146.047 477.545 146.646 477.333 147.424 477.333H154.665C156.161 477.333 157.438 477.555 158.495 477.999C159.553 478.442 160.351 479.078 160.889 479.905C161.448 480.732 161.727 481.721 161.727 482.871C161.727 484.142 161.368 485.221 160.65 486.109C159.932 486.996 158.944 487.591 157.688 487.894V487.41C159.144 487.672 160.271 488.257 161.069 489.165C161.887 490.053 162.296 491.213 162.296 492.645C162.296 494.541 161.647 496.024 160.351 497.094C159.054 498.143 157.269 498.667 154.994 498.667H147.424ZM149.429 495.187H154.366C155.563 495.187 156.441 494.955 156.999 494.491C157.558 494.007 157.837 493.301 157.837 492.373C157.837 491.445 157.558 490.749 156.999 490.285C156.441 489.821 155.563 489.589 154.366 489.589H149.429V495.187ZM149.429 486.109H153.857C155.014 486.109 155.872 485.887 156.431 485.443C156.989 484.999 157.269 484.333 157.269 483.446C157.269 482.578 156.989 481.923 156.431 481.479C155.872 481.035 155.014 480.813 153.857 480.813H149.429V486.109Z" fill="white"/>
<path d="M174.993 499C172.918 499 171.093 498.546 169.517 497.638C167.961 496.71 166.744 495.419 165.866 493.765C165.008 492.111 164.579 490.184 164.579 487.985C164.579 486.31 164.819 484.807 165.297 483.476C165.796 482.124 166.504 480.974 167.422 480.026C168.34 479.058 169.437 478.311 170.714 477.787C172.01 477.262 173.437 477 174.993 477C177.107 477 178.943 477.454 180.499 478.362C182.055 479.27 183.262 480.551 184.119 482.205C184.997 483.839 185.436 485.756 185.436 487.955C185.436 489.629 185.187 491.142 184.688 492.494C184.189 493.845 183.481 495.006 182.563 495.974C181.646 496.942 180.548 497.689 179.272 498.213C177.995 498.738 176.569 499 174.993 499ZM174.993 495.006C176.17 495.006 177.167 494.733 177.985 494.188C178.823 493.624 179.461 492.817 179.9 491.768C180.359 490.698 180.588 489.437 180.588 487.985C180.588 485.766 180.1 484.051 179.122 482.84C178.145 481.61 176.768 480.994 174.993 480.994C173.836 480.994 172.838 481.267 172 481.812C171.162 482.356 170.524 483.153 170.085 484.202C169.646 485.251 169.427 486.512 169.427 487.985C169.427 490.184 169.916 491.909 170.893 493.16C171.871 494.39 173.237 495.006 174.993 495.006Z" fill="white"/>
<path d="M198.21 499C196.136 499 194.31 498.546 192.734 497.638C191.178 496.71 189.961 495.419 189.084 493.765C188.226 492.111 187.797 490.184 187.797 487.985C187.797 486.31 188.036 484.807 188.515 483.476C189.014 482.124 189.722 480.974 190.64 480.026C191.557 479.058 192.654 478.311 193.931 477.787C195.228 477.262 196.654 477 198.21 477C200.325 477 202.16 477.454 203.716 478.362C205.272 479.27 206.479 480.551 207.337 482.205C208.215 483.839 208.654 485.756 208.654 487.955C208.654 489.629 208.404 491.142 207.905 492.494C207.407 493.845 206.699 495.006 205.781 495.974C204.863 496.942 203.766 497.689 202.489 498.213C201.213 498.738 199.786 499 198.21 499ZM198.21 495.006C199.387 495.006 200.385 494.733 201.203 494.188C202.04 493.624 202.679 492.817 203.118 491.768C203.576 490.698 203.806 489.437 203.806 487.985C203.806 485.766 203.317 484.051 202.34 482.84C201.362 481.61 199.986 480.994 198.21 480.994C197.053 480.994 196.056 481.267 195.218 481.812C194.38 482.356 193.742 483.153 193.303 484.202C192.864 485.251 192.644 486.512 192.644 487.985C192.644 490.184 193.133 491.909 194.111 493.16C195.088 494.39 196.455 495.006 198.21 495.006Z" fill="white"/>
<path d="M213.977 498.939C213.219 498.939 212.64 498.728 212.241 498.304C211.842 497.88 211.643 497.285 211.643 496.519V479.451C211.643 478.685 211.842 478.099 212.241 477.696C212.64 477.272 213.219 477.061 213.977 477.061C214.715 477.061 215.284 477.272 215.682 477.696C216.081 478.099 216.281 478.685 216.281 479.451V486.623H216.341L224.3 478.21C224.64 477.847 224.989 477.575 225.348 477.393C225.727 477.192 226.156 477.091 226.634 477.091C227.333 477.091 227.831 477.272 228.131 477.635C228.45 477.999 228.589 478.422 228.55 478.906C228.51 479.391 228.29 479.845 227.891 480.268L219.902 488.53L219.932 486.502L228.31 495.55C228.769 496.055 228.998 496.569 228.998 497.094C229.018 497.618 228.849 498.062 228.49 498.425C228.151 498.768 227.642 498.939 226.964 498.939C226.385 498.939 225.916 498.818 225.557 498.576C225.218 498.334 224.839 497.981 224.42 497.517L216.341 488.923H216.281V496.519C216.281 497.285 216.081 497.88 215.682 498.304C215.303 498.728 214.735 498.939 213.977 498.939Z" fill="white"/>
</g>
<defs>
<clipPath id="clip0_112_1550">
<path d="M0 0H375V443.2C375 470.083 375 483.524 369.768 493.792C365.166 502.823 357.823 510.166 348.792 514.768C338.524 520 325.083 520 298.2 520H76.8C49.9175 520 36.4762 520 26.2085 514.768C17.1767 510.166 9.83361 502.823 5.23169 493.792C0 483.524 0 470.083 0 443.2V0Z" fill="white"/>
</clipPath>
<clipPath id="clip1_112_1550">
<rect x="95.6931" y="238.355" width="114.098" height="114.098" rx="20.2841" fill="white"/>
</clipPath>
</defs>
</svg>
