<svg width="343" height="232" viewBox="0 0 343 232" fill="none" xmlns="http://www.w3.org/2000/svg">
<path d="M207.162 63.1324H111.276L56.1058 18H151.992L207.162 63.1324Z" fill="#647067"/>
<path d="M207.162 75.0261H111.276L56.1058 29.9229H151.992L207.162 75.0261Z" fill="#313A34"/>
<path d="M207.162 86.9489H111.276L56.1058 41.8165H151.992L207.162 86.9489Z" fill="#48524B"/>
<path d="M135.909 86.9489H111.276L56.1058 41.8165H152.021C170.518 56.9673 159.815 86.9489 135.909 86.9489Z" fill="#313A34"/>
<path d="M207.162 63.1324V75.0261L151.992 29.9229V18L207.162 63.1324Z" fill="#647067"/>
<path d="M207.162 75.0261V86.949L151.992 41.8166V29.9229L207.162 75.0261Z" fill="#48524B"/>
<path d="M56.1058 18V18.5234V29.9229H70.6473H151.992V18H56.1058Z" fill="#849087"/>
<path d="M56.1058 29.9229V30.4172V41.8166H70.6473H151.992V29.9229H56.1058Z" fill="#313A34"/>
<path d="M161.241 204.898C160.804 204.898 160.339 204.869 159.874 204.782C155.598 204.026 152.748 199.983 153.504 195.709L169.267 105.444C170.024 101.169 174.066 98.3193 178.341 99.0754C182.616 99.8315 185.467 103.874 184.71 108.148L168.947 198.413C168.279 202.223 164.963 204.898 161.241 204.898Z" fill="#647067"/>
<path d="M177.003 114.633C176.567 114.633 176.102 114.604 175.636 114.517C171.361 113.761 168.511 109.719 169.267 105.444L173.455 81.4529C174.211 77.1781 178.254 74.3282 182.529 75.0843C186.804 75.8404 189.654 79.8825 188.898 84.1573L184.71 108.148C184.041 111.958 180.726 114.633 177.003 114.633Z" fill="#48524B"/>
<path d="M80.0997 204.898C79.6634 204.898 79.1981 204.869 78.7328 204.782C74.4576 204.026 71.6075 199.983 72.3636 195.709L88.1265 105.444C88.8827 101.169 92.9252 98.3193 97.2004 99.0754C101.476 99.8315 104.326 103.874 103.57 108.148L87.8066 198.413C87.1377 202.223 83.8223 204.898 80.0997 204.898Z" fill="#647067"/>
<path d="M95.8619 114.633C95.4256 114.633 94.9603 114.604 94.495 114.517C90.2198 113.761 87.3697 109.719 88.1258 105.444L96.3272 58.4793C97.0833 54.2046 101.126 51.3547 105.401 52.1108C109.676 52.8669 112.526 56.909 111.77 61.1838L103.569 108.148C102.9 111.958 99.5845 114.633 95.8619 114.633Z" fill="#313A34"/>
<path d="M144.43 214H74.4858C65.8191 214 58.8102 206.992 58.8102 198.326C58.8102 189.66 65.8191 182.652 74.4858 182.652H144.43C153.097 182.652 160.106 189.66 160.106 198.326C160.106 206.963 153.097 214 144.43 214Z" fill="#48524B"/>
<path d="M166.62 214H74.4858C65.8191 214 58.8102 206.992 58.8102 198.326C58.8102 189.66 65.8191 182.652 74.4858 182.652H166.62C175.287 182.652 182.296 189.66 182.296 198.326C182.296 206.992 175.287 214 166.62 214Z" fill="#313A34"/>
<path d="M294.818 214H164.527C155.86 214 148.851 206.992 148.851 198.326C148.851 189.66 155.86 182.652 164.527 182.652H294.818C303.484 182.652 310.493 189.66 310.493 198.326C310.493 206.992 303.484 214 294.818 214Z" fill="#48524B"/>
<path d="M210.507 56.415H180.58C178.835 56.415 177.439 55.0191 177.439 53.2743C177.439 51.5295 178.835 50.1337 180.58 50.1337H210.507C212.252 50.1337 213.647 51.5295 213.647 53.2743C213.647 55.0191 212.222 56.415 210.507 56.415Z" fill="#48524B"/>
<path d="M81.3788 56.415H51.4526C49.7076 56.415 48.3116 55.0191 48.3116 53.2743C48.3116 51.5295 49.7076 50.1337 51.4526 50.1337H81.3788C83.1238 50.1337 84.5198 51.5295 84.5198 53.2743C84.5198 55.0191 83.0947 56.415 81.3788 56.415Z" fill="#313A34"/>
<path d="M294.818 206.149H171.187C166.853 206.149 163.363 202.63 163.363 198.326C163.363 194.022 166.882 190.503 171.187 190.503H294.818C299.151 190.503 302.641 194.022 302.641 198.326C302.641 202.63 299.151 206.149 294.818 206.149Z" fill="#647067"/>
<path d="M187.706 62.26C187.008 62.26 186.31 62.0274 185.728 61.5621L169.209 48.0398C167.872 46.9348 167.668 44.9573 168.773 43.6196C169.878 42.2819 171.856 42.0784 173.194 43.1834L189.713 56.7057C191.051 57.8107 191.254 59.7882 190.149 61.1259C189.538 61.882 188.637 62.26 187.706 62.26Z" fill="#FACC15"/>
<path d="M113.341 33.0344H86.5849C84.8399 33.0344 83.444 31.6385 83.444 29.8937C83.444 28.1489 84.8399 26.7531 86.5849 26.7531H113.341C115.086 26.7531 116.482 28.1489 116.482 29.8937C116.482 31.6385 115.086 33.0344 113.341 33.0344Z" fill="#FACC15"/>
<path d="M293.102 202.542C295.431 202.542 297.319 200.655 297.319 198.326C297.319 195.997 295.431 194.109 293.102 194.109C290.773 194.109 288.885 195.997 288.885 198.326C288.885 200.655 290.773 202.542 293.102 202.542Z" fill="#FACC15"/>
<path d="M174.066 202.542C176.395 202.542 178.283 200.655 178.283 198.326C178.283 195.997 176.395 194.109 174.066 194.109C171.737 194.109 169.849 195.997 169.849 198.326C169.849 200.655 171.737 202.542 174.066 202.542Z" fill="#FACC15"/>
<path d="M39.7946 154C25.398 154 13.693 142.376 13.693 128.009C13.693 113.674 25.3667 102.019 39.7946 102.019C54.1911 102.019 65.8962 113.643 65.8962 128.009C65.8962 142.345 54.2224 154 39.7946 154Z" fill="#313A34"/>
<path d="M40.0453 119.097H32.3462C24.7724 119.097 18.3878 113.674 17.1986 106.226L14.5696 89.8963C14.3192 88.3692 15.3833 86.9045 16.9169 86.6552C18.4504 86.4371 19.9214 87.4655 20.1718 89.0237L22.8007 105.353C23.5518 110.059 27.5578 113.456 32.3462 113.456H40.0453C44.8337 113.456 48.8397 110.028 49.5908 105.353C49.8412 103.826 51.2808 102.767 52.8457 103.016C54.3792 103.265 55.4433 104.699 55.1929 106.257C54.0037 113.705 47.6504 119.097 40.0453 119.097Z" fill="#313A34"/>
<path d="M31.9704 149.886C44.1043 149.886 53.9408 140.092 53.9408 128.009C53.9408 115.927 44.1043 106.132 31.9704 106.132C19.8365 106.132 10 115.927 10 128.009C10 140.092 19.8365 149.886 31.9704 149.886Z" fill="#48524B"/>
<path d="M42.9556 128.009C42.9556 134.055 38.7619 139.104 33.1284 140.444C32.1582 140.693 31.1254 140.818 30.0926 140.818C22.9882 140.818 17.2296 135.084 17.2296 128.009C17.2296 120.935 23.0195 115.201 30.1239 115.201C31.1567 115.201 32.1895 115.326 33.1597 115.575C38.7932 116.915 42.9556 121.964 42.9556 128.009Z" fill="#647067"/>
<path d="M33.1599 140.444C38.5873 140.444 42.9871 134.877 42.9871 128.009C42.9871 121.142 38.5873 115.575 33.1599 115.575C27.7324 115.575 23.3326 121.142 23.3326 128.009C23.3326 134.877 27.7324 140.444 33.1599 140.444Z" fill="#313A34"/>
<path d="M52.407 108.626C52.2506 108.626 52.0941 108.626 51.9689 108.594C50.4353 108.345 49.3712 106.912 49.6216 105.353L51.9689 90.7065C52.2193 89.1795 53.6589 88.12 55.2238 88.3693C56.7573 88.6186 57.8214 90.0521 57.571 91.6103L55.2238 106.257C55.0047 107.628 53.7841 108.626 52.407 108.626Z" fill="#313A34"/>
<path d="M55.036 93.6982C54.8169 93.6982 54.5978 93.667 54.3475 93.6359C52.0315 93.2619 50.4354 91.0805 50.8109 88.7744C51.03 87.4343 50.6544 86.0943 49.7781 85.0659C48.9018 84.0375 47.6499 83.4454 46.2729 83.4454H26.1177C24.7406 83.4454 23.4888 84.0063 22.6124 85.0659C21.7361 86.0943 21.3606 87.4343 21.5797 88.7744C21.9552 91.0805 20.3591 93.2619 18.0431 93.6359C15.7271 94.0098 13.5364 92.4205 13.1608 90.1144C12.5662 86.3436 13.6303 82.4793 16.134 79.5811C18.6377 76.6828 22.2682 75 26.1177 75H46.2729C50.1224 75 53.7528 76.6828 56.2566 79.5811C58.7603 82.5104 59.8244 86.3436 59.2298 90.1144C58.8855 92.2024 57.1016 93.6982 55.036 93.6982Z" fill="#48524B"/>
<path d="M265.341 149.846C265.341 153.356 263.491 156.221 261.185 156.221C258.85 156.221 257 153.384 257 149.846C257 146.335 258.85 143.47 261.156 143.47C263.462 143.47 265.341 146.335 265.341 149.846Z" fill="#313A34"/>
<path d="M269.697 163.972C274.744 163.972 278.835 157.71 278.835 149.986C278.835 142.262 274.744 136 269.697 136C264.65 136 260.559 142.262 260.559 149.986C260.559 157.71 264.65 163.972 269.697 163.972Z" fill="#48524B"/>
<path d="M277.867 136H268.729V164H277.867V136Z" fill="#48524B"/>
<path d="M277.867 163.972C282.914 163.972 287.006 157.71 287.006 149.986C287.006 142.262 282.914 136 277.867 136C272.82 136 268.729 142.262 268.729 149.986C268.729 157.71 272.82 163.972 277.867 163.972Z" fill="#313A34"/>
<path d="M304.4 154.255H282.679C280.287 154.255 278.351 152.345 278.351 149.986C278.351 147.627 280.287 145.745 282.65 145.745H304.371C306.763 145.745 308.67 147.655 308.67 149.986C308.67 152.317 306.763 154.255 304.4 154.255Z" fill="#48524B"/>
<path d="M322.876 154.255H304.4C302.009 154.255 300.101 152.345 300.101 150.014C300.101 147.683 302.037 145.773 304.4 145.773H322.876C325.267 145.773 327.175 147.683 327.175 150.014C327.175 152.345 325.239 154.255 322.876 154.255Z" fill="#313A34"/>
<path d="M317.04 163.972C322.087 163.972 326.178 157.71 326.178 149.986C326.178 142.262 322.087 136 317.04 136C311.993 136 307.902 142.262 307.902 149.986C307.902 157.71 311.993 163.972 317.04 163.972Z" fill="#48524B"/>
<path d="M325.21 136H316.072V164H325.21V136Z" fill="#48524B"/>
<path d="M325.239 163.972C330.286 163.972 334.377 157.71 334.377 149.986C334.377 142.262 330.286 136 325.239 136C320.192 136 316.101 142.262 316.101 149.986C316.101 157.71 320.192 163.972 325.239 163.972Z" fill="#313A34"/>
<path d="M331.844 156.221C334.139 156.221 336 153.366 336 149.846C336 146.325 334.139 143.47 331.844 143.47C329.548 143.47 327.687 146.325 327.687 149.846C327.687 153.366 329.548 156.221 331.844 156.221Z" fill="#48524B"/>
<g clip-path="url(#clip0_45_1206)">
<path d="M275.541 41.8976L271.85 72.0799C271.351 76.0435 267.926 79 263.835 79H251.398C247.307 79 243.882 76.011 243.416 72.0799L239.725 41.8976H275.541Z" fill="#48524B"/>
<path d="M275.541 41.8976H239.725C239.725 37.9014 241.388 34.2951 244.048 31.6635C246.476 29.2918 249.702 27.7648 253.326 27.4724C253.726 27.44 254.125 27.4075 254.524 27.4075H260.743C268.923 27.4075 275.541 33.9053 275.541 41.8976Z" fill="#48524B"/>
<path d="M257.749 36.4719C255.688 36.4719 253.991 34.815 253.991 32.8007V23.6713C253.991 21.6569 255.688 20 257.749 20C259.811 20 261.507 21.6569 261.507 23.6713V32.8007C261.507 34.815 259.845 36.4719 257.749 36.4719Z" fill="#48524B"/>
<path d="M249.336 28.6421C249.336 26.6278 251.032 24.9708 253.094 24.9708H262.439C264.5 24.9708 266.196 26.6278 266.196 28.6421C266.196 30.6564 264.5 32.3133 262.439 32.3133H253.094C250.998 32.3133 249.336 30.6889 249.336 28.6421Z" fill="#48524B"/>
<path d="M266.961 41.8976L263.27 72.0799C262.771 76.0435 259.346 79 255.255 79H251.398C247.307 79 243.882 76.011 243.416 72.0799L239.725 41.8976H266.961Z" fill="#313A34"/>
<path d="M266.961 41.8975H239.725C239.725 37.9014 241.388 34.2951 244.048 31.6635C246.476 29.2918 249.702 27.7648 253.326 27.4724C260.942 28.0572 266.961 34.2951 266.961 41.8975Z" fill="#313A34"/>
<path d="M253.991 36.4719C251.93 36.4719 250.234 34.815 250.234 32.8007V23.6713C250.234 21.6569 251.896 20 253.991 20C256.053 20 257.749 21.6569 257.749 23.6713V32.8007C257.749 34.815 256.053 36.4719 253.991 36.4719Z" fill="#313A34"/>
<path d="M245.544 28.6421C245.544 26.6278 247.24 24.9708 249.302 24.9708H258.647C260.709 24.9708 262.405 26.6278 262.405 28.6421C262.405 30.6564 260.709 32.3133 258.647 32.3133H249.336C247.24 32.3133 245.544 30.6889 245.544 28.6421Z" fill="#313A34"/>
<path d="M279 41.8976C279 42.9047 278.568 43.8144 277.903 44.4967C277.237 45.1465 276.273 45.5688 275.242 45.5688H239.758C237.696 45.5688 236 43.9119 236 41.8976C236 39.8508 237.696 38.2263 239.758 38.2263H275.242C277.337 38.2263 279 39.8508 279 41.8976Z" fill="#48524B"/>
<path d="M270.819 41.8976C270.819 42.9047 270.387 43.8144 269.722 44.4967C269.056 45.1465 268.092 45.5688 267.061 45.5688H239.758C237.696 45.5688 236 43.9119 236 41.8976C236 39.8508 237.696 38.2263 239.758 38.2263H267.061C269.156 38.2263 270.819 39.8508 270.819 41.8976Z" fill="#48524B"/>
</g>
<defs>
<clipPath id="clip0_45_1206">
<rect width="43" height="59" fill="white" transform="translate(236 20)"/>
</clipPath>
</defs>
</svg>
