<svg width="375" height="520" viewBox="0 0 375 520" fill="none" xmlns="http://www.w3.org/2000/svg">
<g clip-path="url(#clip0_112_2118)">
<path d="M0 0H375V443.2C375 470.083 375 483.524 369.768 493.792C365.166 502.823 357.823 510.166 348.792 514.768C338.524 520 325.083 520 298.2 520H76.8C49.9175 520 36.4762 520 26.2085 514.768C17.1767 510.166 9.83361 502.823 5.23169 493.792C0 483.524 0 470.083 0 443.2V0Z" fill="#313A34"/>
<path opacity="0.64" fill-rule="evenodd" clip-rule="evenodd" d="M311.161 141.548C319.69 141.548 326.513 148.516 326.513 156.906V175.392C326.513 183.924 319.548 190.749 311.161 190.749H237.243C228.714 190.749 221.891 183.781 221.891 175.392V156.906C221.891 148.374 228.857 141.548 237.243 141.548H311.161ZM137.61 329.251C146.139 329.251 152.962 336.219 152.962 344.608V363.094C152.962 371.626 145.996 378.452 137.61 378.452H63.6921C55.1631 378.452 48.34 371.484 48.34 363.094V344.608C48.34 336.076 55.3053 329.251 63.6921 329.251H137.61ZM-195.73 329.251C-187.201 329.251 -180.378 336.219 -180.378 344.608V363.094C-180.378 371.626 -187.343 378.452 -195.73 378.452H-269.648C-278.177 378.452 -285 371.484 -285 363.094V344.608C-285 336.076 -278.035 329.251 -269.648 329.251H-195.73ZM-84.996 329.251C-76.4671 329.251 -69.6439 336.219 -69.6439 344.608V363.094C-69.6439 371.626 -76.6092 378.452 -84.996 378.452H-158.914C-167.443 378.452 -174.266 371.484 -174.266 363.094V344.608C-174.266 336.076 -167.3 329.251 -158.914 329.251H-84.996ZM25.8804 329.251C34.4093 329.251 41.2325 336.219 41.2325 344.608V363.094C41.2325 371.626 34.2672 378.452 25.8804 378.452H-48.0372C-56.5662 378.452 -63.3894 371.484 -63.3894 363.094V344.608C-63.3894 336.076 -56.424 329.251 -48.0372 329.251H25.8804ZM-140.292 271.803C-131.763 271.803 -124.94 278.77 -124.94 287.16V305.646C-124.94 314.178 -131.905 321.003 -140.292 321.003H-214.21C-222.739 321.003 -229.562 314.036 -229.562 305.646V287.16C-229.562 278.628 -222.596 271.803 -214.21 271.803H-140.292ZM-29.5578 271.803C-21.0289 271.803 -14.2057 278.77 -14.2057 287.16V305.646C-14.2057 314.178 -21.171 321.003 -29.5578 321.003H-103.475C-112.004 321.003 -118.828 314.036 -118.828 305.646V287.16C-118.828 278.628 -111.862 271.803 -103.475 271.803H-29.5578ZM81.1764 271.803C89.7054 271.803 96.5285 278.77 96.5285 287.16V305.646C96.5285 314.178 89.5632 321.003 81.1764 321.003H7.25882C-1.27014 321.003 -8.09329 314.036 -8.09329 305.646V287.16C-8.09329 278.628 -1.12799 271.803 7.25882 271.803H81.1764ZM137.61 215.35C146.139 215.35 152.962 222.317 152.962 230.707V249.193C152.962 257.725 145.996 264.55 137.61 264.55H63.6921C55.1631 264.55 48.34 257.583 48.34 249.193V230.707C48.34 222.175 55.3053 215.35 63.6921 215.35H137.61ZM-195.73 215.35C-187.201 215.35 -180.378 222.317 -180.378 230.707V249.193C-180.378 257.725 -187.343 264.55 -195.73 264.55H-269.648C-278.177 264.55 -285 257.583 -285 249.193V230.707C-285 222.175 -278.035 215.35 -269.648 215.35H-195.73ZM-84.996 215.35C-76.4671 215.35 -69.6439 222.317 -69.6439 230.707V249.193C-69.6439 257.725 -76.6092 264.55 -84.996 264.55H-158.914C-167.443 264.55 -174.266 257.583 -174.266 249.193V230.707C-174.266 222.175 -167.3 215.35 -158.914 215.35H-84.996ZM25.8804 215.35C34.4093 215.35 41.2325 222.317 41.2325 230.707V249.193C41.2325 257.725 34.2672 264.55 25.8804 264.55H-48.0372C-56.5662 264.55 -63.3894 257.583 -63.3894 249.193V230.707C-63.3894 222.175 -56.424 215.35 -48.0372 215.35H25.8804ZM-29.5578 157.901C-21.0289 157.901 -14.2057 164.869 -14.2057 173.259V191.745C-14.2057 200.277 -21.171 207.102 -29.5578 207.102H-103.475C-112.004 207.102 -118.828 200.134 -118.828 191.745V173.259C-118.828 164.727 -111.862 157.901 -103.475 157.901H-29.5578ZM81.1764 157.901C89.7054 157.901 96.5285 164.869 96.5285 173.259V191.745C96.5285 200.277 89.5632 207.102 81.1764 207.102H7.25882C-1.27014 207.102 -8.09329 200.134 -8.09329 191.745V173.259C-8.09329 164.727 -1.12799 157.901 7.25882 157.901H81.1764ZM137.61 101.448C146.139 101.448 152.962 108.416 152.962 116.806V135.292C152.962 143.824 145.996 150.649 137.61 150.649H63.6921C55.1631 150.649 48.34 143.681 48.34 135.292V116.806C48.34 108.274 55.3053 101.448 63.6921 101.448H137.61ZM25.8804 101.448C34.4093 101.448 41.2325 108.416 41.2325 116.806V135.292C41.2325 143.824 34.2672 150.649 25.8804 150.649H-48.0372C-56.5662 150.649 -63.3894 143.681 -63.3894 135.292V116.806C-63.3894 108.274 -56.424 101.448 -48.0372 101.448H25.8804ZM81.1764 44C89.7054 44 96.5285 50.9677 96.5285 59.3575V77.8433C96.5285 86.3752 89.5632 93.2008 81.1764 93.2008H7.25882C-1.27014 93.2008 -8.09329 86.233 -8.09329 77.8433V59.3575C-8.09329 50.8255 -1.12799 44 7.25882 44H81.1764ZM366.599 426.799C375.128 426.799 381.951 433.767 381.951 442.157V460.643C381.951 469.174 374.986 476 366.599 476H292.681C284.153 476 277.329 469.032 277.329 460.643V442.157C277.329 433.625 284.295 426.799 292.681 426.799H366.599ZM477.475 426.799C486.004 426.799 492.828 433.767 492.828 442.157V460.643C492.828 469.174 485.862 476 477.475 476H403.558C395.029 476 388.206 469.032 388.206 460.643V442.157C388.206 433.625 395.171 426.799 403.558 426.799H477.475ZM588.21 426.799C596.739 426.799 603.562 433.767 603.562 442.157V460.643C603.562 469.174 596.596 476 588.21 476H514.292C505.763 476 498.94 469.032 498.94 460.643V442.157C498.94 433.625 505.905 426.799 514.292 426.799H588.21ZM311.161 369.351C319.69 369.351 326.513 376.319 326.513 384.708V403.194C326.513 411.726 319.548 418.552 311.161 418.552H237.243C228.714 418.552 221.891 411.584 221.891 403.194V384.708C221.891 376.176 228.857 369.351 237.243 369.351H311.161ZM422.037 369.351C430.566 369.351 437.389 376.319 437.389 384.708V403.194C437.389 411.726 430.424 418.552 422.037 418.552H348.12C339.591 418.552 332.768 411.584 332.768 403.194V384.708C332.768 376.176 339.733 369.351 348.12 369.351H422.037ZM532.772 369.351C541.3 369.351 548.124 376.319 548.124 384.708V403.194C548.124 411.726 541.158 418.552 532.772 418.552H458.854C450.325 418.552 443.502 411.584 443.502 403.194V384.708C443.502 376.176 450.467 369.351 458.854 369.351H532.772ZM643.648 369.351C652.177 369.351 659 376.319 659 384.708V403.194C659 411.726 652.035 418.552 643.648 418.552H569.73C561.201 418.552 554.378 411.584 554.378 403.194V384.708C554.378 376.176 561.344 369.351 569.73 369.351H643.648ZM366.599 312.898C375.128 312.898 381.951 319.866 381.951 328.255V346.741C381.951 355.273 374.986 362.099 366.599 362.099H292.681C284.153 362.099 277.329 355.131 277.329 346.741V328.255C277.329 319.724 284.295 312.898 292.681 312.898H366.599ZM477.475 312.898C486.004 312.898 492.828 319.866 492.828 328.255V346.741C492.828 355.273 485.862 362.099 477.475 362.099H403.558C395.029 362.099 388.206 355.131 388.206 346.741V328.255C388.206 319.724 395.171 312.898 403.558 312.898H477.475ZM588.21 312.898C596.739 312.898 603.562 319.866 603.562 328.255V346.741C603.562 355.273 596.596 362.099 588.21 362.099H514.292C505.763 362.099 498.94 355.131 498.94 346.741V328.255C498.94 319.724 505.905 312.898 514.292 312.898H588.21ZM311.161 255.45C319.69 255.45 326.513 262.417 326.513 270.807V289.293C326.513 297.825 319.548 304.65 311.161 304.65H237.243C228.714 304.65 221.891 297.683 221.891 289.293V270.807C221.891 262.275 228.857 255.45 237.243 255.45H311.161ZM422.037 255.45C430.566 255.45 437.389 262.417 437.389 270.807V289.293C437.389 297.825 430.424 304.65 422.037 304.65H348.12C339.591 304.65 332.768 297.683 332.768 289.293V270.807C332.768 262.275 339.733 255.45 348.12 255.45H422.037ZM532.772 255.45C541.3 255.45 548.124 262.417 548.124 270.807V289.293C548.124 297.825 541.158 304.65 532.772 304.65H458.854C450.325 304.65 443.502 297.683 443.502 289.293V270.807C443.502 262.275 450.467 255.45 458.854 255.45H532.772ZM381.951 214.354V232.84C381.951 241.372 374.986 248.198 366.599 248.198H292.681C284.153 248.198 277.329 241.23 277.329 232.84V214.354C277.329 205.822 284.295 198.997 292.681 198.997H366.599C375.128 198.997 381.951 205.822 381.951 214.354Z" fill="#48524B"/>
<path fill-rule="evenodd" clip-rule="evenodd" d="M245.063 275.926H123.553C98.1989 275.926 77.5088 296.66 77.5088 322.069C77.5088 347.477 98.1989 368.211 123.553 368.211H245.063C270.417 368.211 291.107 347.477 291.107 322.069C291.107 296.66 270.417 275.926 245.063 275.926Z" fill="white"/>
<path fill-rule="evenodd" clip-rule="evenodd" d="M247.096 287.433C231.549 294.145 224.253 312.362 230.951 327.943L318.017 529.893L374.466 505.563L287.4 303.613C280.703 287.912 262.644 280.721 247.096 287.433Z" fill="white"/>
<path fill-rule="evenodd" clip-rule="evenodd" d="M351.384 474.042C325.91 474.042 305.22 494.776 305.22 520.304H397.428C397.428 494.656 376.858 474.042 351.384 474.042Z" fill="#849087"/>
<path fill-rule="evenodd" clip-rule="evenodd" d="M121.879 287.433C137.427 294.145 144.722 312.362 138.025 327.943L50.9589 529.893L-5.49048 505.563L81.5755 303.613C88.1533 287.912 106.332 280.721 121.879 287.433Z" fill="white"/>
<path fill-rule="evenodd" clip-rule="evenodd" d="M69.0176 487.584L54.9052 520.184H28.5941L-5.72998 505.442L10.4155 468.048C15.1993 466.61 20.342 465.891 25.6042 465.891C43.424 465.891 59.2107 474.4 69.0176 487.584Z" fill="#E3E4E3"/>
<path fill-rule="evenodd" clip-rule="evenodd" d="M261.089 520.183V349.275C261.089 306.009 226.525 270.653 184.428 270.653C142.21 270.653 107.767 306.009 107.767 349.275V520.183H261.089Z" fill="white"/>
<path fill-rule="evenodd" clip-rule="evenodd" d="M136.709 263.343H233.701C237.887 263.343 241.236 266.819 241.236 270.894V278.444H129.055V270.894C129.055 266.699 132.523 263.343 136.709 263.343Z" fill="#A2A9A4"/>
<path d="M219.589 201.14H150.463V275.927H219.589V201.14Z" fill="#FDA4B0"/>
<path fill-rule="evenodd" clip-rule="evenodd" d="M150.463 222.233H219.589V253.754C211.696 261.904 200.573 266.938 188.494 266.938C172.229 266.938 157.997 257.949 150.582 244.646V222.233H150.463Z" fill="#FB7185"/>
<path fill-rule="evenodd" clip-rule="evenodd" d="M144.005 143.97C150.463 143.97 155.845 149.363 155.845 155.835V169.259C155.845 175.731 150.463 181.124 144.005 181.124C137.546 181.124 132.165 175.731 132.165 169.259V155.835C132.165 149.243 137.427 143.97 144.005 143.97Z" fill="#313A34"/>
<path fill-rule="evenodd" clip-rule="evenodd" d="M232.027 149.363C235.974 149.363 239.322 152.599 239.322 156.674V196.345C239.322 200.3 236.093 203.656 232.027 203.656C228.08 203.656 224.732 200.42 224.732 196.345V156.674C224.732 152.719 227.961 149.363 232.027 149.363Z" fill="#212C24"/>
<path fill-rule="evenodd" clip-rule="evenodd" d="M139.34 157.873C143.287 157.873 146.636 161.109 146.636 165.184V196.345C146.636 200.301 143.407 203.656 139.34 203.656C135.394 203.656 132.045 200.42 132.045 196.345V165.184C132.165 161.229 135.394 157.873 139.34 157.873Z" fill="#313A34"/>
<path fill-rule="evenodd" clip-rule="evenodd" d="M229.755 157.873V213.364C229.755 237.335 210.141 256.99 186.222 256.99C162.302 256.99 142.689 237.335 142.689 213.364V157.873H229.755Z" fill="#FDA4B0"/>
<path fill-rule="evenodd" clip-rule="evenodd" d="M222.34 188.13C217.436 183.696 211.098 181.538 204.042 183.456C202.846 183.815 201.53 184.295 200.334 184.894C197.703 186.093 197.105 183.096 196.268 182.977C195.431 182.857 194.833 187.651 195.55 189.089C195.67 189.329 195.79 189.449 195.909 189.688C196.507 190.287 197.584 190.407 198.301 190.048C204.64 186.932 213.729 187.531 220.187 190.407C221.024 190.767 221.981 190.647 222.579 190.048C223.057 189.568 222.938 188.729 222.34 188.13Z" fill="#313A34"/>
<path fill-rule="evenodd" clip-rule="evenodd" d="M204.52 224.509C202.726 233.618 194.833 240.21 185.504 240.21C176.176 240.21 168.163 233.618 166.488 224.509C166.369 223.91 166.488 223.311 166.967 222.831C167.326 222.352 167.924 222.112 168.522 222.112H202.487C203.085 222.112 203.683 222.352 204.042 222.831C204.4 223.311 204.64 223.91 204.52 224.509Z" fill="#F43F5E"/>
<path fill-rule="evenodd" clip-rule="evenodd" d="M192.441 235.895C190.049 237.813 187.178 238.892 184.189 238.892C181.199 238.892 178.209 237.813 175.936 235.895C175.697 235.776 175.578 235.536 175.578 235.296C175.578 235.057 175.697 234.817 175.936 234.697C178.328 232.779 181.199 231.701 184.189 231.701C187.178 231.701 190.168 232.779 192.441 234.697C192.68 234.817 192.799 235.057 192.799 235.296C192.68 235.536 192.56 235.656 192.441 235.895Z" fill="#FB7185"/>
<path fill-rule="evenodd" clip-rule="evenodd" d="M171.511 221.993H199.497C195.909 225.708 191.006 227.985 185.504 227.985C180.003 227.985 174.98 225.708 171.511 221.993Z" fill="white"/>
<path fill-rule="evenodd" clip-rule="evenodd" d="M141.493 185.439C144.363 185.439 146.635 187.716 146.635 190.593V205.574C146.635 208.45 144.363 210.728 141.493 210.728C138.622 210.728 136.35 208.45 136.35 205.574V190.593C136.35 187.836 138.622 185.439 141.493 185.439Z" fill="#FB7185"/>
<path fill-rule="evenodd" clip-rule="evenodd" d="M231.07 185.439C233.941 185.439 236.213 187.716 236.213 190.593V205.574C236.213 208.45 233.941 210.728 231.07 210.728C228.2 210.728 225.928 208.45 225.928 205.574V190.593C225.928 187.836 228.2 185.439 231.07 185.439Z" fill="#FB7185"/>
<path fill-rule="evenodd" clip-rule="evenodd" d="M143.407 154.038C145.559 154.038 147.353 155.836 147.353 157.993V193.23C147.353 195.387 145.559 197.185 143.407 197.185C141.254 197.185 139.46 195.387 139.46 193.23V158.113C139.34 155.956 141.134 154.038 143.407 154.038Z" fill="#313A34"/>
<path fill-rule="evenodd" clip-rule="evenodd" d="M229.755 154.038C231.907 154.038 233.701 155.836 233.701 157.993V193.23C233.701 195.387 231.907 197.185 229.755 197.185C227.602 197.185 225.808 195.387 225.808 193.23V158.113C225.688 155.956 227.482 154.038 229.755 154.038Z" fill="#212C24"/>
<path fill-rule="evenodd" clip-rule="evenodd" d="M160.628 131.506H200.454C212.174 131.506 221.742 141.094 221.742 152.84C221.742 164.585 212.174 174.173 200.454 174.173H160.628C148.908 174.173 139.34 164.585 139.34 152.84C139.46 140.974 149.028 131.506 160.628 131.506Z" fill="#48524B"/>
<path fill-rule="evenodd" clip-rule="evenodd" d="M151.3 189.569C156.323 185.254 162.781 183.337 169.718 185.494C170.914 185.854 172.229 186.453 173.425 187.052C176.056 188.251 176.774 185.374 177.611 185.254C178.448 185.254 178.927 189.929 178.209 191.367C178.089 191.607 177.97 191.726 177.85 191.966C177.252 192.565 176.176 192.685 175.458 192.206C169.239 188.97 160.15 189.209 153.572 191.846C152.735 192.206 151.778 191.966 151.18 191.367C150.582 191.007 150.702 190.168 151.3 189.569Z" fill="#313A34"/>
<path fill-rule="evenodd" clip-rule="evenodd" d="M164.694 194.843C169.119 194.843 171.631 197.719 173.664 200.716H153.213C155.246 197.719 160.389 194.843 164.694 194.843Z" fill="#313A34"/>
<path fill-rule="evenodd" clip-rule="evenodd" d="M194.713 120H214.088C228.918 120 240.997 132.105 240.997 146.967C240.997 161.828 228.918 173.933 214.088 173.933H194.713C179.883 173.933 167.804 161.828 167.804 146.967C167.684 132.105 179.883 120 194.713 120Z" fill="#313A34"/>
<path fill-rule="evenodd" clip-rule="evenodd" d="M206.912 194.843C202.487 194.843 199.975 197.719 197.942 200.716H218.393C216.48 197.719 211.337 194.843 206.912 194.843Z" fill="#313A34"/>
<path fill-rule="evenodd" clip-rule="evenodd" d="M182.036 335.732L149.027 275.926H221.024L188.015 335.732C187.417 336.811 186.341 337.53 185.025 337.53C183.71 337.53 182.634 336.93 182.036 335.732Z" fill="#647067"/>
<path fill-rule="evenodd" clip-rule="evenodd" d="M17.5914 474.042C43.0653 474.042 63.7555 494.776 63.7555 520.304H-28.4531C-28.5727 494.656 -7.88257 474.042 17.5914 474.042Z" fill="#FB7185"/>
<path fill-rule="evenodd" clip-rule="evenodd" d="M126.185 345.8H162.064C166.608 345.8 170.316 349.515 170.316 354.069V370.609C170.316 375.163 166.608 378.879 162.064 378.879H126.185C121.64 378.879 117.933 375.163 117.933 370.609V354.069C117.933 349.395 121.64 345.8 126.185 345.8Z" fill="#E3E4E3"/>
<path fill-rule="evenodd" clip-rule="evenodd" d="M142.33 337.529H145.798C147.473 337.529 148.908 338.967 148.908 340.645V350.712C148.908 352.39 147.473 353.829 145.798 353.829H142.33C140.656 353.829 139.221 352.39 139.221 350.712V340.645C139.221 338.967 140.656 337.529 142.33 337.529Z" fill="#C5C8C6"/>
<path fill-rule="evenodd" clip-rule="evenodd" d="M143.407 333.335H144.722C145.44 333.335 145.918 333.934 145.918 334.533V340.286C145.918 341.005 145.32 341.485 144.722 341.485H143.407C142.689 341.485 142.211 340.885 142.211 340.286V334.533C142.211 333.934 142.689 333.335 143.407 333.335Z" fill="#E3E4E3"/>
<path fill-rule="evenodd" clip-rule="evenodd" d="M126.305 352.272H132.404C134.318 352.272 135.992 353.95 135.992 355.867V368.811C135.992 370.729 134.437 372.407 132.404 372.407H126.305C124.272 372.407 122.717 370.849 122.717 368.811V355.867C122.717 353.83 124.391 352.272 126.305 352.272Z" fill="#C5C8C6"/>
<path fill-rule="evenodd" clip-rule="evenodd" d="M144.005 356.586H164.336C165.413 356.586 166.25 357.425 166.25 358.504C166.25 359.582 165.413 360.421 164.336 360.421H144.005C142.928 360.421 142.091 359.582 142.091 358.504C142.091 357.425 142.928 356.586 144.005 356.586Z" fill="#C5C8C6"/>
<path fill-rule="evenodd" clip-rule="evenodd" d="M144.005 362.698H154.41C155.486 362.698 156.323 363.537 156.323 364.616C156.323 365.694 155.486 366.533 154.41 366.533H144.005C142.928 366.533 142.091 365.694 142.091 364.616C142.091 363.537 142.928 362.698 144.005 362.698Z" fill="#C5C8C6"/>
<path fill-rule="evenodd" clip-rule="evenodd" d="M272.211 490.1L285.247 520.183H309.645L341.338 506.52L326.388 472.003C321.963 470.684 317.179 469.965 312.395 469.965C295.891 469.965 281.3 477.875 272.211 490.1Z" fill="#E3E4E3"/>
<path fill-rule="evenodd" clip-rule="evenodd" d="M326.149 500.408H169.359C164.814 500.408 161.106 504.124 161.106 508.678C161.106 513.232 164.814 516.948 169.359 516.948H326.149C330.694 516.948 334.401 513.232 334.401 508.678C334.282 504.124 330.694 500.408 326.149 500.408Z" fill="#313A34"/>
<path fill-rule="evenodd" clip-rule="evenodd" d="M300.676 416.152C300.676 418.07 301.154 420.107 302.111 422.025C304.981 428.137 311.2 431.253 315.984 429.096C320.768 426.819 322.322 420.107 319.572 413.995C319.93 418.429 318.256 422.384 314.788 424.062C310.004 426.339 303.905 423.223 301.154 417.111C300.915 416.751 300.795 416.512 300.676 416.152Z" fill="#A2A9A4"/>
<path fill-rule="evenodd" clip-rule="evenodd" d="M444.19 505.921H278.669C275.201 505.921 272.809 503.044 273.287 499.688L290.39 382.953C291.107 378.398 295.413 374.563 299.957 374.563H461.292C465.837 374.563 469.066 378.279 468.468 382.953L451.366 499.568C450.888 503.044 447.658 505.921 444.19 505.921Z" fill="#313A34"/>
<path fill-rule="evenodd" clip-rule="evenodd" d="M450.768 505.441H275.441C271.374 505.441 268.026 508.797 268.026 512.872C268.026 516.947 271.374 520.303 275.441 520.303H450.768C454.835 520.303 458.183 516.947 458.183 512.872C458.064 508.797 454.835 505.441 450.768 505.441Z" fill="#313A34"/>
<path fill-rule="evenodd" clip-rule="evenodd" d="M277.593 505.441H149.865C145.798 505.441 142.45 508.797 142.45 512.872C142.45 516.947 145.798 520.303 149.865 520.303H277.593C281.66 520.303 285.008 516.947 285.008 512.872C284.889 508.797 281.66 505.441 277.593 505.441Z" fill="#A2A9A4"/>
<path fill-rule="evenodd" clip-rule="evenodd" d="M451.845 505.921H286.324C282.856 505.921 280.464 503.044 280.942 499.688L298.044 382.953C298.762 378.398 303.067 374.563 307.612 374.563H468.947C473.492 374.563 476.721 378.279 476.123 382.953L459.021 499.688C458.542 503.044 455.313 505.921 451.845 505.921Z" fill="#647067"/>
<path fill-rule="evenodd" clip-rule="evenodd" d="M385.708 424.542C377.097 424.542 369.921 431.493 369.563 440.243C369.323 448.872 376.021 455.943 384.632 455.943C393.243 455.943 400.538 448.992 400.777 440.243C401.136 431.493 394.439 424.542 385.708 424.542Z" fill="#48524B"/>
<path fill-rule="evenodd" clip-rule="evenodd" d="M265.993 511.075H271.255C272.451 511.075 273.527 512.034 273.527 513.352C273.527 514.55 272.57 515.629 271.255 515.629H265.993C264.797 515.629 263.72 514.67 263.72 513.352C263.84 512.034 264.797 511.075 265.993 511.075Z" fill="#C5C8C6"/>
<path fill-rule="evenodd" clip-rule="evenodd" d="M251.521 511.075H256.783C257.979 511.075 259.056 512.034 259.056 513.352C259.056 514.55 258.099 515.629 256.783 515.629H251.521C250.325 515.629 249.249 514.67 249.249 513.352C249.368 512.034 250.325 511.075 251.521 511.075Z" fill="#C5C8C6"/>
<path fill-rule="evenodd" clip-rule="evenodd" d="M155.485 511.075H160.748C161.944 511.075 163.02 512.034 163.02 513.352C163.02 514.55 162.063 515.629 160.748 515.629H155.485C154.289 515.629 153.213 514.67 153.213 513.352C153.213 512.034 154.289 511.075 155.485 511.075Z" fill="#C5C8C6"/>
<path fill-rule="evenodd" clip-rule="evenodd" d="M185.863 381.395C188.255 381.395 190.168 379.478 190.168 377.081C190.168 374.684 188.255 372.766 185.863 372.766C183.471 372.766 181.558 374.684 181.558 377.081C181.438 379.478 183.352 381.395 185.863 381.395Z" fill="#E3E4E3"/>
<path fill-rule="evenodd" clip-rule="evenodd" d="M185.863 430.415C188.255 430.415 190.168 428.498 190.168 426.101C190.168 423.704 188.255 421.786 185.863 421.786C183.471 421.786 181.557 423.704 181.557 426.101C181.557 428.498 183.351 430.415 185.863 430.415Z" fill="#E3E4E3"/>
<path fill-rule="evenodd" clip-rule="evenodd" d="M185.863 479.434C188.255 479.434 190.168 477.516 190.168 475.119C190.168 472.722 188.255 470.805 185.863 470.805C183.471 470.805 181.557 472.722 181.557 475.119C181.557 477.516 183.351 479.434 185.863 479.434Z" fill="#E3E4E3"/>
<path fill-rule="evenodd" clip-rule="evenodd" d="M210.26 304.211L213.729 327.342L188.015 335.732L206.553 302.054L216.36 283.716L220.067 277.005L224.971 268.136C227.841 262.862 234.658 261.064 240.04 264.061C245.421 267.057 247.335 273.888 244.465 279.162L225.808 312.96L210.26 304.211Z" fill="#E3E4E3"/>
<path fill-rule="evenodd" clip-rule="evenodd" d="M159.791 304.211L156.323 327.342L182.036 335.732L163.499 302.054L153.692 283.716L149.984 277.005L145.081 268.136C142.21 262.862 135.393 261.064 130.012 264.061C124.63 267.057 122.716 273.888 125.587 279.162L144.244 312.96L159.791 304.211Z" fill="#E3E4E3"/>
<path fill-rule="evenodd" clip-rule="evenodd" d="M116.617 467.568H169.956C171.631 467.568 172.946 468.886 172.946 470.564V481.83C172.946 483.508 171.631 484.827 169.956 484.827H116.617C114.942 484.827 113.627 483.508 113.627 481.83V470.564C113.627 468.886 114.942 467.568 116.617 467.568Z" fill="#E3E4E3"/>
<path fill-rule="evenodd" clip-rule="evenodd" d="M201.291 467.568H254.631C256.305 467.568 257.621 468.886 257.621 470.564V481.83C257.621 483.508 256.305 484.827 254.631 484.827H201.291C199.617 484.827 198.301 483.508 198.301 481.83V470.564C198.301 468.886 199.617 467.568 201.291 467.568Z" fill="#E3E4E3"/>
<path fill-rule="evenodd" clip-rule="evenodd" d="M60.5264 488.063C62.9183 488.063 64.8319 486.145 64.8319 483.748C64.8319 481.351 62.9183 479.434 60.5264 479.434C58.1345 479.434 56.2209 481.351 56.2209 483.748C56.2209 486.145 58.1345 488.063 60.5264 488.063Z" fill="#F5F5F5"/>
<g clip-path="url(#clip1_112_2118)">
<path d="M95.6001 421.2H90.9001V376.8L113.3 341.6L63.6001 314.9V278.7H68.4001V312.1L120.1 339.9L95.6001 378.2V421.2Z" fill="#849087"/>
<path d="M63.9476 284.588C64.4679 284.7 65.0952 284.7 66.35 284.7C67.6048 284.7 68.2321 284.7 68.7524 284.588C70.6736 284.174 72.1744 282.674 72.588 280.752C72.7 280.232 72.7 279.605 72.7 278.35C72.7 277.095 72.7 276.468 72.588 275.948C72.1744 274.026 70.6736 272.526 68.7524 272.112C68.2321 272 67.6048 272 66.35 272C65.0952 272 64.4679 272 63.9476 272.112C62.0264 272.526 60.5256 274.026 60.112 275.948C60 276.468 60 277.095 60 278.35C60 279.605 60 280.232 60.112 280.752C60.5256 282.674 62.0264 284.174 63.9476 284.588Z" fill="#647067"/>
<path d="M64.2477 319.788C64.7679 319.9 65.3953 319.9 66.65 319.9C67.9048 319.9 68.5322 319.9 69.0524 319.788C70.9737 319.374 72.4744 317.874 72.888 315.952C73 315.432 73 314.805 73 313.55C73 312.295 73 311.668 72.888 311.148C72.4744 309.226 70.9737 307.726 69.0524 307.312C68.5322 307.2 67.9048 307.2 66.65 307.2C65.3953 307.2 64.7679 307.2 64.2477 307.312C62.3264 307.726 60.8257 309.226 60.412 311.148C60.3 311.668 60.3 312.295 60.3 313.55C60.3 314.805 60.3 315.432 60.412 315.952C60.8257 317.874 62.3264 319.374 64.2477 319.788Z" fill="#647067"/>
<path d="M114.348 346.988C114.868 347.1 115.495 347.1 116.75 347.1C118.005 347.1 118.632 347.1 119.152 346.988C121.074 346.574 122.574 345.074 122.988 343.152C123.1 342.632 123.1 342.005 123.1 340.75C123.1 339.495 123.1 338.868 122.988 338.348C122.574 336.426 121.074 334.926 119.152 334.512C118.632 334.4 118.005 334.4 116.75 334.4C115.495 334.4 114.868 334.4 114.348 334.512C112.426 334.926 110.926 336.426 110.512 338.348C110.4 338.868 110.4 339.495 110.4 340.75C110.4 342.005 110.4 342.632 110.512 343.152C110.926 345.074 112.426 346.574 114.348 346.988Z" fill="#647067"/>
<path d="M90.8475 383.688C91.3678 383.8 91.9951 383.8 93.2499 383.8C94.5047 383.8 95.132 383.8 95.6523 383.688C97.5735 383.274 99.0743 381.774 99.4879 379.852C99.5999 379.332 99.5999 378.705 99.5999 377.45C99.5999 376.195 99.5999 375.568 99.4879 375.048C99.0743 373.126 97.5735 371.626 95.6523 371.212C95.132 371.1 94.5047 371.1 93.2499 371.1C91.9951 371.1 91.3678 371.1 90.8475 371.212C88.9263 371.626 87.4255 373.126 87.0119 375.048C86.8999 375.568 86.8999 376.195 86.8999 377.45C86.8999 378.705 86.8999 379.332 87.0119 379.852C87.4255 381.774 88.9263 383.274 90.8475 383.688Z" fill="#647067"/>
<path d="M90.8475 427.488C91.3678 427.6 91.9951 427.6 93.2499 427.6C94.5047 427.6 95.132 427.6 95.6523 427.488C97.5735 427.074 99.0743 425.574 99.4879 423.652C99.5999 423.132 99.5999 422.505 99.5999 421.25C99.5999 419.995 99.5999 419.368 99.4879 418.848C99.0743 416.926 97.5735 415.426 95.6523 415.012C95.132 414.9 94.5047 414.9 93.2499 414.9C91.9951 414.9 91.3678 414.9 90.8475 415.012C88.9263 415.426 87.4255 416.926 87.0119 418.848C86.8999 419.368 86.8999 419.995 86.8999 421.25C86.8999 422.505 86.8999 423.132 87.0119 423.652C87.4255 425.574 88.9263 427.074 90.8475 427.488Z" fill="#647067"/>
</g>
<path d="M88.3 261.3H40.8C32.6 261.3 26 254.7 26 246.5V211.8C26 203.6 32.6 197 40.8 197H88.3C96.5 197 103.1 203.6 103.1 211.8V246.5C103.1 254.6 96.5 261.3 88.3 261.3Z" fill="white"/>
<path d="M49.7864 213.414C53.6934 210.195 59.2905 210.195 63.1975 213.414C63.6254 213.767 64.0651 214.213 64.711 214.868L64.8024 214.961C64.8995 215.06 64.9526 215.113 64.9922 215.152L65 215.16L65.0078 215.152C65.0474 215.113 65.1005 215.06 65.1976 214.961L65.2891 214.868C65.9349 214.213 66.3746 213.767 66.8025 213.414C70.7095 210.195 76.3066 210.195 80.2136 213.414C80.6415 213.767 81.0813 214.213 81.7271 214.868L82.6219 215.776C83.7901 216.96 84.5862 217.767 85.1489 218.604C86.815 221.08 87.3564 224.084 86.7731 226.903C86.6118 226.864 86.4434 226.843 86.2701 226.843H74.7181C72.5879 226.843 71.966 226.821 71.4329 226.656C70.8978 226.491 70.4 226.221 69.9679 225.861C69.5375 225.502 69.1745 224.99 67.9929 223.192L66.7698 221.331C66.2498 220.54 65.2807 220.187 64.3836 220.463C63.4865 220.738 62.873 221.577 62.873 222.528V228.925C62.8269 228.885 62.7804 228.845 62.7332 228.805C61.8691 228.085 60.8735 227.545 59.8032 227.215C58.588 226.841 57.2867 226.841 55.5624 226.842L43.7299 226.843C43.5566 226.843 43.3881 226.864 43.2269 226.903C42.6436 224.084 43.185 221.08 44.8511 218.604C45.4138 217.767 46.2099 216.96 47.378 215.776L48.273 214.868C48.9188 214.213 49.3585 213.767 49.7864 213.414Z" fill="#F43F5E"/>
<path d="M45.1322 231.157C45.6714 231.864 46.3922 232.595 47.378 233.594L53.9346 240.244C55.5646 241.898 56.8794 243.231 58.031 244.223C59.2168 245.244 60.3689 246.029 61.7136 246.472C63.8496 247.176 66.1504 247.176 68.2864 246.472C69.6311 246.029 70.7832 245.244 71.969 244.223C73.1207 243.231 74.4354 241.898 76.0655 240.244L82.622 233.594C83.6077 232.595 84.3286 231.864 84.8678 231.157L74.4376 231.158C72.7133 231.159 71.4119 231.159 70.1967 230.785C69.1265 230.455 68.1309 229.915 67.2668 229.195C67.2196 229.155 67.173 229.115 67.127 229.075V235.472C67.127 236.423 66.5134 237.262 65.6164 237.537C64.7193 237.813 63.7501 237.46 63.2302 236.669L62.0071 234.808C60.8255 233.01 60.4625 232.498 60.0321 232.139C59.6 231.779 59.1022 231.508 58.5671 231.344C58.034 231.179 57.4121 231.157 55.2819 231.157H45.1322Z" fill="#F43F5E"/>
<g clip-path="url(#clip2_112_2118)">
<path d="M296.45 201.5H301.15V245.9L278.75 281.1L328.45 307.8V344H323.65V310.6L271.95 282.8L296.45 244.5V201.5Z" fill="#849087"/>
<path d="M328.102 338.112C327.582 338 326.955 338 325.7 338C324.445 338 323.818 338 323.298 338.112C321.376 338.526 319.876 340.026 319.462 341.948C319.35 342.468 319.35 343.095 319.35 344.35C319.35 345.605 319.35 346.232 319.462 346.752C319.876 348.674 321.376 350.174 323.298 350.588C323.818 350.7 324.445 350.7 325.7 350.7C326.955 350.7 327.582 350.7 328.102 350.588C330.024 350.174 331.524 348.674 331.938 346.752C332.05 346.232 332.05 345.605 332.05 344.35C332.05 343.095 332.05 342.468 331.938 341.948C331.524 340.026 330.024 338.526 328.102 338.112Z" fill="#647067"/>
<path d="M327.802 302.912C327.282 302.8 326.655 302.8 325.4 302.8C324.145 302.8 323.518 302.8 322.998 302.912C321.076 303.326 319.576 304.826 319.162 306.748C319.05 307.268 319.05 307.895 319.05 309.15C319.05 310.405 319.05 311.032 319.162 311.552C319.576 313.474 321.076 314.974 322.998 315.388C323.518 315.5 324.145 315.5 325.4 315.5C326.655 315.5 327.282 315.5 327.802 315.388C329.724 314.974 331.224 313.474 331.638 311.552C331.75 311.032 331.75 310.405 331.75 309.15C331.75 307.895 331.75 307.268 331.638 306.748C331.224 304.826 329.724 303.326 327.802 302.912Z" fill="#647067"/>
<path d="M277.703 275.712C277.182 275.6 276.555 275.6 275.3 275.6C274.045 275.6 273.418 275.6 272.898 275.712C270.977 276.126 269.476 277.626 269.062 279.548C268.95 280.068 268.95 280.695 268.95 281.95C268.95 283.205 268.95 283.832 269.062 284.352C269.476 286.274 270.977 287.774 272.898 288.188C273.418 288.3 274.045 288.3 275.3 288.3C276.555 288.3 277.182 288.3 277.703 288.188C279.624 287.774 281.125 286.274 281.538 284.352C281.65 283.832 281.65 283.205 281.65 281.95C281.65 280.695 281.65 280.068 281.538 279.548C281.125 277.626 279.624 276.126 277.703 275.712Z" fill="#647067"/>
<path d="M301.203 239.012C300.682 238.9 300.055 238.9 298.8 238.9C297.545 238.9 296.918 238.9 296.398 239.012C294.477 239.425 292.976 240.926 292.562 242.847C292.45 243.368 292.45 243.995 292.45 245.25C292.45 246.505 292.45 247.132 292.562 247.652C292.976 249.573 294.477 251.074 296.398 251.488C296.918 251.6 297.545 251.6 298.8 251.6C300.055 251.6 300.682 251.6 301.203 251.488C303.124 251.074 304.625 249.573 305.038 247.652C305.15 247.132 305.15 246.505 305.15 245.25C305.15 243.995 305.15 243.368 305.038 242.847C304.625 240.926 303.124 239.425 301.203 239.012Z" fill="#647067"/>
<path d="M301.203 195.212C300.682 195.1 300.055 195.1 298.8 195.1C297.545 195.1 296.918 195.1 296.398 195.212C294.477 195.626 292.976 197.126 292.562 199.048C292.45 199.568 292.45 200.195 292.45 201.45C292.45 202.705 292.45 203.332 292.562 203.852C292.976 205.774 294.477 207.274 296.398 207.688C296.918 207.8 297.545 207.8 298.8 207.8C300.055 207.8 300.682 207.8 301.203 207.688C303.124 207.274 304.625 205.774 305.038 203.852C305.15 203.332 305.15 202.705 305.15 201.45C305.15 200.195 305.15 199.568 305.038 199.048C304.625 197.126 303.124 195.626 301.203 195.212Z" fill="#647067"/>
</g>
<path d="M324.3 186.2H276.8C268.6 186.2 262 179.6 262 171.4V136.8C262 128.6 268.6 122 276.8 122H324.3C332.5 122 339.1 128.6 339.1 136.8V171.5C339.1 179.6 332.5 186.2 324.3 186.2Z" fill="white"/>
<path d="M297 138C298.954 138 299.64 138.01 300.171 138.115C302.551 138.589 304.411 140.449 304.885 142.83C305.1 143.913 306.153 144.616 307.236 144.401C308.32 144.185 309.023 143.132 308.808 142.049C308.019 138.082 304.918 134.981 300.951 134.192C299.981 133.999 298.867 134 297.232 134L294.929 134C293.125 134 291.671 134 290.487 134.081C289.269 134.164 288.193 134.339 287.173 134.761C284.723 135.776 282.776 137.723 281.761 140.173C281.339 141.193 281.164 142.269 281.081 143.487C281 144.671 281 146.125 281 147.929V148.071C281 149.875 281 151.329 281.081 152.513C281.164 153.731 281.339 154.807 281.761 155.827C282.776 158.277 284.723 160.224 287.173 161.239C288.194 161.662 289.364 161.177 289.786 160.156C290.209 159.136 289.724 157.966 288.704 157.543C287.234 156.934 286.066 155.766 285.457 154.296C285.27 153.845 285.141 153.255 285.071 152.241C285.001 151.209 285 149.891 285 148C285 146.109 285.001 144.791 285.071 143.759C285.141 142.745 285.27 142.155 285.457 141.704C286.066 140.234 287.234 139.066 288.704 138.457C289.155 138.27 289.745 138.141 290.759 138.072C291.791 138.001 293.109 138 295 138H297Z" fill="#84CC16"/>
<path d="M306.929 146C305.125 146 303.671 146 302.487 146.081C301.269 146.164 300.193 146.339 299.173 146.761C296.723 147.776 294.776 149.723 293.761 152.173C293.339 153.193 293.164 154.269 293.081 155.487C293 156.671 293 158.125 293 159.929V160.071C293 161.875 293 163.329 293.081 164.513C293.164 165.731 293.339 166.807 293.761 167.827C294.007 168.421 294.308 168.985 294.658 169.514L316.514 147.658C315.985 147.308 315.421 147.007 314.827 146.761C313.807 146.339 312.731 146.164 311.513 146.081C310.329 146 308.875 146 307.071 146H306.929Z" fill="#84CC16"/>
<path d="M299.173 173.239C298.579 172.993 298.015 172.692 297.486 172.342L319.342 150.486C319.692 151.015 319.993 151.579 320.239 152.173C320.661 153.193 320.836 154.269 320.919 155.487C321 156.671 321 158.125 321 159.929V160.071C321 161.875 321 163.329 320.919 164.513C320.836 165.731 320.661 166.807 320.239 167.827C319.224 170.277 317.277 172.224 314.827 173.239C313.807 173.661 312.731 173.836 311.513 173.919C310.329 174 308.875 174 307.071 174H306.929C305.126 174 303.671 174 302.487 173.919C301.269 173.836 300.193 173.661 299.173 173.239Z" fill="#84CC16"/>
<path d="M108.3 188.3H60.8C52.6 188.3 46 181.7 46 173.5V138.8C46 130.6 52.6 124 60.8 124H108.3C116.5 124 123.1 130.6 123.1 138.8V173.5C123.1 181.6 116.5 188.3 108.3 188.3Z" fill="white"/>
<path d="M89.5 141V171C89.5 171.766 89.5 172.15 89.4498 172.47C89.1693 174.263 87.7631 175.669 85.9704 175.95C85.6496 176 85.2664 176 84.5 176C83.7336 176 83.3504 176 83.0296 175.95C81.2369 175.669 79.8307 174.263 79.5502 172.47C79.5 172.15 79.5 171.766 79.5 171V141C79.5 140.234 79.5 139.85 79.5502 139.53C79.8307 137.737 81.2369 136.331 83.0296 136.05C83.3504 136 83.7336 136 84.5 136C85.2664 136 85.6496 136 85.9704 136.05C87.7631 136.331 89.1693 137.737 89.4498 139.53C89.5 139.85 89.5 140.234 89.5 141Z" fill="#FACC15"/>
<path d="M107 171V153.5C107 152.734 107 152.35 106.95 152.03C106.669 150.237 105.263 148.831 103.47 148.55C103.15 148.5 102.766 148.5 102 148.5C101.234 148.5 100.85 148.5 100.53 148.55C98.7369 148.831 97.3307 150.237 97.0502 152.03C97 152.35 97 152.734 97 153.5V171C97 171.766 97 172.15 97.0502 172.47C97.3307 174.263 98.7369 175.669 100.53 175.95C100.85 176 101.234 176 102 176C102.766 176 103.15 176 103.47 175.95C105.263 175.669 106.669 174.263 106.95 172.47C107 172.15 107 171.766 107 171Z" fill="#FACC15"/>
<path d="M72 171V163.5C72 162.734 72 162.35 71.9498 162.03C71.6693 160.237 70.2631 158.831 68.4704 158.55C68.1496 158.5 67.7664 158.5 67 158.5C66.2336 158.5 65.8504 158.5 65.5296 158.55C63.7369 158.831 62.3307 160.237 62.0502 162.03C62 162.35 62 162.734 62 163.5V171C62 171.766 62 172.15 62.0502 172.47C62.3307 174.263 63.7369 175.669 65.5296 175.95C65.8504 176 66.2336 176 67 176C67.7664 176 68.1496 176 68.4704 175.95C70.2631 175.669 71.6693 174.263 71.9498 172.47C72 172.15 72 171.766 72 171Z" fill="#FACC15"/>
</g>
<defs>
<clipPath id="clip0_112_2118">
<path d="M0 0H375V443.2C375 470.083 375 483.524 369.768 493.792C365.166 502.823 357.823 510.166 348.792 514.768C338.524 520 325.083 520 298.2 520H76.8C49.9175 520 36.4762 520 26.2085 514.768C17.1767 510.166 9.83361 502.823 5.23169 493.792C0 483.524 0 470.083 0 443.2V0Z" fill="white"/>
</clipPath>
<clipPath id="clip1_112_2118">
<rect width="63" height="155.5" fill="white" transform="translate(60 272)"/>
</clipPath>
<clipPath id="clip2_112_2118">
<rect width="63" height="155.5" fill="white" transform="matrix(-1 0 0 -1 332.05 350.7)"/>
</clipPath>
</defs>
</svg>
