<svg width="192" height="192" viewBox="0 0 192 192" fill="none" xmlns="http://www.w3.org/2000/svg">
<path fill-rule="evenodd" clip-rule="evenodd" d="M94.8994 15.9994C88.5363 15.996 83.811 15.9934 79.7178 17.0902C68.6748 20.0491 60.0493 28.6746 57.0904 39.7176C55.9936 43.8108 55.9962 48.5361 55.9996 54.8992L56 64.9965C53.4468 65.4319 51.0321 66.0756 48.6927 67.0446C38.8915 71.1044 31.1046 78.8913 27.0448 88.6925C25.3558 92.7701 24.6553 97.0763 24.323 101.946C23.9999 106.682 23.9999 112.502 24 119.716V120.284C23.9999 127.498 23.9999 133.317 24.323 138.053C24.6553 142.923 25.3558 147.23 27.0448 151.307C31.1046 161.108 38.8915 168.895 48.6927 172.955C52.7703 174.644 57.0765 175.344 61.9465 175.677C66.6824 176 72.5016 176 79.7155 176H112.284C119.498 176 125.318 176 130.054 175.677C134.923 175.344 139.23 174.644 143.307 172.955C153.108 168.895 160.895 161.108 164.955 151.307C166.644 147.23 167.345 142.923 167.677 138.053C168 133.317 168 127.498 168 120.284V119.716C168 112.502 168 106.682 167.677 101.946C167.345 97.0763 166.644 92.7701 164.955 88.6925C160.895 78.8913 153.108 71.1044 143.307 67.0446C140.968 66.0756 138.553 65.4319 136 64.9965L136 54.8992C136.004 48.5362 136.006 43.8108 134.91 39.7176C131.951 28.6746 123.325 20.0491 112.282 17.0902C108.189 15.9934 103.464 15.996 97.1006 15.9994H94.8994ZM120 64.0181V55.9998C120 48.045 119.931 45.6369 119.455 43.8587C117.975 38.3372 113.663 34.0245 108.141 32.545C106.363 32.0685 103.955 31.9998 96 31.9998C88.0452 31.9998 85.6371 32.0685 83.8589 32.545C78.3374 34.0245 74.0247 38.3372 72.5452 43.8587C72.0687 45.6369 72 48.045 72 55.9998V64.0181C74.3778 63.9998 76.9438 63.9998 79.7157 63.9998H112.284C115.056 63.9998 117.622 63.9998 120 64.0181ZM80 120C80 117.547 80 116.321 80.1606 115.295C81.0581 109.558 85.5582 105.058 91.2949 104.16C92.3212 104 93.5475 104 96 104C98.4525 104 99.6788 104 100.705 104.16C106.442 105.058 110.942 109.558 111.839 115.295C112 116.321 112 117.547 112 120C112 122.452 112 123.679 111.839 124.705C110.942 130.442 106.442 134.942 100.705 135.839C99.6788 136 98.4525 136 96 136C93.5475 136 92.3212 136 91.2949 135.839C85.5582 134.942 81.0581 130.442 80.1606 124.705C80 123.679 80 122.452 80 120Z" fill="#313A34"/>
</svg>
