<svg width="375" height="520" viewBox="0 0 375 520" fill="none" xmlns="http://www.w3.org/2000/svg">
<g clip-path="url(#clip0_112_2232)">
<path d="M0 0H375V443.2C375 470.083 375 483.524 369.768 493.792C365.166 502.823 357.823 510.166 348.792 514.768C338.524 520 325.083 520 298.2 520H76.8C49.9175 520 36.4762 520 26.2085 514.768C17.1767 510.166 9.83361 502.823 5.23169 493.792C0 483.524 0 470.083 0 443.2V0Z" fill="#713F12"/>
<g opacity="0.64">
<rect x="-445" y="398.843" width="400" height="560" rx="180" transform="rotate(-45 -445 398.843)" fill="#854D0E"/>
</g>
<g opacity="0.64">
<rect x="319.473" y="610.196" width="300" height="420" rx="135" transform="rotate(-120.104 319.473 610.196)" fill="#854D0E"/>
</g>
<g opacity="0.64">
<rect x="-112" y="-228.546" width="400" height="560" rx="180" transform="rotate(-32.5908 -112 -228.546)" fill="#854D0E"/>
</g>
<path d="M17.0448 406.54L-79.2088 350.968C-94.0171 342.419 -99.0799 323.566 -90.5398 308.774L10.8455 133.17C19.3855 118.378 38.2437 113.336 53.052 121.886L149.306 177.458C164.114 186.007 169.177 204.86 160.637 219.652L59.2513 395.256C50.7113 410.048 31.8531 415.09 17.0448 406.54Z" fill="#FACC15"/>
<path d="M63.0702 172.93L34.4029 156.379C29.6567 153.639 27.8596 147.544 30.7063 142.614C33.4434 137.873 39.5397 136.083 44.4757 138.932L73.3329 155.593C78.0791 158.333 79.8762 164.428 77.0295 169.358C73.993 174.179 68.0062 175.78 63.0702 172.93Z" fill="#FDE047"/>
<path d="M50.8023 161.296L40.3606 155.268C37.5128 153.623 36.5485 150.032 38.1908 147.188C39.8331 144.343 43.4252 143.383 46.2729 145.027L56.7146 151.056C59.5624 152.7 60.5267 156.291 58.8844 159.135C57.2421 161.98 53.65 162.94 50.8023 161.296Z" fill="white"/>
<path d="M61.244 167.325L50.8022 161.296C47.9545 159.652 46.9902 156.061 48.6325 153.216C50.2748 150.372 53.8668 149.412 56.7146 151.056L67.1563 157.084C70.004 158.728 70.9684 162.319 69.326 165.164C67.6837 168.008 64.0917 168.969 61.244 167.325Z" fill="#EAB308"/>
<path d="M128.758 210.855L100.091 194.304C95.3447 191.564 93.5476 185.469 96.3942 180.539C99.1314 175.798 105.228 174.008 110.164 176.857L139.021 193.518C143.767 196.258 145.564 202.353 142.717 207.284C139.681 212.104 133.694 213.705 128.758 210.855Z" fill="#FDE047"/>
<path d="M116.49 199.221L106.048 193.193C103.201 191.548 102.236 187.957 103.879 185.113C105.521 182.268 109.113 181.308 111.961 182.952L122.402 188.981C125.25 190.625 126.214 194.216 124.572 197.06C122.93 199.905 119.338 200.865 116.49 199.221Z" fill="white"/>
<path d="M126.932 205.25L116.49 199.221C113.642 197.577 112.678 193.986 114.32 191.141C115.963 188.297 119.555 187.337 122.403 188.981L132.844 195.009C135.692 196.653 136.656 200.244 135.014 203.089C133.372 205.933 129.78 206.894 126.932 205.25Z" fill="#EAB308"/>
<path d="M42.4867 208.582L13.8194 192.031C9.07318 189.291 7.27609 183.196 10.1228 178.266C12.8599 173.525 18.9562 171.734 23.8923 174.584L52.7494 191.245C57.4956 193.985 59.2927 200.08 56.446 205.01C53.4095 209.831 47.4228 211.432 42.4867 208.582Z" fill="#FDE047"/>
<path d="M30.2188 196.948L19.7771 190.919C16.9293 189.275 15.965 185.684 17.6073 182.84C19.2496 179.995 22.8417 179.035 25.6894 180.679L36.1311 186.707C38.9789 188.352 39.9432 191.943 38.3009 194.787C36.6586 197.632 33.0665 198.592 30.2188 196.948Z" fill="white"/>
<path d="M40.6605 202.976L30.2187 196.948C27.371 195.304 26.4067 191.713 28.049 188.868C29.6913 186.024 33.2833 185.063 36.1311 186.708L46.5728 192.736C49.4205 194.38 50.3849 197.971 48.7425 200.816C47.1002 203.66 43.5082 204.621 40.6605 202.976Z" fill="#EAB308"/>
<path d="M108.175 246.507L79.5074 229.956C74.7612 227.216 72.9641 221.121 75.8107 216.191C78.5479 211.45 84.6442 209.659 89.5802 212.509L118.437 229.17C123.184 231.91 124.981 238.005 122.134 242.935C119.097 247.756 113.111 249.357 108.175 246.507Z" fill="#FDE047"/>
<path d="M95.9066 234.873L85.4648 228.844C82.6171 227.2 81.6527 223.609 83.2951 220.765C84.9374 217.92 88.5294 216.96 91.3772 218.604L101.819 224.633C104.667 226.277 105.631 229.868 103.989 232.712C102.346 235.557 98.7543 236.517 95.9066 234.873Z" fill="white"/>
<path d="M106.348 240.902L95.9067 234.873C93.059 233.229 92.0946 229.638 93.737 226.793C95.3793 223.949 98.9713 222.988 101.819 224.633L112.261 230.661C115.109 232.305 116.073 235.896 114.431 238.741C112.788 241.585 109.196 242.546 106.348 240.902Z" fill="#EAB308"/>
<path d="M21.9029 244.234L-6.76433 227.683C-11.5106 224.943 -13.3077 218.848 -10.461 213.917C-7.7238 209.176 -1.62757 207.386 3.30851 210.236L32.1656 226.897C36.9118 229.637 38.7089 235.732 35.8623 240.662C32.8257 245.483 26.839 247.084 21.9029 244.234Z" fill="#FDE047"/>
<path d="M9.63482 232.6L-0.806894 226.571C-3.65463 224.927 -4.61898 221.336 -2.97667 218.492C-1.33436 215.647 2.25769 214.687 5.10543 216.331L15.5471 222.359C18.3949 224.003 19.3592 227.594 17.7169 230.439C16.0746 233.284 12.4826 234.244 9.63482 232.6Z" fill="white"/>
<path d="M20.0767 238.628L9.635 232.6C6.78726 230.956 5.82292 227.365 7.46523 224.52C9.10754 221.676 12.6996 220.715 15.5473 222.359L25.989 228.388C28.8368 230.032 29.8011 233.623 28.1588 236.468C26.5165 239.312 22.9245 240.272 20.0767 238.628Z" fill="#EAB308"/>
<path d="M87.5909 282.159L58.9237 265.608C54.1774 262.868 52.3803 256.773 55.227 251.842C57.9642 247.102 64.0604 245.311 68.9965 248.161L97.8536 264.822C102.6 267.562 104.397 273.657 101.55 278.587C98.5137 283.408 92.527 285.009 87.5909 282.159Z" fill="#FDE047"/>
<path d="M75.3231 270.525L64.8813 264.496C62.0336 262.852 61.0693 259.261 62.7116 256.417C64.3539 253.572 67.9459 252.612 70.7937 254.256L81.2354 260.284C84.0831 261.929 85.0475 265.519 83.4051 268.364C81.7628 271.209 78.1708 272.169 75.3231 270.525Z" fill="white"/>
<path d="M85.7647 276.553L75.323 270.525C72.4752 268.881 71.5109 265.29 73.1532 262.445C74.7955 259.601 78.3876 258.64 81.2353 260.284L91.677 266.313C94.5248 267.957 95.4891 271.548 93.8468 274.393C92.2045 277.237 88.6124 278.198 85.7647 276.553Z" fill="#EAB308"/>
<path d="M1.20981 280.075L-27.4574 263.524C-32.2037 260.784 -34.0008 254.69 -31.1541 249.759C-28.4169 245.018 -22.3207 243.228 -17.3846 246.078L11.4725 262.738C16.2187 265.479 18.0158 271.573 15.1691 276.504C12.2421 281.135 6.14589 282.925 1.20981 280.075Z" fill="#FDE047"/>
<path d="M-10.9487 268.252L-21.3904 262.223C-24.2381 260.579 -25.2025 256.988 -23.5602 254.143C-21.9179 251.299 -18.3258 250.339 -15.4781 251.983L-5.03635 258.011C-2.18861 259.655 -1.22428 263.246 -2.86659 266.091C-4.5089 268.935 -8.10093 269.896 -10.9487 268.252Z" fill="white"/>
<path d="M-0.506779 274.28L-10.9485 268.252C-13.7962 266.608 -14.7606 263.017 -13.1183 260.172C-11.476 257.327 -7.88392 256.367 -5.03617 258.011L5.40554 264.04C8.25328 265.684 9.21762 269.275 7.57531 272.119C5.933 274.964 2.34096 275.924 -0.506779 274.28Z" fill="#EAB308"/>
<path d="M66.8978 318L38.2305 301.449C33.4843 298.709 31.6872 292.615 34.5339 287.684C37.2711 282.943 43.3673 281.153 48.3034 284.003L77.1605 300.663C81.9067 303.404 83.7038 309.498 80.8571 314.429C77.9301 319.06 71.8339 320.85 66.8978 318Z" fill="#FDE047"/>
<path d="M54.7393 306.177L44.2976 300.148C41.4499 298.504 40.4855 294.913 42.1278 292.068C43.7701 289.224 47.3622 288.264 50.2099 289.908L60.6516 295.936C63.4994 297.58 64.4637 301.171 62.8214 304.016C61.1791 306.86 57.5871 307.821 54.7393 306.177Z" fill="white"/>
<path d="M65.1812 312.205L54.7395 306.177C51.8918 304.533 50.9274 300.942 52.5697 298.097C54.212 295.252 57.8041 294.292 60.6518 295.936L71.0935 301.965C73.9413 303.609 74.9056 307.2 73.2633 310.044C71.621 312.889 68.029 313.849 65.1812 312.205Z" fill="#EAB308"/>
<path d="M46.3141 353.652L17.6468 337.101C12.9006 334.361 11.1035 328.266 13.9502 323.336C16.6873 318.595 22.7836 316.805 27.7196 319.655L56.5768 336.315C61.323 339.055 63.1201 345.15 60.2734 350.081C57.3464 354.712 51.2502 356.502 46.3141 353.652Z" fill="#FDE047"/>
<path d="M34.1556 341.829L23.7139 335.8C20.8661 334.156 19.9018 330.565 21.5441 327.72C23.1864 324.876 26.7784 323.915 29.6262 325.56L40.0679 331.588C42.9156 333.232 43.88 336.823 42.2377 339.668C40.5954 342.512 37.0033 343.473 34.1556 341.829Z" fill="white"/>
<path d="M44.5972 347.857L34.1555 341.829C31.3078 340.184 30.3434 336.593 31.9857 333.749C33.628 330.904 37.2201 329.944 40.0678 331.588L50.5095 337.617C53.3573 339.261 54.3216 342.852 52.6793 345.696C51.037 348.541 47.445 349.501 44.5972 347.857Z" fill="#EAB308"/>
<path d="M25.7303 389.304L-2.93693 372.753C-7.68316 370.013 -9.48026 363.918 -6.63359 358.988C-3.8964 354.247 2.19982 352.457 7.13591 355.306L35.993 371.967C40.7392 374.707 42.5363 380.802 39.6897 385.732C36.7626 390.364 30.6664 392.154 25.7303 389.304Z" fill="#FDE047"/>
<path d="M13.4622 377.67L3.02051 371.642C0.172767 369.997 -0.791582 366.406 0.850729 363.562C2.49304 360.717 6.08508 359.757 8.93282 361.401L19.3745 367.43C22.2223 369.074 23.1866 372.665 21.5443 375.509C20.0115 378.164 16.31 379.314 13.4622 377.67Z" fill="white"/>
<path d="M23.9041 383.699L13.4624 377.67C10.6147 376.026 9.65031 372.435 11.2926 369.59C12.9349 366.746 16.527 365.786 19.3747 367.43L29.8164 373.458C32.6642 375.102 33.6285 378.693 31.9862 381.538C30.4534 384.193 26.7519 385.343 23.9041 383.699Z" fill="#EAB308"/>
<path d="M-22.0092 363.259C-23.528 362.382 -24.0905 360.287 -23.2146 358.77L85.7254 170.081C86.6013 168.564 88.6966 168.003 90.2154 168.88C91.7342 169.757 92.2967 171.852 91.4208 173.369L-17.5191 362.058C-18.395 363.576 -20.4904 364.136 -22.0092 363.259Z" fill="#FDE047"/>
<path d="M263.618 457.602L213.015 471.16L220.939 500.732L271.541 487.173L263.618 457.602Z" fill="#EAB308"/>
<path d="M283.464 489.464L292.028 521.424C292.79 524.268 291.13 527.151 288.294 527.911L226.686 544.418C223.85 545.178 220.971 543.512 220.209 540.668L211.645 508.708C210.883 505.865 212.543 502.982 215.38 502.222L276.987 485.714C279.824 484.954 282.702 486.621 283.464 489.464Z" fill="white"/>
<path d="M283.464 489.464L292.028 521.424C292.79 524.268 291.13 527.151 288.294 527.911L274.906 531.498C272.069 532.258 269.191 530.591 268.429 527.748L259.865 495.788C259.103 492.944 260.763 490.061 263.599 489.301L277.101 485.684C279.824 484.954 282.702 486.621 283.464 489.464Z" fill="#C5C8C6"/>
<path d="M236.751 281.092L242.25 308.875L250.829 353.144L274.532 475.644L212.471 492.274L204.696 469.611L189.96 426.87L171.862 374.303L157.157 331.676L147.914 304.896L236.751 281.092Z" fill="#EAB308"/>
<path d="M217.69 286.199L223.076 314.013L231.654 358.281L242.264 412.855L250.873 457.237L255.471 480.752L212.471 492.274L204.696 469.611L189.96 426.87L171.862 374.303L157.157 331.676L147.914 304.896L217.69 286.199Z" fill="#FACC15"/>
<path d="M233.854 311.125L242.546 355.363L231.654 358.282L223.076 314.013L233.854 311.125Z" fill="#C5C8C6"/>
<path d="M223.076 314.013L231.654 358.282L171.862 374.303L157.157 331.676L223.076 314.013Z" fill="white"/>
<path d="M252.816 410.028L261.425 454.41L250.873 457.237L242.264 412.855L252.816 410.028Z" fill="#C5C8C6"/>
<path d="M242.264 412.855L250.873 457.237L204.696 469.61L189.96 426.87L242.264 412.855Z" fill="white"/>
<path d="M243.595 269.872C244.905 274.762 242.001 279.807 237.122 281.114L147.49 305.131C142.695 306.294 137.688 303.491 136.377 298.601C135.067 293.71 137.971 288.665 142.85 287.358L232.482 263.341C237.36 262.034 242.284 264.981 243.595 269.872Z" fill="#EAB308"/>
<path d="M218.521 276.59C219.831 281.481 216.927 286.526 212.048 287.833L147.604 305.101C142.695 306.294 137.688 303.491 136.377 298.601C135.067 293.71 137.971 288.665 142.85 287.358L207.407 270.06C212.286 268.752 217.21 271.7 218.521 276.59Z" fill="#FACC15"/>
<path d="M226.925 538.503C226.018 538.746 225.01 538.163 224.766 537.253L217.3 509.387C217.056 508.477 217.637 507.468 218.544 507.225C219.452 506.982 220.46 507.565 220.703 508.475L228.17 536.341C228.558 537.334 227.946 538.229 226.925 538.503Z" fill="#E3E4E3"/>
<path d="M238.612 535.372C237.704 535.615 236.696 535.031 236.453 534.122L228.986 506.256C228.742 505.346 229.323 504.337 230.231 504.094C231.138 503.851 232.146 504.434 232.39 505.344L239.856 533.21C240.131 534.233 239.519 535.128 238.612 535.372Z" fill="#E3E4E3"/>
<path d="M250.184 532.271C249.276 532.514 248.269 531.931 248.025 531.021L240.558 503.155C240.315 502.245 240.896 501.236 241.803 500.993C242.711 500.75 243.718 501.333 243.962 502.243L251.429 530.109C251.817 531.102 251.205 531.997 250.184 532.271Z" fill="#E3E4E3"/>
<path d="M261.87 529.139C260.963 529.383 259.955 528.799 259.711 527.889L252.245 500.024C252.001 499.114 252.582 498.105 253.489 497.862C254.397 497.618 255.405 498.202 255.648 499.112L263.115 526.977C263.389 528.001 262.778 528.896 261.87 529.139Z" fill="#E3E4E3"/>
<path d="M273.556 526.008C272.649 526.251 271.641 525.668 271.397 524.758L263.931 496.892C263.687 495.982 264.268 494.973 265.176 494.73C266.083 494.487 267.091 495.07 267.335 495.98L274.801 523.846C275.075 524.87 274.464 525.765 273.556 526.008Z" fill="#647067"/>
<path d="M285.129 522.907C284.221 523.15 283.214 522.567 282.97 521.657L275.504 493.792C275.26 492.882 275.841 491.873 276.748 491.629C277.656 491.386 278.663 491.97 278.907 492.879L286.374 520.745C286.762 521.738 286.15 522.634 285.129 522.907Z" fill="#647067"/>
<path d="M404.908 229.499L331.631 209.864L304.453 311.292L377.73 330.927L404.908 229.499Z" fill="#EAB308"/>
<path d="M416.111 257.5L387.148 365.592C386.076 369.59 381.853 372.03 377.856 370.959L284.328 345.898C280.331 344.827 277.893 340.603 278.964 336.604L307.927 228.512C308.999 224.513 313.222 222.074 317.219 223.145L410.748 248.206C414.745 249.277 417.182 253.501 416.111 257.5Z" fill="#EAB308"/>
<path d="M379.473 247.682L350.509 355.775C349.438 359.773 345.214 362.213 341.217 361.142L284.328 345.898C280.331 344.827 277.893 340.603 278.964 336.604L307.927 228.512C308.999 224.513 313.222 222.074 317.219 223.145L374.109 238.388C378.106 239.459 380.544 243.684 379.473 247.682Z" fill="#FACC15"/>
<path d="M305.216 339.353C304.417 339.139 303.786 338.827 303.058 338.346L296.65 333.486C294.04 331.501 293.503 327.643 295.488 325.032C297.473 322.421 301.329 321.884 303.939 323.868L310.348 328.728C312.958 330.713 313.495 334.571 311.51 337.182C309.97 339.198 307.481 339.96 305.216 339.353Z" fill="#FDE047"/>
<path d="M311.589 344.346C310.79 344.132 310.159 343.82 309.432 343.339L303.023 338.479C300.413 336.495 299.876 332.636 301.861 330.026C303.846 327.415 307.702 326.877 310.312 328.862L316.721 333.722C319.331 335.707 319.868 339.565 317.883 342.175C316.379 344.058 313.854 344.953 311.589 344.346Z" fill="#FEF9C3"/>
<path d="M327.873 346.995C325.208 346.281 323.177 343.737 323.394 340.795C323.585 337.418 326.538 334.923 329.745 335.211L337.732 335.78C341.108 335.97 343.601 338.924 343.312 342.132C343.121 345.51 340.168 348.004 336.961 347.716L328.974 347.147C328.672 347.209 328.272 347.102 327.873 346.995Z" fill="#FDE047"/>
<path d="M335.993 347.599C333.328 346.885 331.297 344.341 331.514 341.399C331.705 338.022 334.658 335.528 337.865 335.816L345.852 336.384C349.228 336.575 351.721 339.528 351.433 342.737C351.242 346.114 348.288 348.608 345.081 348.32L337.094 347.752C336.659 347.778 336.259 347.671 335.993 347.599Z" fill="#FEF9C3"/>
<path d="M351.965 281.596C349.034 280.811 347.109 277.867 347.664 274.73L349.069 266.821C349.66 263.551 352.808 261.394 356.077 261.984C359.346 262.575 361.501 265.723 360.911 268.994L359.505 276.902C358.915 280.173 355.767 282.329 352.498 281.739C352.231 281.667 352.098 281.632 351.965 281.596Z" fill="#FDE047"/>
<path d="M350.524 289.638C347.593 288.853 345.668 285.909 346.223 282.772L347.629 274.863C348.219 271.593 351.367 269.436 354.636 270.027C357.905 270.617 360.06 273.766 359.47 277.036L358.064 284.945C357.474 288.215 354.326 290.371 351.057 289.781C350.79 289.71 350.657 289.674 350.524 289.638Z" fill="#FEF9C3"/>
<path d="M370.687 280.47L299.142 261.3L281.857 325.808L353.402 344.979L370.687 280.47Z" fill="white"/>
<path d="M420.672 207.438L414.779 229.43C413.494 234.228 408.594 237.058 403.798 235.772L329.322 215.817C324.525 214.531 321.697 209.631 322.983 204.833L328.876 182.841C330.295 178.079 335.194 175.249 339.857 176.498L414.333 196.454C419.13 197.739 421.958 202.64 420.672 207.438Z" fill="#E3E4E3"/>
<path d="M402.286 202.511L396.393 224.503C395.108 229.301 390.208 232.131 385.412 230.846L329.322 215.817C324.525 214.531 321.697 209.631 322.983 204.833L328.876 182.841C330.295 178.079 335.194 175.249 339.857 176.498L395.947 191.528C400.744 192.813 403.572 197.713 402.286 202.511Z" fill="white"/>
<path d="M332.542 260.821C330.81 260.357 329.292 259.093 328.486 257.306L325.333 249.889C324.013 246.821 325.546 243.232 328.577 242.045C331.644 240.724 335.232 242.256 336.418 245.289L339.572 252.705C340.892 255.773 339.359 259.362 336.328 260.549C335.047 261.064 333.741 261.142 332.542 260.821Z" fill="#FDE047"/>
<path d="M335.562 268.201C333.83 267.737 332.313 266.473 331.506 264.686L328.353 257.27C327.033 254.202 328.566 250.613 331.597 249.425C334.664 248.104 338.252 249.637 339.439 252.669L342.592 260.085C343.912 263.153 342.379 266.742 339.348 267.93C338.165 268.613 336.895 268.558 335.562 268.201Z" fill="#FEF9C3"/>
<path d="M379.195 270.036C378.928 269.964 378.662 269.893 378.395 269.821L370.954 266.685C367.863 265.428 366.384 261.889 367.774 258.833C369.031 255.741 372.569 254.261 375.624 255.651L383.066 258.788C386.156 260.044 387.635 263.583 386.245 266.639C385.096 269.331 381.993 270.785 379.195 270.036Z" fill="#FDE047"/>
<path d="M386.637 273.172C386.37 273.101 386.104 273.03 385.837 272.958L378.395 269.821C375.305 268.565 373.826 265.026 375.216 261.97C376.473 258.878 380.011 257.398 383.066 258.787L390.507 261.924C393.598 263.181 395.077 266.72 393.687 269.776C392.537 272.468 389.434 273.922 386.637 273.172Z" fill="#FEF9C3"/>
<path d="M71.5786 465.844C71.8832 464.707 72.4274 463.431 73.1097 462.395L87.4793 438.219C91.4855 431.575 99.9147 429.568 106.392 433.335C113.008 437.342 114.993 445.794 111.226 452.299L96.8564 476.476C92.8502 483.12 84.421 485.126 77.9433 481.359C72.3589 478.035 70.0046 471.718 71.5786 465.844Z" fill="white"/>
<path d="M85.9482 441.667C86.2529 440.53 86.7971 439.254 87.4793 438.219L101.9 413.853C105.906 407.209 114.335 405.202 120.813 408.969C127.428 412.976 129.413 421.428 125.646 427.933L111.277 452.11C107.271 458.754 98.8414 460.76 92.3637 456.993C86.9173 453.909 84.3743 447.541 85.9482 441.667Z" fill="#FACC15"/>
<path d="M323.787 486.267C324.445 487.173 325.367 488.117 326.334 488.799L347.492 505.257C353.359 509.76 361.685 508.555 366.304 502.894C370.967 496.969 369.933 488.725 364.331 484.261L343.172 467.802C337.306 463.3 328.979 464.505 324.361 470.166C320.405 475.115 320.387 481.587 323.787 486.267Z" fill="white"/>
<path d="M344.945 502.726C345.603 503.631 346.525 504.576 347.492 505.257L368.76 521.867C374.627 526.37 382.954 525.164 387.572 519.503C392.235 513.579 391.201 505.335 385.599 500.871L364.441 484.412C358.574 479.909 350.247 481.115 345.629 486.776C341.718 491.462 341.545 498.045 344.945 502.726Z" fill="#FACC15"/>
<path d="M308.591 102.244L270.42 139.042C260.259 128.332 260.534 111.581 271.244 101.42C281.954 91.2593 298.43 91.5339 308.591 102.244Z" fill="white"/>
<path d="M308.042 139.591C297.332 149.752 280.581 149.477 270.42 138.767L308.591 102.244C318.752 112.679 318.477 129.705 308.042 139.591Z" fill="white"/>
<path d="M270.42 140.689C269.871 140.689 269.322 140.415 269.047 140.14C268.223 139.316 268.223 138.218 269.047 137.394L307.493 100.596C308.317 99.7723 309.415 99.7723 310.239 100.596C311.063 101.42 311.063 102.518 310.239 103.342L271.793 140.14C271.244 140.689 270.969 140.689 270.42 140.689Z" fill="#FACC15"/>
</g>
<defs>
<clipPath id="clip0_112_2232">
<path d="M0 0H375V443.2C375 470.083 375 483.524 369.768 493.792C365.166 502.823 357.823 510.166 348.792 514.768C338.524 520 325.083 520 298.2 520H76.8C49.9175 520 36.4762 520 26.2085 514.768C17.1767 510.166 9.83361 502.823 5.23169 493.792C0 483.524 0 470.083 0 443.2V0Z" fill="white"/>
</clipPath>
</defs>
</svg>
