<svg width="343" height="232" viewBox="0 0 343 232" fill="none" xmlns="http://www.w3.org/2000/svg">
<path fill-rule="evenodd" clip-rule="evenodd" d="M112 192.8C113.8 192.8 115.3 194.3 115.3 196.1V203.3C115.3 205.1 113.8 206.6 112 206.6C110.2 206.6 108.7 205.1 108.7 203.3V196.1C108.7 194.2 110.1 192.8 112 192.8Z" fill="#48524B"/>
<path fill-rule="evenodd" clip-rule="evenodd" d="M112 178.7C114.8 178.7 117.1 181 117.1 183.8V194.9C117.1 197.7 114.8 200 112 200C109.2 200 106.9 197.7 106.9 194.9V183.8C106.9 181 109.2 178.7 112 178.7Z" fill="#48524B"/>
<path fill-rule="evenodd" clip-rule="evenodd" d="M103.4 212.3C108.8 212.3 113.2 207.9 113.2 202.5C113.2 197.1 108.8 192.7 103.4 192.7C98.0001 192.7 93.6001 197.1 93.6001 202.5C93.6001 207.9 98.0001 212.3 103.4 212.3Z" fill="#48524B"/>
<path fill-rule="evenodd" clip-rule="evenodd" d="M103.4 206.9C105.8 206.9 107.8 204.9 107.8 202.5C107.8 200.1 105.8 198.1 103.4 198.1C101 198.1 99 200.1 99 202.5C99 204.9 101 206.9 103.4 206.9Z" fill="#647067"/>
<path fill-rule="evenodd" clip-rule="evenodd" d="M281.7 169.6C288.1 169.6 293.2 164.4 293.2 158.1C293.2 151.7 288 146.6 281.7 146.6C275.3 146.6 270.2 151.8 270.2 158.1C270.1 164.4 275.3 169.6 281.7 169.6Z" fill="#647067"/>
<path fill-rule="evenodd" clip-rule="evenodd" d="M284.5 72V157.6C284.5 159.1 283.2 160.4 281.7 160.4C280.2 160.4 278.9 159.1 278.9 157.6V72C278.9 70.5 280.2 69.2 281.7 69.2C283.2 69.2 284.5 70.5 284.5 72Z" fill="#647067"/>
<path fill-rule="evenodd" clip-rule="evenodd" d="M216.7 103.1L247.7 101.4C253.8 101.1 258.9 105.7 259.2 111.8C259.4 117.9 254.7 123.1 248.6 123.4L217.6 125.1C211.5 125.4 206.4 120.8 206.1 114.7C205.9 108.7 210.7 103.5 216.7 103.1Z" fill="#FB7185"/>
<path fill-rule="evenodd" clip-rule="evenodd" d="M67.0001 100.1H71.7001C78.7001 100.1 84.4001 105.8 84.4001 112.8C84.4001 119.8 78.7001 125.5 71.7001 125.5H67.0001C60.0001 125.5 54.3001 119.8 54.3001 112.8C54.2001 105.9 60.0001 100.1 67.0001 100.1Z" fill="#48524B"/>
<path fill-rule="evenodd" clip-rule="evenodd" d="M39.3999 16.6C40.1999 16.6 40.8999 17.3 40.8999 18.1V117.9C40.8999 118.7 40.1999 119.4 39.3999 119.4C38.5999 119.4 37.8999 118.7 37.8999 117.9V18.1C37.8999 17.3 38.5999 16.6 39.3999 16.6Z" fill="white"/>
<path fill-rule="evenodd" clip-rule="evenodd" d="M39.4001 57.1C40.9001 57.1 42.2001 58.4 42.2001 59.9V157C42.2001 158.5 40.9001 159.8 39.4001 159.8C37.9001 159.8 36.6001 158.5 36.6001 157V59.9C36.6001 58.3 37.9001 57.1 39.4001 57.1Z" fill="#647067"/>
<path fill-rule="evenodd" clip-rule="evenodd" d="M27.5 14.6H51.9C52.8 14.6 53.5 15.3 53.5 16.2C53.5 17.1 52.8 17.8 51.9 17.8H27.5C26.7 17.7 26 17 26 16.1C26 15.3 26.7 14.6 27.5 14.6Z" fill="white"/>
<path fill-rule="evenodd" clip-rule="evenodd" d="M71.3002 14C71.3002 16.9 70.2002 19.6 68.1002 21.6C66.1002 23.6 63.3002 24.8 60.5002 24.8C57.6002 24.8 54.9002 23.7 52.9002 21.6C50.9002 19.6 49.7002 16.8 49.7002 14C49.7002 13.4 50.1002 13 50.7002 13H53.1002C53.7002 13 54.1002 13.4 54.1002 14C54.1002 15.7 54.8002 17.3 56.0002 18.5C57.2002 19.7 58.8002 20.4 60.5002 20.4C62.2002 20.4 63.8002 19.7 65.0002 18.5C66.2002 17.3 66.9002 15.7 66.9002 14C66.9002 13.4 67.3002 13 67.9002 13H70.3002C70.9002 13 71.3002 13.4 71.3002 14Z" fill="white"/>
<path fill-rule="evenodd" clip-rule="evenodd" d="M8 14C8 16.9 9.1 19.6 11.2 21.6C13.2 23.6 16 24.8 18.8 24.8C21.7 24.8 24.4 23.7 26.4 21.6C28.4 19.6 29.6 16.8 29.6 14C29.6 13.4 29.2 13 28.6 13H26.2C25.6 13 25.2 13.4 25.2 14C25.2 15.7 24.5 17.3 23.3 18.5C22.1 19.7 20.5 20.4 18.8 20.4C17.1 20.4 15.5 19.7 14.3 18.5C13.1 17.3 12.4 15.7 12.4 14C12.4 13.4 12 13 11.4 13H9C8.5 13 8 13.4 8 14Z" fill="white"/>
<path fill-rule="evenodd" clip-rule="evenodd" d="M39.3002 65C42.4002 65 44.9002 62.5001 44.9002 59.4001C44.9002 56.3001 42.4002 53.8 39.3002 53.8C36.2002 53.8 33.7002 56.3001 33.7002 59.4001C33.8002 62.5001 36.3002 65 39.3002 65Z" fill="white"/>
<path fill-rule="evenodd" clip-rule="evenodd" d="M39.2999 62.3C40.8999 62.3 42.1999 61 42.1999 59.4C42.1999 57.8 40.8999 56.5 39.2999 56.5C37.6999 56.5 36.3999 57.8 36.3999 59.4C36.3999 61 37.6999 62.3 39.2999 62.3Z" fill="#647067"/>
<path fill-rule="evenodd" clip-rule="evenodd" d="M53.5001 27.6H67.6001C69.4001 27.6 70.9001 29.1 70.9001 30.9V45.7C70.9001 51.4 66.2001 56.1 60.5001 56.1C54.8001 56.1 50.1001 51.4 50.1001 45.7V30.9C50.2001 29.1 51.7001 27.6 53.5001 27.6Z" fill="white"/>
<path fill-rule="evenodd" clip-rule="evenodd" d="M53.2002 41.8V45.7001C53.2002 49.7001 56.5002 53.1 60.6002 53.1C64.6002 53.1 68.0002 49.8001 68.0002 45.7001V41.8H53.2002Z" fill="#8B5CF6"/>
<path fill-rule="evenodd" clip-rule="evenodd" d="M11.3 27.6H25.4C27.2 27.6 28.7 29.1 28.7 30.9V45.7C28.7 51.4 24 56.1 18.3 56.1C12.7 56.1 8 51.4 8 45.7V30.9C8 29.1 9.5 27.6 11.3 27.6Z" fill="white"/>
<path fill-rule="evenodd" clip-rule="evenodd" d="M11 45.5V45.7C11 49.7 14.3 53.1 18.4 53.1C22.4 53.1 25.8 49.8 25.8 45.7V45.5H11Z" fill="#84CC16"/>
<path fill-rule="evenodd" clip-rule="evenodd" d="M176.5 127L210 105.4C215.1 102.1 222 103.6 225.2 108.7C228.5 113.8 227 120.7 221.9 123.9L188.4 145.5C183.3 148.8 176.4 147.3 173.2 142.2C169.9 137.1 171.4 130.3 176.5 127Z" fill="#FB7185"/>
<path fill-rule="evenodd" clip-rule="evenodd" d="M176.5 127L197.5 113.5H197.6C202.7 110.3 209.5 111.8 212.8 116.8C216.1 121.9 214.6 128.8 209.5 132L188.5 145.5H188.4C183.3 148.7 176.5 147.2 173.2 142.2C169.9 137.1 171.4 130.3 176.5 127Z" fill="#212C24"/>
<path fill-rule="evenodd" clip-rule="evenodd" d="M258.4 124C252.2 126.4 245.2 123.3 242.8 117.1C240.8 111.8 242.7 105.9 247.2 102.8C247.4 102.6 247.7 102.5 248 102.3L260.3 94.5C260.8 94.1 261.4 93.8 262.1 93.5C266 92 270.4 93.9 271.9 97.8C272.7 99.8 272.5 101.9 271.7 103.7L271.6 103.9L265.1 117.6C263.8 120.5 261.4 122.8 258.4 124Z" fill="#FB7185"/>
<path fill-rule="evenodd" clip-rule="evenodd" d="M64.5001 155.6H94.9001C97.1001 155.6 98.8001 157.4 98.8001 159.5C98.8001 161.7 97.0001 163.4 94.9001 163.4H64.5001C62.3001 163.4 60.6001 161.6 60.6001 159.5C60.6001 157.4 62.3001 155.6 64.5001 155.6Z" fill="#48524B"/>
<path fill-rule="evenodd" clip-rule="evenodd" d="M50.5998 192.8C52.3998 192.8 53.8998 194.3 53.8998 196.1V203.3C53.8998 205.1 52.3998 206.6 50.5998 206.6C48.7998 206.6 47.2998 205.1 47.2998 203.3V196.1C47.2998 194.2 48.7998 192.8 50.5998 192.8Z" fill="#48524B"/>
<path fill-rule="evenodd" clip-rule="evenodd" d="M112.7 165.2L209 191C210.7 191.5 212.6 190.4 213 188.7C213.5 187 212.4 185.1 210.7 184.7L114.4 158.9C112.7 158.4 110.8 159.5 110.4 161.2C109.9 162.9 110.9 164.7 112.7 165.2Z" fill="#48524B"/>
<path fill-rule="evenodd" clip-rule="evenodd" d="M313.6 165.2L217.3 191C215.6 191.5 213.7 190.4 213.3 188.7C212.8 187 213.9 185.1 215.6 184.7L311.9 158.9C313.6 158.4 315.5 159.5 315.9 161.2C316.4 162.9 315.4 164.7 313.6 165.2Z" fill="#48524B"/>
<path fill-rule="evenodd" clip-rule="evenodd" d="M112.7 184.6L209 158.8C210.7 158.3 212.6 159.4 213 161.1C213.5 162.8 212.4 164.7 210.7 165.1L114.4 191C112.7 191.5 110.8 190.4 110.4 188.7C109.9 186.9 110.9 185.1 112.7 184.6Z" fill="#48524B"/>
<path fill-rule="evenodd" clip-rule="evenodd" d="M313.6 184.6L217.3 158.8C215.6 158.3 213.7 159.4 213.3 161.1C212.8 162.8 213.9 164.7 215.6 165.1L311.9 190.9C313.6 191.4 315.5 190.3 315.9 188.6C316.4 186.9 315.4 185.1 313.6 184.6Z" fill="#48524B"/>
<path fill-rule="evenodd" clip-rule="evenodd" d="M213 197.7C218 197.7 222 193.6 222 188.7C222 183.7 217.9 179.7 213 179.7C208 179.7 204 183.8 204 188.7C204 193.6 208.1 197.7 213 197.7Z" fill="#48524B"/>
<path fill-rule="evenodd" clip-rule="evenodd" d="M213 192.2C214.9 192.2 216.5 190.6 216.5 188.7C216.5 186.8 214.9 185.2 213 185.2C211.1 185.2 209.5 186.8 209.5 188.7C209.5 190.6 211.1 192.2 213 192.2Z" fill="#313A34"/>
<path fill-rule="evenodd" clip-rule="evenodd" d="M62.0001 159.7H316C320.6 159.7 324.4 163.5 324.4 168.1C324.4 172.7 320.6 176.5 316 176.5H62.0001C57.4001 176.5 53.6001 172.7 53.6001 168.1C53.7001 163.4 57.4001 159.7 62.0001 159.7Z" fill="#48524B"/>
<path fill-rule="evenodd" clip-rule="evenodd" d="M50.2001 165.2L146.5 191C148.2 191.5 150.1 190.4 150.5 188.7C151 187 149.9 185.1 148.2 184.7L51.9001 158.9C50.2001 158.4 48.3001 159.5 47.9001 161.2C47.4001 162.9 48.5001 164.7 50.2001 165.2Z" fill="#647067"/>
<path fill-rule="evenodd" clip-rule="evenodd" d="M251.2 165.2L154.8 191C153.1 191.5 151.2 190.4 150.8 188.7C150.3 187 151.4 185.1 153.1 184.7L249.4 158.9C251.1 158.4 253 159.5 253.4 161.2C254 162.9 252.9 164.7 251.2 165.2Z" fill="#647067"/>
<path fill-rule="evenodd" clip-rule="evenodd" d="M50.2001 184.6L146.5 158.8C148.2 158.3 150.1 159.4 150.5 161.1C151 162.8 149.9 164.7 148.2 165.1L51.9001 191C50.2001 191.5 48.3001 190.4 47.9001 188.7C47.4001 186.9 48.5001 185.1 50.2001 184.6Z" fill="#647067"/>
<path fill-rule="evenodd" clip-rule="evenodd" d="M251.2 184.6L154.9 158.8C153.2 158.3 151.3 159.4 150.9 161.1C150.4 162.8 151.5 164.7 153.2 165.1L249.5 190.9C251.2 191.4 253.1 190.3 253.5 188.6C254 186.9 252.9 185.1 251.2 184.6Z" fill="#647067"/>
<path fill-rule="evenodd" clip-rule="evenodd" d="M150.6 197.7C155.6 197.7 159.6 193.6 159.6 188.7C159.6 183.7 155.5 179.7 150.6 179.7C145.6 179.7 141.6 183.8 141.6 188.7C141.5 193.6 145.6 197.7 150.6 197.7Z" fill="#647067"/>
<path fill-rule="evenodd" clip-rule="evenodd" d="M150.6 192.2C152.5 192.2 154.1 190.6 154.1 188.7C154.1 186.8 152.5 185.2 150.6 185.2C148.7 185.2 147.1 186.8 147.1 188.7C147.1 190.6 148.6 192.2 150.6 192.2Z" fill="#48524B"/>
<path fill-rule="evenodd" clip-rule="evenodd" d="M45.1998 161.5H252C254.4 161.5 256.4 163.5 256.4 165.9C256.4 168.3 254.4 170.3 252 170.3H45.1998C42.7998 170.3 40.7998 168.3 40.7998 165.9C40.7998 163.5 42.7998 161.5 45.1998 161.5Z" fill="#48524B"/>
<path fill-rule="evenodd" clip-rule="evenodd" d="M108.4 153.1H329.6C333.1 153.1 336 156 336 159.5C336 163 333.1 165.9 329.6 165.9H108.4C104.9 165.9 102 163 102 159.5C102 156 104.9 153.1 108.4 153.1Z" fill="white"/>
<path fill-rule="evenodd" clip-rule="evenodd" d="M29.1002 153.1H250.3C253.8 153.1 256.7 156 256.7 159.5C256.7 163 253.8 165.9 250.3 165.9H29.1002C25.6002 165.9 22.7002 163 22.7002 159.5C22.7002 156 25.5002 153.1 29.1002 153.1Z" fill="#E3E4E3"/>
<path fill-rule="evenodd" clip-rule="evenodd" d="M50.6 178.7C53.4 178.7 55.7 181 55.7 183.8V194.9C55.7 197.7 53.4 200 50.6 200C47.8 200 45.5 197.7 45.5 194.9V183.8C45.5 181 47.8 178.7 50.6 178.7Z" fill="#647067"/>
<path fill-rule="evenodd" clip-rule="evenodd" d="M59.8 212.3C65.2 212.3 69.6 207.9 69.6 202.5C69.6 197.1 65.2 192.7 59.8 192.7C54.4 192.7 50 197.1 50 202.5C50 207.9 54.4 212.3 59.8 212.3Z" fill="#48524B"/>
<path fill-rule="evenodd" clip-rule="evenodd" d="M59.7999 206.9C62.1999 206.9 64.1999 204.9 64.1999 202.5C64.1999 200.1 62.1999 198.1 59.7999 198.1C57.3999 198.1 55.3999 200.1 55.3999 202.5C55.3999 204.9 57.3999 206.9 59.7999 206.9Z" fill="#647067"/>
<path fill-rule="evenodd" clip-rule="evenodd" d="M252.9 192.8C254.7 192.8 256.2 194.3 256.2 196.1V203.3C256.2 205.1 254.7 206.6 252.9 206.6C251.1 206.6 249.6 205.1 249.6 203.3V196.1C249.7 194.2 251.1 192.8 252.9 192.8Z" fill="#48524B"/>
<path fill-rule="evenodd" clip-rule="evenodd" d="M252.9 178.7C255.7 178.7 258 181 258 183.8V194.9C258 197.7 255.7 200 252.9 200C250.1 200 247.8 197.7 247.8 194.9V183.8C247.9 181 250.1 178.7 252.9 178.7Z" fill="#647067"/>
<path fill-rule="evenodd" clip-rule="evenodd" d="M262.1 212.3C267.5 212.3 271.9 207.9 271.9 202.5C271.9 197.1 267.5 192.7 262.1 192.7C256.7 192.7 252.3 197.1 252.3 202.5C252.3 207.9 256.7 212.3 262.1 212.3Z" fill="#48524B"/>
<path fill-rule="evenodd" clip-rule="evenodd" d="M262.1 206.9C264.5 206.9 266.5 204.9 266.5 202.5C266.5 200.1 264.5 198.1 262.1 198.1C259.7 198.1 257.7 200.1 257.7 202.5C257.8 204.9 259.7 206.9 262.1 206.9Z" fill="#647067"/>
<path fill-rule="evenodd" clip-rule="evenodd" d="M315.3 192.8C313.5 192.8 312 194.3 312 196.1V203.3C312 205.1 313.5 206.6 315.3 206.6C317.1 206.6 318.6 205.1 318.6 203.3V196.1C318.6 194.2 317.1 192.8 315.3 192.8Z" fill="#48524B"/>
<path fill-rule="evenodd" clip-rule="evenodd" d="M315.3 178.7C312.5 178.7 310.2 181 310.2 183.8V194.9C310.2 197.7 312.5 200 315.3 200C318.1 200 320.4 197.7 320.4 194.9V183.8C320.4 181 318.1 178.7 315.3 178.7Z" fill="#48524B"/>
<path fill-rule="evenodd" clip-rule="evenodd" d="M306.1 212.3C311.5 212.3 315.9 207.9 315.9 202.5C315.9 197.1 311.5 192.7 306.1 192.7C300.7 192.7 296.3 197.1 296.3 202.5C296.3 207.9 300.7 212.3 306.1 212.3Z" fill="#48524B"/>
<path fill-rule="evenodd" clip-rule="evenodd" d="M306.1 206.9C308.5 206.9 310.5 204.9 310.5 202.5C310.5 200.1 308.5 198.1 306.1 198.1C303.7 198.1 301.7 200.1 301.7 202.5C301.7 204.9 303.7 206.9 306.1 206.9Z" fill="#647067"/>
<path fill-rule="evenodd" clip-rule="evenodd" d="M99.7002 136.5C107.9 136.5 115.1 142.2 117 150.2C117.2 150.9 117 151.6 116.6 152.2C116.1 152.8 115.5 153.1 114.7 153.1H99.7002H84.7002H49.7002V136.5H99.7002Z" fill="#C5C8C6"/>
<path fill-rule="evenodd" clip-rule="evenodd" d="M49.7002 136.5C57.9002 136.5 65.1002 142.2 67.0002 150.2C67.2002 150.9 67.0002 151.6 66.5002 152.2C66.0002 152.8 65.4002 153.1 64.6002 153.1H34.6002C33.8002 153.1 33.2002 152.8 32.7002 152.2C32.2002 151.6 32.1002 150.9 32.3002 150.2C34.3002 142.2 41.5002 136.5 49.7002 136.5Z" fill="white"/>
<path fill-rule="evenodd" clip-rule="evenodd" d="M89.4001 120.6L106.4 131.1C110.7 133.8 112.1 139.5 109.4 143.8C106.7 148.1 101 149.5 96.7001 146.8L79.7001 136.3C75.4001 133.6 74.0001 127.9 76.7001 123.6C79.3001 119.3 85.0001 117.9 89.4001 120.6Z" fill="#FB7185"/>
<path fill-rule="evenodd" clip-rule="evenodd" d="M58.3001 94.1H65.2001C72.2001 94.1 77.9001 99.8 77.9001 106.8C77.9001 113.8 72.2001 119.5 65.2001 119.5H58.3001C51.3001 119.5 45.6001 113.8 45.6001 106.8C45.6001 99.9 51.3001 94.1 58.3001 94.1Z" fill="#48524B"/>
<path fill-rule="evenodd" clip-rule="evenodd" d="M69.5999 110.8H88.2999C95.5999 110.8 101.5 116.8 101.5 124C101.5 131.3 95.4999 137.2 88.2999 137.2H69.5999C62.2999 137.2 56.3999 131.2 56.3999 124C56.3999 116.7 62.2999 110.8 69.5999 110.8Z" fill="#FDA4B0"/>
<path fill-rule="evenodd" clip-rule="evenodd" d="M94.8999 135.5C92.9999 136.6 90.7999 137.2 88.3999 137.2H69.5999C62.3999 137.2 56.3999 131.3 56.3999 124.1C58.2999 123 60.4999 122.4 62.8999 122.4H81.5999C88.8999 122.4 94.7999 128.3 94.8999 135.5Z" fill="#FB7185"/>
<path fill-rule="evenodd" clip-rule="evenodd" d="M63.8998 104.7C72.1998 104.7 78.9998 111.5 78.9998 119.8V122.2C78.9998 130.5 72.1998 137.3 63.8998 137.3C55.5998 137.3 48.7998 130.5 48.7998 122.2V119.8C48.8998 111.5 55.5998 104.7 63.8998 104.7Z" fill="#48524B"/>
<path fill-rule="evenodd" clip-rule="evenodd" d="M76.5 118H78.1C80.6 118 82.6 120 82.6 122.5C82.6 125 80.6 127 78.1 127H76.5C74 127 72 125 72 122.5C72 120 74.1 118 76.5 118Z" fill="#FDA4B0"/>
<path fill-rule="evenodd" clip-rule="evenodd" d="M70.2998 127H76.6998C79.9998 127 82.6998 129.7 82.6998 133C82.6998 136.3 79.9998 139 76.6998 139H70.2998C66.9998 139 64.2998 136.3 64.2998 133C64.2998 129.7 66.9998 127 70.2998 127Z" fill="#48524B"/>
<path fill-rule="evenodd" clip-rule="evenodd" d="M109 120.3H164.3C173.3 120.3 180.7 127.7 180.7 136.7C180.7 145.7 173.3 153.1 164.3 153.1H109C100 153.1 92.6001 145.7 92.6001 136.7C92.6001 127.7 100 120.3 109 120.3Z" fill="#F43F5E"/>
<path fill-rule="evenodd" clip-rule="evenodd" d="M126.8 110.8H129.3C134.5 110.8 138.8 115.1 138.8 120.3C138.8 125.5 134.5 129.8 129.3 129.8H126.8C121.6 129.8 117.3 125.5 117.3 120.3C117.3 115.1 121.6 110.8 126.8 110.8Z" fill="#FDA4B0"/>
<path fill-rule="evenodd" clip-rule="evenodd" d="M171.9 120.3H175.7C184.7 120.3 192.1 127.7 192.1 136.7C192.1 145.7 184.7 153.1 175.7 153.1H171.9C162.9 153.1 155.5 145.7 155.5 136.7C155.5 127.7 162.9 120.3 171.9 120.3Z" fill="#313A34"/>
<path fill-rule="evenodd" clip-rule="evenodd" d="M101.8 134.7H144.1C149.2 134.7 153.3 138.9 153.3 143.9C153.3 149 149.1 153.1 144.1 153.1H101.8C96.7001 153.1 92.6001 148.9 92.6001 143.9C92.6001 138.8 96.7001 134.7 101.8 134.7Z" fill="#FDA4B0"/>
<path fill-rule="evenodd" clip-rule="evenodd" d="M116.3 134.7H139C133.9 134.7 129.8 138.9 129.8 143.9C129.8 149 134 153.1 139 153.1H116.3C111.2 153.1 107.1 148.9 107.1 143.9C107.1 138.8 111.2 134.7 116.3 134.7Z" fill="white"/>
<path fill-rule="evenodd" clip-rule="evenodd" d="M150.3 129.4H153.4C159.9 129.4 165.3 134.7 165.3 141.3C165.3 147.8 160 153.2 153.4 153.2H150.3C143.8 153.2 138.4 147.9 138.4 141.3C138.4 134.8 143.7 129.4 150.3 129.4Z" fill="#FDA4B0"/>
<path fill-rule="evenodd" clip-rule="evenodd" d="M178.6 131.1H218.5C224.6 131.1 229.5 136.1 229.5 142.1C229.5 148.2 224.5 153.1 218.5 153.1H178.6C172.5 153.1 167.6 148.1 167.6 142.1C167.6 136 172.6 131.1 178.6 131.1Z" fill="#313A34"/>
<path fill-rule="evenodd" clip-rule="evenodd" d="M223.1 131.1H253.4C259.5 131.1 264.4 136.1 264.4 142.1C264.4 148.2 259.4 153.1 253.4 153.1H223.1C217 153.1 212.1 148.1 212.1 142.1C212.1 136 217.1 131.1 223.1 131.1Z" fill="#FDA4B0"/>
<path fill-rule="evenodd" clip-rule="evenodd" d="M259 152.4C252.8 154.9 245.8 151.8 243.3 145.6C241.2 140.3 243.1 134.4 247.6 131.3C247.8 131.1 248.1 131 248.4 130.8L260.7 122.9C261.2 122.5 261.8 122.2 262.5 121.9C266.4 120.4 270.8 122.3 272.3 126.1C273.1 128.1 273 130.2 272.2 132L272.1 132.2L265.7 146C264.3 148.8 262 151.2 259 152.4Z" fill="#FDA4B0"/>
<path fill-rule="evenodd" clip-rule="evenodd" d="M48.7999 68.4H50.3999C51.6999 68.4 52.7999 69.5 52.7999 70.8V82.5C52.7999 83.8 51.6999 84.9 50.3999 84.9H48.7999C47.4999 84.9 46.3999 83.8 46.3999 82.5V70.8C46.3999 69.5 47.4999 68.4 48.7999 68.4Z" fill="white"/>
<path fill-rule="evenodd" clip-rule="evenodd" d="M62.1001 54.1V56.3C62.1001 59.1 61.0001 61.6 59.1001 63.4C57.3001 65.2 54.7001 66.4 52.0001 66.4H27.2001C24.4001 66.4 21.9001 65.3 20.1001 63.4C18.3001 61.6 17.1001 59.1 17.1001 56.3V54.1H19.5001V56.3C19.5001 58.4 20.4001 60.4 21.8001 61.7C23.2001 63.1 25.1001 64 27.2001 64H52.0001C54.1001 64 56.1001 63.1 57.4001 61.7C58.8001 60.3 59.7001 58.4 59.7001 56.2V54H62.1001V54.1Z" fill="white"/>
<path fill-rule="evenodd" clip-rule="evenodd" d="M118.4 134.7H127.1C122 134.7 117.9 138.9 117.9 143.9C117.9 149 122.1 153.1 127.1 153.1H118.4C113.3 153.1 109.2 148.9 109.2 143.9C109.2 138.8 113.3 134.7 118.4 134.7Z" fill="#BFDBFE"/>
<path fill-rule="evenodd" clip-rule="evenodd" d="M115.8 140V146.3C115.8 155.5 112 163.9 105.9 170C99.8001 176.1 91.4001 179.9 82.2001 179.9C73.0001 179.9 64.6001 176.1 58.5001 170C52.4001 163.9 48.6001 155.5 48.6001 146.3V65.3H51.0001V146.3C51.0001 154.9 54.5001 162.7 60.2001 168.4C65.9001 174.1 73.7001 177.6 82.3001 177.6C90.9001 177.6 98.7001 174.1 104.4 168.4C110.1 162.7 113.6 154.9 113.6 146.3V140H115.8Z" fill="white"/>
<path fill-rule="evenodd" clip-rule="evenodd" d="M144.9 134.9H146.3C148.1 134.9 149.5 136.3 149.5 138.1C149.5 139.9 148.1 141.3 146.3 141.3H144.9C143.1 141.3 141.7 139.9 141.7 138.1C141.7 136.3 143.1 134.9 144.9 134.9Z" fill="#FB7185"/>
<path fill-rule="evenodd" clip-rule="evenodd" d="M149.1 132H150.5C152.3 132 153.7 133.4 153.7 135.2C153.7 137 152.3 138.4 150.5 138.4H149.1C147.3 138.4 145.9 137 145.9 135.2C145.9 133.5 147.3 132 149.1 132Z" fill="#FB7185"/>
<path fill-rule="evenodd" clip-rule="evenodd" d="M158.9 120.3C158.8 121.8 157.5 123 156 123H154.7C154 123 153.3 122.7 152.8 122.3C152.3 124 150.7 125.3 148.8 125.3H147C144.7 125.3 142.8 123.4 142.8 121.1C142.8 120.9 142.8 120.6 142.9 120.4H158.9V120.3Z" fill="#FB7185"/>
<path fill-rule="evenodd" clip-rule="evenodd" d="M113.6 127.3H114.3C115.2 127.3 115.9 128 115.9 128.9C115.9 129.8 115.2 130.5 114.3 130.5H113.6C112.7 130.5 112 129.8 112 128.9C112 128 112.7 127.3 113.6 127.3Z" fill="#FB7185"/>
<path fill-rule="evenodd" clip-rule="evenodd" d="M106.4 131H106.8C107.3 131 107.7 131.4 107.7 131.9C107.7 132.4 107.3 132.8 106.8 132.8H106.4C105.9 132.8 105.5 132.4 105.5 131.9C105.5 131.5 105.9 131 106.4 131Z" fill="#FB7185"/>
<path fill-rule="evenodd" clip-rule="evenodd" d="M114.7 137.7C115.9 137.7 116.8 138.7 116.8 139.8V142.2C116.8 143.4 115.8 144.3 114.7 144.3C113.5 144.3 112.6 143.3 112.6 142.2V139.8C112.6 138.6 113.6 137.7 114.7 137.7Z" fill="white"/>
<path fill-rule="evenodd" clip-rule="evenodd" d="M215.9 137.4L218.4 146.9C218.5 147.2 218.4 147.6 218.2 147.8C218 148.1 217.6 148.2 217.3 148.1L180.6 141.7C180.1 141.6 179.8 141.2 179.8 140.7C179.8 140.2 180.2 139.8 180.7 139.7L214.9 136.6C215.4 136.7 215.8 137 215.9 137.4Z" fill="#FDA4B0"/>
<path fill-rule="evenodd" clip-rule="evenodd" d="M225 102.7L245.8 101.6C249.9 101.4 253.3 104.5 253.5 108.6C253.7 112.7 250.5 116.2 246.4 116.4L225.6 117.6C221.5 117.8 218.1 114.7 217.9 110.6C217.7 106.4 220.9 102.9 225 102.7Z" fill="#FDA4B0"/>
<path fill-rule="evenodd" clip-rule="evenodd" d="M224 94.4C225.8 94.4 227.3 95.9 227.3 97.7V123.8C227.3 125.6 225.8 127.1 224 127.1C222.2 127.1 220.7 125.6 220.7 123.8V97.7C220.7 95.9 222.2 94.4 224 94.4Z" fill="#E3E4E3"/>
<path fill-rule="evenodd" clip-rule="evenodd" d="M249 94.4C250.8 94.4 252.3 95.9 252.3 97.7V123.8C252.3 125.6 250.8 127.1 249 127.1C247.2 127.1 245.7 125.6 245.7 123.8V97.7C245.7 95.9 247.2 94.4 249 94.4Z" fill="#E3E4E3"/>
<path fill-rule="evenodd" clip-rule="evenodd" d="M249 94.4C250.8 94.4 252.3 95.9 252.3 97.7V107.5C252.3 109.3 250.8 110.8 249 110.8C247.2 110.8 245.7 109.3 245.7 107.5V97.7C245.7 95.9 247.2 94.4 249 94.4Z" fill="white"/>
<path fill-rule="evenodd" clip-rule="evenodd" d="M224 94.4C225.8 94.4 227.3 95.9 227.3 97.7V107.5C227.3 109.3 225.8 110.8 224 110.8C222.2 110.8 220.7 109.3 220.7 107.5V97.7C220.7 95.9 222.2 94.4 224 94.4Z" fill="white"/>
<path fill-rule="evenodd" clip-rule="evenodd" d="M224 80.3C224.8 80.3 225.5 81 225.5 81.8V98.5C225.5 99.3 224.8 100 224 100C223.2 100 222.5 99.3 222.5 98.5V81.7C222.6 80.9 223.2 80.3 224 80.3Z" fill="white"/>
<path fill-rule="evenodd" clip-rule="evenodd" d="M223.9 100.6C225.1 100.6 226 99.7 226 98.5C226 97.3 225.1 96.4 223.9 96.4C222.7 96.4 221.8 97.3 221.8 98.5C221.7 99.6 222.7 100.6 223.9 100.6Z" fill="#A2A9A4"/>
<path fill-rule="evenodd" clip-rule="evenodd" d="M249.2 80.3C250 80.3 250.7 81 250.7 81.8V98.5C250.7 99.3 250 100 249.2 100C248.4 100 247.7 99.3 247.7 98.5V81.7C247.7 80.9 248.4 80.3 249.2 80.3Z" fill="white"/>
<path fill-rule="evenodd" clip-rule="evenodd" d="M249 100.6C250.2 100.6 251.1 99.7 251.1 98.5C251.1 97.3 250.2 96.4 249 96.4C247.8 96.4 246.9 97.3 246.9 98.5C246.9 99.6 247.8 100.6 249 100.6Z" fill="#A2A9A4"/>
<path fill-rule="evenodd" clip-rule="evenodd" d="M211.7 77H297.3C298.8 77 300.1 78.3 300.1 79.8C300.1 81.3 298.8 82.6 297.3 82.6H211.7C210.2 82.6 208.9 81.3 208.9 79.8C208.9 78.3 210.1 77 211.7 77Z" fill="#647067"/>
<path fill-rule="evenodd" clip-rule="evenodd" d="M224 73.9C226.1 73.9 227.7 75.6 227.7 77.6V83.6C227.7 85.7 226 87.3 224 87.3C221.9 87.3 220.3 85.6 220.3 83.6V77.6C220.3 75.6 222 73.9 224 73.9Z" fill="white"/>
<path fill-rule="evenodd" clip-rule="evenodd" d="M249.2 73.9C251.3 73.9 252.9 75.6 252.9 77.6V83.6C252.9 85.7 251.2 87.3 249.2 87.3C247.1 87.3 245.5 85.6 245.5 83.6V77.6C245.5 75.6 247.1 73.9 249.2 73.9Z" fill="white"/>
<path fill-rule="evenodd" clip-rule="evenodd" d="M281.7 89.1C285.3 89.1 288.2 86.2 288.2 82.6C288.2 79 285.3 76.1 281.7 76.1C278.1 76.1 275.2 79 275.2 82.6C275.2 86.2 278.1 89.1 281.7 89.1Z" fill="#647067"/>
<path fill-rule="evenodd" clip-rule="evenodd" d="M281.7 85.6C283.3 85.6 284.7 84.3 284.7 82.6C284.7 81 283.4 79.6 281.7 79.6C280.1 79.6 278.7 80.9 278.7 82.6C278.7 84.3 280 85.6 281.7 85.6Z" fill="white"/>
<path fill-rule="evenodd" clip-rule="evenodd" d="M281.7 127.6C285.3 127.6 288.2 124.7 288.2 121.1C288.2 117.5 285.3 114.6 281.7 114.6C278.1 114.6 275.2 117.5 275.2 121.1C275.2 124.6 278.1 127.6 281.7 127.6Z" fill="#647067"/>
<path d="M281.7 124.1C283.357 124.1 284.7 122.757 284.7 121.1C284.7 119.443 283.357 118.1 281.7 118.1C280.043 118.1 278.7 119.443 278.7 121.1C278.7 122.757 280.043 124.1 281.7 124.1Z" fill="white"/>
<path fill-rule="evenodd" clip-rule="evenodd" d="M222.8 134.6H225.4C228.7 134.6 231.4 137.3 231.4 140.6C231.4 143.9 228.7 146.6 225.4 146.6H222.8C219.5 146.6 216.8 143.9 216.8 140.6C216.8 137.3 219.5 134.6 222.8 134.6Z" fill="#FB7185"/>
<path fill-rule="evenodd" clip-rule="evenodd" d="M230.5 133.3H231.8C233.4 133.3 234.7 134.6 234.7 136.2C234.7 137.8 233.4 139.1 231.8 139.1H230.5C228.9 139.1 227.6 137.8 227.6 136.2C227.6 134.6 228.9 133.3 230.5 133.3Z" fill="#FB7185"/>
<path fill-rule="evenodd" clip-rule="evenodd" d="M241.3 102.4H241.6L230 114.3C230 114.1 230 113.8 230 113.6C230.1 107.5 235.1 102.4 241.3 102.4Z" fill="#FB7185"/>
<path fill-rule="evenodd" clip-rule="evenodd" d="M237.4 106.8L233.7 110.6H230.4C230.8 109.2 231.5 107.9 232.3 106.8H237.4Z" fill="white"/>
</svg>
