<svg width="343" height="232" viewBox="0 0 343 232" fill="none" xmlns="http://www.w3.org/2000/svg">
<rect x="54.9247" y="5.88928" width="60.465" height="60.465" rx="20" transform="rotate(49.4221 54.9247 5.88928)" fill="#F43F5E"/>
<path fill-rule="evenodd" clip-rule="evenodd" d="M293.668 141.773L293.668 110.898L334 110.898L334 141.773C334 152.762 325.037 161.92 313.702 161.92C302.895 161.658 293.668 152.762 293.668 141.773Z" fill="#A3E635"/>
<path fill-rule="evenodd" clip-rule="evenodd" d="M293.668 80.0229L293.668 110.898L334 110.898L334 80.0229C334 69.0336 325.037 59.8758 313.702 59.8758C302.895 59.8758 293.668 69.0336 293.668 80.0229Z" fill="#84CC16"/>
<path fill-rule="evenodd" clip-rule="evenodd" d="M236.994 195.207L215.115 173.49L243.585 145.232L265.464 166.949C273.372 174.798 273.372 187.619 265.464 195.207C257.819 203.056 244.903 203.056 236.994 195.207Z" fill="#FDE047"/>
<path fill-rule="evenodd" clip-rule="evenodd" d="M193.236 151.51L215.116 173.227L243.585 144.969L221.706 123.252C213.798 115.402 201.145 115.402 193.236 123.252C185.328 131.102 185.328 143.922 193.236 151.51Z" fill="#FACC15"/>
<path fill-rule="evenodd" clip-rule="evenodd" d="M93.7518 104.877L115.631 83.1605L144.1 111.419L122.221 133.136C114.313 140.985 101.66 140.985 93.7518 133.136C85.8437 125.548 85.8437 112.727 93.7518 104.877Z" fill="#84CC16"/>
<path fill-rule="evenodd" clip-rule="evenodd" d="M137.773 61.4441L115.894 83.1611L144.364 111.419L166.243 89.7023C174.151 81.8528 174.151 69.2936 166.243 61.4441C158.335 53.5945 145.418 53.5945 137.773 61.4441Z" fill="#A3E635"/>
<path fill-rule="evenodd" clip-rule="evenodd" d="M121.43 88.9181C123.275 87.0865 126.175 87.0865 127.756 88.9181L139.355 100.431C141.2 102.262 141.2 105.14 139.355 106.71C137.51 108.542 134.61 108.542 133.029 106.71L121.43 95.1977C119.848 93.6278 119.848 90.7497 121.43 88.9181Z" fill="#65A30D"/>
<path fill-rule="evenodd" clip-rule="evenodd" d="M165.032 202.532C165.032 189.711 154.488 179.507 141.835 179.507C128.918 179.507 118.637 189.973 118.637 202.532C118.637 215.353 129.182 225.557 141.835 225.557C154.488 225.557 165.032 215.091 165.032 202.532Z" fill="#84CC16"/>
<path fill-rule="evenodd" clip-rule="evenodd" d="M138.407 214.83L138.407 189.712C138.407 187.88 139.725 186.572 141.571 186.572C143.416 186.572 144.734 187.88 144.734 189.712L144.734 214.83C144.734 216.662 143.416 217.97 141.571 217.97C139.989 218.232 138.407 216.662 138.407 214.83Z" fill="#A3E635"/>
<path fill-rule="evenodd" clip-rule="evenodd" d="M15.9199 122.694C24.8824 113.798 39.6443 113.798 48.8705 122.694C57.833 131.59 57.833 146.243 48.8705 155.4C39.9079 164.297 25.146 164.297 15.9199 155.4C6.6937 146.504 6.6937 131.852 15.9199 122.694Z" fill="#3B82F6"/>
<path fill-rule="evenodd" clip-rule="evenodd" d="M21.192 145.72L39.1172 127.928C40.4352 126.62 42.2804 126.62 43.5984 127.928C44.9165 129.236 44.9165 131.068 43.5984 132.376L25.6733 150.168C24.3553 151.476 22.5101 151.476 21.192 150.168C19.874 148.86 19.874 147.028 21.192 145.72Z" fill="#60A5FA"/>
<path fill-rule="evenodd" clip-rule="evenodd" d="M27.1281 43.7909L76.6604 47.7157C78.5114 47.8657 79.7117 49.2672 79.5754 51.1193C79.4391 52.9714 78.0481 54.1627 76.1971 54.0126L26.6646 50.088C24.8136 49.9379 23.6133 48.5364 23.7496 46.6843C23.8859 44.8323 25.2771 43.6409 27.1281 43.7909Z" fill="#FB7185"/>
<path d="M259.946 32.1641C248.931 21.2308 231.072 21.2308 220.057 32.1641C209.042 43.0974 209.042 60.8236 220.057 71.7569C231.072 82.6902 248.931 82.6902 259.946 71.7569C270.96 60.8237 270.96 43.0973 259.946 32.1641Z" fill="#8B5CF6"/>
<path fill-rule="evenodd" clip-rule="evenodd" d="M240.498 60.2567C240.498 55.547 236.544 51.6222 231.799 51.6222C227.055 51.6222 223.1 55.547 223.1 60.2567C223.1 64.9664 227.055 68.8911 231.799 68.8911C236.544 68.8911 240.498 64.9664 240.498 60.2567Z" fill="#733AED"/>
</svg>
