<svg width="375" height="520" viewBox="0 0 375 520" fill="none" xmlns="http://www.w3.org/2000/svg">
<g clip-path="url(#clip0_112_2407)">
<path d="M0 0H375V443.2C375 470.083 375 483.524 369.768 493.792C365.166 502.823 357.823 510.166 348.792 514.768C338.524 520 325.083 520 298.2 520H76.8C49.9175 520 36.4762 520 26.2085 514.768C17.1767 510.166 9.83361 502.823 5.23169 493.792C0 483.524 0 470.083 0 443.2V0Z" fill="#491D95"/>
<g opacity="0.64">
<rect width="400" height="560" rx="180" transform="matrix(-0.707107 -0.707107 -0.707107 0.707107 820.82 281.843)" fill="#5521B6"/>
</g>
<g opacity="0.64">
<rect width="300" height="420" rx="135" transform="matrix(0.501576 -0.865114 -0.865114 -0.501576 40.3477 493.195)" fill="#5521B6"/>
</g>
<g opacity="0.64">
<rect width="400" height="560" rx="180" transform="matrix(-0.842539 -0.538636 -0.538636 0.842539 471.82 -345.546)" fill="#5521B6"/>
</g>
<path d="M323.713 560.267H46.3081C39.4285 560.267 33.6584 554.615 33.6584 547.744V158.752C33.6584 151.881 39.3175 146.118 46.3081 146.118H323.713C330.592 146.118 336.251 151.77 336.251 158.752V547.633C336.251 554.615 330.592 560.267 323.713 560.267Z" fill="#733AED"/>
<path opacity="0.3" d="M323.713 560.267H71.6075L50.8577 536.994L320.384 159.417L336.252 175.486V547.633C336.252 554.615 330.592 560.267 323.713 560.267Z" fill="#733AED"/>
<path d="M320.384 159.417H86.2544V536.994H320.384V159.417Z" fill="#C4B5FD"/>
<path d="M308.622 159.417H74.4924V536.994H308.622V159.417Z" fill="#DDD6FE"/>
<path d="M296.86 159.417H62.7305V536.994H296.86V159.417Z" fill="#EDE9FE"/>
<path d="M284.987 159.417H50.8577V536.994H284.987V159.417Z" fill="white"/>
<path d="M192.223 335.516H171.806V457.755H192.223V335.516Z" fill="#733AED"/>
<path opacity="0.15" d="M269.23 508.844C260.908 508.844 254.362 513.277 254.362 523.584C254.362 524.138 254.362 524.803 254.473 525.357L244.264 525.69C236.941 525.911 230.061 523.251 224.735 518.154C219.52 513.056 216.524 506.295 216.524 498.981V446.783C216.524 424.84 198.659 406.886 176.577 406.886C154.607 406.886 136.631 424.729 136.631 446.783V481.471L136.52 495.546C136.52 523.362 113.884 546.081 85.9215 546.081C58.0701 546.081 35.3229 523.473 35.3229 495.546V381.84H82.0379C90.471 381.84 97.2396 374.969 97.2396 366.657V212.834C101.123 211.726 104.008 208.069 104.008 203.857C104.008 198.649 99.7918 194.548 94.6875 194.548C89.4723 194.548 85.3667 198.759 85.3667 203.857C85.3667 208.069 88.2517 211.726 92.1354 212.834V366.657C92.1354 372.199 87.6969 376.632 82.1488 376.632H-22.7101C-28.2582 376.632 -32.6967 372.199 -32.6967 366.657V212.834C-28.702 211.726 -25.7061 208.179 -25.7061 203.857C-25.7061 198.649 -29.9226 194.548 -35.0269 194.548C-40.2421 194.548 -44.3477 198.759 -44.3477 203.857C-44.3477 208.069 -41.5736 211.504 -37.8009 212.723V366.657C-37.8009 375.08 -30.9213 381.84 -22.5991 381.84H30.3297V495.435C30.3297 526.133 55.407 551.179 86.1434 551.179C116.88 551.179 141.957 526.133 141.957 495.435L142.068 481.36V446.672C142.068 427.611 157.603 412.095 176.688 412.095C195.774 412.095 211.308 427.611 211.308 446.672V498.87C211.308 507.625 214.748 515.826 221.073 521.922C227.398 528.017 235.72 531.231 244.375 530.898L255.36 530.566C257.579 537.326 263.017 542.091 269.341 542.091C277.664 542.091 284.432 536.772 284.432 526.576C284.543 516.27 277.553 508.844 269.23 508.844Z" fill="#6328D9"/>
<path d="M183.79 252.066H180.461V323.769H183.79V252.066Z" fill="#8B5CF6"/>
<path d="M171.806 335.516L182.125 320.555L192.334 335.516H171.806Z" fill="#8B5CF6"/>
<path d="M191.557 211.837L163.151 226.909V246.746L191.557 261.818V211.837Z" fill="#6328D9"/>
<path d="M144.509 236.772L163.151 246.746V226.909L144.509 236.772Z" fill="#733AED"/>
<path d="M241.934 416.306C254.497 416.306 264.681 406.135 264.681 393.588C264.681 381.04 254.497 370.869 241.934 370.869C229.371 370.869 219.187 381.04 219.187 393.588C219.187 406.135 229.371 416.306 241.934 416.306Z" fill="#733AED"/>
<path d="M75.4911 543.754C44.7546 543.754 19.6772 518.708 19.6772 488.01V370.204H24.8924V488.01C24.8924 515.826 47.5287 538.545 75.4911 538.545C103.342 538.545 126.09 515.937 126.09 488.01L126.201 473.935V439.247C126.201 417.304 144.065 399.351 166.147 399.351C188.117 399.351 206.093 417.193 206.093 439.247V491.445C206.093 498.759 208.978 505.631 214.304 510.618C219.63 515.715 226.51 518.375 233.834 518.154L248.702 517.599L248.924 522.808L234.056 523.362C225.29 523.695 216.967 520.481 210.754 514.386C204.429 508.29 200.989 500.089 200.989 491.334V439.136C200.989 420.075 185.454 404.559 166.369 404.559C147.283 404.559 131.749 420.075 131.749 439.136V473.824L131.638 487.899C131.305 518.819 106.227 543.754 75.4911 543.754Z" fill="#C4B5FD"/>
<path d="M275.888 515.494C275.888 524.138 269.119 531.231 260.797 531.231C252.475 531.231 245.707 524.138 245.707 515.494C245.707 506.85 252.475 499.757 260.797 499.757C269.119 499.757 275.888 506.85 275.888 515.494Z" fill="#733AED"/>
<path d="M271.45 515.494C271.45 521.589 266.789 526.465 260.908 526.465C255.138 526.465 250.367 521.478 250.367 515.494C250.367 509.398 255.027 504.522 260.908 504.522C266.678 504.522 271.45 509.398 271.45 515.494Z" fill="#8B5CF6"/>
<path d="M336.251 256.61H284.987V363.887H336.251V256.61Z" fill="#8B5CF6"/>
<path d="M320.384 307.81H284.987V343.163H320.384V307.81Z" fill="white"/>
<path d="M265.347 515.494C265.347 518.154 263.35 520.259 260.797 520.259C258.356 520.259 256.248 518.154 256.248 515.494C256.248 512.834 258.245 510.729 260.797 510.729C263.35 510.839 265.347 512.945 265.347 515.494Z" fill="#733AED"/>
<path opacity="0.3" d="M239.382 146.229H128.087V179.809H239.382V146.229Z" fill="#6328D9"/>
<path d="M203.319 236.994C203.319 250.847 197.993 262.151 191.557 262.151C185.01 262.151 179.795 250.847 179.795 236.994C179.795 223.141 185.121 211.837 191.557 211.837C198.104 211.837 203.319 223.141 203.319 236.994Z" fill="#5521B6"/>
<path d="M351.453 282.431H271.672V292.738H351.453V282.431Z" fill="#C4B5FD"/>
<path d="M256.359 388.822H226.954V398.242H256.359V388.822Z" fill="white"/>
<path d="M236.907 378.871V408.239H246.339V378.871H236.907Z" fill="white"/>
<path d="M71.6076 374.526H-33.2514C-41.6845 374.526 -48.4531 367.655 -48.4531 359.343V196.543H-43.2379V359.232C-43.2379 364.773 -38.7994 369.206 -33.2514 369.206H71.6076C77.1557 369.206 81.5942 364.773 81.5942 359.232V196.543H86.8094V359.232C86.8094 367.655 80.0407 374.526 71.6076 374.526Z" fill="#C4B5FD"/>
<path d="M93.5779 196.543C93.5779 201.752 89.3613 205.852 84.2571 205.852C79.0419 205.852 74.9363 201.641 74.9363 196.543C74.9363 191.334 79.1528 187.234 84.2571 187.234C89.3613 187.123 93.5779 191.334 93.5779 196.543Z" fill="#8B5CF6"/>
<path d="M190.67 121.737C190.67 121.515 190.67 121.183 190.67 120.961C190.78 112.649 184.012 106 175.801 106C167.589 106 160.821 112.649 160.821 120.961C160.821 121.183 160.821 121.515 160.821 121.737H120.875V179.698H232.169V121.737H190.67ZM175.801 125.394C173.359 125.394 171.362 123.399 171.362 120.961C171.362 118.523 173.359 116.528 175.801 116.528C178.242 116.528 180.239 118.523 180.239 120.961C180.239 123.399 178.242 125.394 175.801 125.394Z" fill="#8B5CF6"/>
<path d="M306.514 317.452C306.514 320.333 304.183 322.55 301.298 322.55C298.413 322.55 296.083 320.222 296.083 317.452C296.083 314.57 298.413 312.243 301.298 312.243C304.183 312.354 306.514 314.681 306.514 317.452Z" fill="#8B5CF6"/>
<path d="M313.837 328.645H289.314C288.871 328.645 288.427 328.201 288.427 327.758C288.427 327.315 288.871 326.872 289.314 326.872H313.837C314.281 326.872 314.725 327.315 314.725 327.758C314.725 328.201 314.392 328.645 313.837 328.645Z" fill="#8B5CF6"/>
<path d="M313.837 335.073H289.314C288.871 335.073 288.427 334.629 288.427 334.186C288.427 333.743 288.871 333.3 289.314 333.3H313.837C314.281 333.3 314.725 333.743 314.725 334.186C314.725 334.629 314.392 335.073 313.837 335.073Z" fill="#8B5CF6"/>
<path d="M264.681 196.1H226.954V254.836H264.681V196.1Z" fill="#EDE9FE"/>
<path d="M184.678 203.525H115.992C114.328 203.525 113.107 202.195 113.107 200.643C113.107 198.981 114.439 197.762 115.992 197.762H184.678C186.342 197.762 187.563 199.092 187.563 200.643C187.563 202.195 186.231 203.525 184.678 203.525Z" fill="#EDE9FE"/>
<path d="M154.718 219.262H115.992C114.328 219.262 113.107 217.932 113.107 216.38C113.107 214.718 114.439 213.499 115.992 213.499H154.718C156.382 213.499 157.603 214.829 157.603 216.38C157.714 217.932 156.382 219.262 154.718 219.262Z" fill="#EDE9FE"/>
<path d="M133.413 235.775H116.103C114.439 235.775 113.218 234.445 113.218 232.893C113.218 231.231 114.55 230.012 116.103 230.012H133.413C135.078 230.012 136.298 231.342 136.298 232.893C136.298 234.445 134.967 235.775 133.413 235.775Z" fill="#EDE9FE"/>
<path d="M160.266 277.666H115.992C114.328 277.666 113.107 276.336 113.107 274.785C113.107 273.122 114.439 271.903 115.992 271.903H160.266C161.93 271.903 163.151 273.233 163.151 274.785C163.151 276.336 161.819 277.666 160.266 277.666Z" fill="#EDE9FE"/>
<path d="M160.266 294.622H115.992C114.328 294.622 113.107 293.292 113.107 291.741C113.107 290.078 114.439 288.859 115.992 288.859H160.266C161.93 288.859 163.151 290.189 163.151 291.741C163.151 293.292 161.819 294.622 160.266 294.622Z" fill="#EDE9FE"/>
<path d="M160.266 312.576H115.992C114.328 312.576 113.107 311.246 113.107 309.694C113.107 308.032 114.439 306.813 115.992 306.813H160.266C161.93 306.813 163.151 308.143 163.151 309.694C163.151 311.246 161.819 312.576 160.266 312.576Z" fill="#EDE9FE"/>
<path d="M253.585 277.666H204.762C203.097 277.666 201.877 276.336 201.877 274.785C201.877 273.122 203.208 271.903 204.762 271.903H253.585C255.249 271.903 256.47 273.233 256.47 274.785C256.47 276.336 255.138 277.666 253.585 277.666Z" fill="#EDE9FE"/>
<path d="M253.585 294.622H204.762C203.097 294.622 201.877 293.292 201.877 291.741C201.877 290.078 203.208 288.859 204.762 288.859H253.585C255.249 288.859 256.47 290.189 256.47 291.741C256.47 293.292 255.138 294.622 253.585 294.622Z" fill="#EDE9FE"/>
<path d="M238.716 312.576H204.762C203.097 312.576 201.877 311.246 201.877 309.694C201.877 308.032 203.208 306.813 204.762 306.813H238.716C240.38 306.813 241.601 308.143 241.601 309.694C241.601 311.246 240.38 312.576 238.716 312.576Z" fill="#EDE9FE"/>
<path d="M160.266 330.529H115.992C114.328 330.529 113.107 329.199 113.107 327.648C113.107 325.985 114.439 324.766 115.992 324.766H160.266C161.93 324.766 163.151 326.096 163.151 327.648C163.151 329.31 161.819 330.529 160.266 330.529Z" fill="#EDE9FE"/>
<path d="M122.206 394.142H69.9431C68.2787 394.142 67.0581 392.812 67.0581 391.26C67.0581 389.598 68.3897 388.379 69.9431 388.379H122.206C123.871 388.379 125.091 389.709 125.091 391.26C125.091 392.812 123.76 394.142 122.206 394.142Z" fill="#EDE9FE"/>
<path d="M122.206 412.095H69.9431C68.2787 412.095 67.0581 410.765 67.0581 409.214C67.0581 407.552 68.3897 406.333 69.9431 406.333H122.206C123.871 406.333 125.091 407.662 125.091 409.214C125.091 410.765 123.76 412.095 122.206 412.095Z" fill="#EDE9FE"/>
<path d="M105.784 430.159H69.9431C68.2787 430.159 67.0581 428.829 67.0581 427.278C67.0581 425.616 68.3897 424.396 69.9431 424.396H105.784C107.448 424.396 108.669 425.726 108.669 427.278C108.669 428.829 107.337 430.159 105.784 430.159Z" fill="#EDE9FE"/>
<path d="M94.6876 465.18H65.0608V604.264H94.6876V465.18Z" fill="#8B5CF6"/>
<path d="M94.6876 465.18H65.0608L79.7078 440.023L94.6876 465.18Z" fill="#C4B5FD"/>
<path d="M79.7076 440.023L70.7197 455.427H88.9175L79.7076 440.023Z" fill="#733AED"/>
<path d="M79.9297 465.18H65.0608V590.743H79.9297V465.18Z" fill="#AA8BFA"/>
</g>
<defs>
<clipPath id="clip0_112_2407">
<path d="M0 0H375V443.2C375 470.083 375 483.524 369.768 493.792C365.166 502.823 357.823 510.166 348.792 514.768C338.524 520 325.083 520 298.2 520H76.8C49.9175 520 36.4762 520 26.2085 514.768C17.1767 510.166 9.83361 502.823 5.23169 493.792C0 483.524 0 470.083 0 443.2V0Z" fill="white"/>
</clipPath>
</defs>
</svg>
