<svg width="375" height="520" viewBox="0 0 375 520" fill="none" xmlns="http://www.w3.org/2000/svg">
<g clip-path="url(#clip0_112_1640)">
<path d="M0 0H375V443.2C375 470.083 375 483.524 369.768 493.792C365.166 502.823 357.823 510.166 348.792 514.768C338.524 520 325.083 520 298.2 520H76.8C49.9175 520 36.4762 520 26.2085 514.768C17.1767 510.166 9.83361 502.823 5.23169 493.792C0 483.524 0 470.083 0 443.2V0Z" fill="#88131F"/>
<path opacity="0.64" fill-rule="evenodd" clip-rule="evenodd" d="M551.914 455.004C551.914 455.004 749.405 741.309 601.423 718.407C453.407 695.382 613.287 878.801 513.733 862.22C414.212 845.761 -22.742 594.936 15.7099 489.062C54.2066 383.11 265.083 530.744 244.617 411.251C224.197 291.68 336.082 176.435 551.914 455.004Z" fill="#9F1222"/>
<path opacity="0.64" fill-rule="evenodd" clip-rule="evenodd" d="M219.914 -127.996C219.914 -127.996 417.405 158.309 269.422 135.407C121.407 112.382 281.287 295.801 181.733 279.22C82.2118 262.761 -354.742 11.9356 -316.29 -93.9382C-277.794 -199.89 -66.9171 -52.256 -87.3827 -171.749C-107.803 -291.32 4.08195 -406.565 219.914 -127.996Z" fill="#9F1222"/>
<path d="M279.757 292.273C274.292 292.273 269.291 294.588 265.771 298.201C258.639 290.791 249.655 285.234 239.467 282.27C234.188 280.695 228.538 279.862 222.795 279.862H150.367C144.532 279.862 138.974 280.695 133.695 282.27C122.766 285.419 113.133 291.625 105.724 299.96C102.204 295.237 96.5545 292.18 90.2563 292.18C79.605 292.18 70.8062 300.887 70.8062 311.63V348.864C70.8062 359.515 79.5124 368.314 90.2563 368.314C90.349 368.314 90.5342 368.314 90.6268 368.314V478.161C90.6268 503.724 282.535 503.724 282.535 478.161V368.221C291.89 366.832 299.207 358.774 299.207 348.956V311.723C299.207 301.072 290.501 292.273 279.757 292.273Z" fill="white"/>
<path d="M286.518 486.775H90.6267V543.088H286.518V486.775Z" fill="#E11D3A"/>
<path d="M97.4804 318.299C97.4804 320.985 95.9985 323.671 93.4051 324.968L-10.607 379.243C-12.6446 380.355 -15.0528 380.355 -17.0904 379.428C-18.6649 378.78 -19.9616 377.576 -20.7952 376.001C-22.7402 372.297 -21.2583 367.758 -17.5535 365.813L86.5513 311.538C90.2561 309.593 94.7944 311.075 96.7395 314.78C96.8321 314.965 96.9247 315.15 97.0173 315.335C97.2952 316.262 97.4804 317.28 97.4804 318.299Z" fill="#FB7185"/>
<path d="M114.337 350.623C114.337 353.309 112.855 355.995 110.262 357.292L6.24992 411.66C4.21229 412.771 1.80417 412.771 -0.23347 411.845C-1.80801 411.197 -3.10469 409.993 -3.93827 408.418C-5.88328 404.713 -4.40137 400.175 -0.696569 398.23L103.408 343.955C107.113 342.01 111.651 343.492 113.596 347.196C113.689 347.382 113.782 347.567 113.874 347.752C114.152 348.678 114.337 349.697 114.337 350.623Z" fill="#FB7185"/>
<path d="M97.4805 318.299C97.4805 320.985 95.9986 323.671 93.4052 324.968L-10.6069 379.243C-12.6445 380.355 -15.0527 380.355 -17.0903 379.428C-18.6648 375.816 -17.1829 371.648 -13.6634 369.796L90.4414 315.521C92.479 314.409 94.8872 314.409 96.9248 315.243C97.2953 316.262 97.4805 317.281 97.4805 318.299Z" fill="#F43F5E"/>
<path d="M114.337 350.624C114.337 353.31 112.855 355.996 110.262 357.292L6.24966 411.66C4.21202 412.772 1.8039 412.772 -0.233734 411.845C-1.80827 408.326 -0.326357 404.065 3.1932 402.213L107.298 347.938C109.336 346.826 111.744 346.826 113.781 347.752C114.152 348.679 114.337 349.697 114.337 350.624Z" fill="#F43F5E"/>
<path d="M138.974 200.857C136.103 200.857 133.788 198.542 133.788 195.67V125.187C133.788 122.315 136.103 120 138.974 120C141.846 120 144.161 122.315 144.161 125.187V195.763C144.161 198.634 141.846 200.857 138.974 200.857Z" fill="#BE1229"/>
<path d="M234.188 200.857C231.316 200.857 229.001 198.542 229.001 195.67V125.187C229.001 122.315 231.316 120 234.188 120C237.059 120 239.374 122.315 239.374 125.187V195.763C239.282 198.634 236.966 200.857 234.188 200.857Z" fill="#BE1229"/>
<path d="M138.974 204.377C136.103 204.377 133.788 202.061 133.788 199.19V128.706C133.788 125.835 136.103 123.52 138.974 123.52C141.846 123.52 144.161 125.835 144.161 128.706V199.283C144.161 202.061 141.846 204.377 138.974 204.377Z" fill="#E11D3A"/>
<path d="M234.188 204.377C231.316 204.377 229.001 202.061 229.001 199.19V128.706C229.001 125.835 231.316 123.52 234.188 123.52C237.059 123.52 239.374 125.835 239.374 128.706V199.283C239.282 202.061 236.966 204.377 234.188 204.377Z" fill="#E11D3A"/>
<path d="M138.974 216.695C136.103 216.695 133.788 214.38 133.788 211.509V140.932C133.788 138.061 136.103 135.746 138.974 135.746C141.846 135.746 144.161 138.061 144.161 140.932V211.509C144.161 214.38 141.846 216.695 138.974 216.695Z" fill="#9F1222"/>
<path d="M234.188 216.695C231.316 216.695 229.001 214.38 229.001 211.509V140.932C229.001 138.061 231.316 135.746 234.188 135.746C237.059 135.746 239.374 138.061 239.374 140.932V211.509C239.282 214.38 236.966 216.695 234.188 216.695Z" fill="#9F1222"/>
<path d="M282.535 349.42V487.979C282.535 513.542 90.6267 513.542 90.6267 487.979V349.42C90.6267 322.189 108.78 299.22 133.695 291.995C138.974 290.421 144.624 289.587 150.367 289.587H222.795C228.63 289.587 234.188 290.421 239.467 291.995C264.382 299.312 282.535 322.189 282.535 349.42Z" fill="#F5F5F5"/>
<path d="M239.467 292.088C227.889 313.02 208.532 326.82 186.581 326.82C164.63 326.82 145.18 313.113 133.695 292.088C138.974 290.514 144.624 289.68 150.366 289.68H222.795C228.63 289.68 234.187 290.514 239.467 292.088Z" fill="#FECDD3"/>
<path d="M78.2799 467.427C90.7623 463.302 97.537 449.838 93.4117 437.356C89.2864 424.874 75.8233 418.099 63.341 422.224C50.8587 426.35 44.0839 439.813 48.2092 452.295C52.3345 464.777 65.7976 471.552 78.2799 467.427Z" fill="#E11D3A"/>
<path d="M186.581 324.69C158.424 324.69 135.64 347.475 135.64 375.631V420.459C135.64 448.616 158.424 471.4 186.581 471.4C214.737 471.4 237.522 448.616 237.522 420.459V375.631C237.522 347.475 214.737 324.69 186.581 324.69Z" fill="white"/>
<path d="M186.581 478.439C158.424 478.439 135.64 455.655 135.64 427.498V382.67C135.64 354.514 158.424 331.729 186.581 331.729C214.737 331.729 237.522 354.514 237.522 382.67V427.498C237.522 455.655 214.737 478.439 186.581 478.439Z" fill="#E11D3A"/>
<path d="M206.632 398.82C217.772 387.679 217.772 369.617 206.632 358.477C195.492 347.337 177.429 347.337 166.289 358.477C155.149 369.617 155.149 387.679 166.289 398.82C177.429 409.96 195.491 409.96 206.632 398.82Z" fill="#BE1229"/>
<rect x="183.13" y="374.418" width="10.5749" height="14.8048" rx="4.5" transform="rotate(90 183.13 374.418)" fill="#F43F5E"/>
<rect x="204.267" y="374.418" width="10.5749" height="14" rx="4.5" transform="rotate(90 204.267 374.418)" fill="#F43F5E"/>
<rect x="181.267" y="383.671" width="10" height="14" rx="4.5" fill="#F43F5E"/>
<rect x="181.267" y="361.671" width="10" height="14" rx="4.5" fill="#F43F5E"/>
<path d="M205.568 434.444H168.335C165.741 434.444 163.611 432.314 163.611 429.721C163.611 427.127 165.741 424.997 168.335 424.997H205.568C208.161 424.997 210.292 427.127 210.292 429.721C210.384 432.314 208.254 434.444 205.568 434.444Z" fill="#F43F5E"/>
<path d="M205.568 455.006H168.335C165.741 455.006 163.611 452.876 163.611 450.283C163.611 447.689 165.741 445.559 168.335 445.559H205.568C208.161 445.559 210.292 447.689 210.292 450.283C210.384 452.876 208.254 455.006 205.568 455.006Z" fill="#F43F5E"/>
<path d="M218.905 343.307C226.13 352.106 230.483 363.405 230.483 375.631V420.459C230.483 448.615 207.698 471.4 179.542 471.4C167.223 471.4 156.016 467.047 147.218 459.822C156.572 471.215 170.743 478.439 186.581 478.439C214.737 478.439 237.522 455.655 237.522 427.498V382.67C237.522 366.832 230.298 352.661 218.905 343.307Z" fill="#9F1222"/>
<path d="M186.581 303.017C222.03 303.017 250.766 267.231 250.766 223.086C250.766 178.941 222.03 143.155 186.581 143.155C151.132 143.155 122.395 178.941 122.395 223.086C122.395 267.231 151.132 303.017 186.581 303.017Z" fill="white"/>
<path d="M129.62 225.587V237.349C129.62 245.407 122.951 252.076 114.893 252.076C106.835 252.076 100.167 245.407 100.167 237.349V225.587C100.167 217.529 106.835 210.86 114.893 210.86C118.968 210.86 122.673 212.527 125.266 215.213C127.952 217.807 129.62 221.511 129.62 225.587Z" fill="#BE1229"/>
<path d="M129.62 235.219V237.349C129.62 245.407 122.951 252.076 114.893 252.076C106.835 252.076 100.167 245.407 100.167 237.349V235.219C100.167 227.161 106.835 220.493 114.893 220.493C118.968 220.493 122.673 222.16 125.266 224.846C127.952 227.532 129.62 231.144 129.62 235.219Z" fill="#E11D3A"/>
<path d="M129.249 261.894C121.098 261.894 114.522 255.225 114.522 247.167V214.38C114.522 206.229 121.191 199.653 129.249 199.653C137.4 199.653 143.976 206.322 143.976 214.38V247.167C143.976 255.318 137.4 261.894 129.249 261.894Z" fill="#FECDD3"/>
<path d="M272.995 225.587V237.349C272.995 245.407 266.327 252.076 258.269 252.076C250.211 252.076 243.542 245.407 243.542 237.349V225.587C243.542 217.529 250.211 210.86 258.269 210.86C262.344 210.86 266.049 212.527 268.642 215.213C271.328 217.807 272.995 221.511 272.995 225.587Z" fill="#BE1229"/>
<path d="M272.995 235.219V237.349C272.995 245.407 266.327 252.076 258.269 252.076C250.211 252.076 243.542 245.407 243.542 237.349V235.219C243.542 227.161 250.211 220.493 258.269 220.493C262.344 220.493 266.049 222.16 268.642 224.846C271.328 227.532 272.995 231.144 272.995 235.219Z" fill="#E11D3A"/>
<path d="M243.264 262.264C235.114 262.264 228.538 255.596 228.538 247.538V214.75C228.538 206.6 235.206 200.024 243.264 200.024C251.415 200.024 257.991 206.692 257.991 214.75V247.538C257.991 255.596 251.322 262.264 243.264 262.264Z" fill="#FECDD3"/>
<path d="M186.581 310.89C222.03 310.89 250.766 275.103 250.766 230.959C250.766 186.814 222.03 151.028 186.581 151.028C151.132 151.028 122.395 186.814 122.395 230.959C122.395 275.103 151.132 310.89 186.581 310.89Z" fill="#FFE4E7"/>
<path d="M186.859 291.162C214.072 291.162 236.133 269.101 236.133 241.888C236.133 214.675 214.072 192.614 186.859 192.614C159.646 192.614 137.585 214.675 137.585 241.888C137.585 269.101 159.646 291.162 186.859 291.162Z" fill="white"/>
<path d="M232.509 265.698C242.757 240.488 230.628 211.743 205.418 201.494C180.208 191.246 151.463 203.375 141.214 228.585C130.966 253.795 143.095 282.54 168.305 292.789C193.515 303.037 222.26 290.908 232.509 265.698Z" fill="#E11D3A"/>
<path d="M226.563 264.266C236.025 242.332 225.914 216.88 203.98 207.418C182.046 197.956 156.594 208.067 147.132 230.001C137.67 251.935 147.781 277.387 169.715 286.849C191.649 296.311 217.101 286.201 226.563 264.266Z" fill="#FB7185"/>
<path d="M214.459 213.824C220.665 221.326 224.37 230.959 224.37 241.425C224.37 265.321 205.012 284.678 181.116 284.678C170.65 284.678 161.018 280.973 153.515 274.768C161.481 284.308 173.429 290.421 186.766 290.421C210.662 290.421 230.019 271.063 230.019 247.167C230.112 233.737 223.999 221.789 214.459 213.824Z" fill="#FDA4B0"/>
<path d="M204.271 262.82C204.271 272.545 196.306 280.51 186.581 280.51C176.856 280.51 168.89 272.545 168.89 262.82H204.271Z" fill="white"/>
<path d="M174.014 241.429C176.835 238.608 176.835 234.033 174.014 231.212C171.193 228.391 166.619 228.391 163.797 231.212C160.976 234.033 160.976 238.608 163.797 241.429C166.619 244.25 171.193 244.25 174.014 241.429Z" fill="white"/>
<path d="M209.391 241.42C212.212 238.599 212.212 234.024 209.391 231.203C206.57 228.382 201.996 228.382 199.174 231.203C196.353 234.024 196.353 238.599 199.174 241.42C201.996 244.241 206.57 244.241 209.391 241.42Z" fill="white"/>
<path d="M99.4256 424.441L124.34 441.391C129.249 444.725 130.453 451.394 127.212 456.303C123.877 461.212 117.209 462.416 112.3 459.174L87.385 442.224C82.4762 438.89 81.2721 432.222 84.5138 427.313C87.8481 422.404 94.6094 421.107 99.4256 424.441Z" fill="#E11D3A"/>
<path d="M71.9174 433.796C61.544 448.986 40.8898 452.969 25.6075 442.688L-20.9803 411.105C-36.17 400.731 -40.1527 380.077 -29.8718 364.795C-19.4984 349.605 1.15583 345.622 16.4381 355.903L63.0259 387.486C78.3082 397.86 82.1982 418.514 71.9174 433.796Z" fill="white"/>
<path d="M124.433 441.391L99.5181 424.442C95.0724 421.385 89.1447 422.219 85.6251 426.109C85.162 425.738 84.6989 425.46 84.2358 425.09C73.3993 417.68 58.5801 420.552 51.1705 431.388C43.7609 442.225 46.6322 457.044 57.4687 464.453C57.9318 464.731 58.3949 465.102 58.9506 465.38C56.6351 470.103 58.117 475.938 62.5628 478.902L87.4775 495.852C92.3864 499.186 99.055 497.889 102.389 492.98C105.724 488.071 104.427 481.403 99.5181 478.069L81.6425 465.935C85.162 464.176 88.2185 461.49 90.534 458.063C92.8495 454.636 94.1462 450.746 94.5166 446.856L112.392 458.989C117.301 462.323 123.97 461.026 127.304 456.118C130.546 451.394 129.249 444.633 124.433 441.391Z" fill="#E11D3A"/>
<path d="M51.0779 436.668C58.4875 425.831 73.214 422.96 84.1432 430.369C84.6063 430.647 85.0694 431.018 85.5325 431.388C89.052 427.498 94.9797 426.665 99.4255 429.721L124.34 446.67C126.47 448.152 127.86 450.19 128.601 452.506C129.897 448.152 128.323 443.244 124.34 440.558L99.4255 423.608C94.9797 420.552 89.052 421.385 85.5325 425.275C85.0694 424.905 84.6063 424.627 84.1432 424.256C73.3067 416.847 58.4875 419.718 51.0779 430.555C47.651 435.556 46.4469 441.391 47.1878 446.948C47.6509 443.429 48.9476 439.909 51.0779 436.668Z" fill="#F43F5E"/>
<path d="M58.8579 470.659C58.4874 470.474 58.117 470.196 57.8391 470.011C57.9317 470.752 58.0244 471.493 58.3022 472.234C58.3948 471.678 58.6727 471.122 58.8579 470.659Z" fill="white"/>
<path d="M99.4257 477.235L86.0884 468.251C84.6991 469.455 83.1246 470.474 81.55 471.307L99.4257 483.441C101.556 484.923 102.945 486.96 103.686 489.276C104.983 484.83 103.408 479.921 99.4257 477.235Z" fill="white"/>
<path d="M67.5642 442.595C57.1907 457.785 36.5365 461.767 21.2542 451.486L-25.3336 419.903C-40.5233 409.53 -44.5059 388.875 -34.2251 373.593C-23.8517 358.403 -3.19744 354.421 12.0848 364.702L58.6727 396.285C73.8623 406.566 77.845 427.313 67.5642 442.595Z" fill="#FFE4E7"/>
<path d="M37.4627 435.186L-9.12512 403.602C-22.8329 394.34 -27.3712 376.557 -20.61 362.016C-25.8893 364.424 -30.7056 368.314 -34.2251 373.593C-44.5985 388.783 -40.6159 409.53 -25.3336 419.903L21.2542 451.487C36.4439 461.86 57.1907 457.877 67.5642 442.595C68.583 441.113 69.5092 439.539 70.2501 437.872C59.9693 442.595 47.5583 441.947 37.4627 435.186Z" fill="#FECDD3"/>
<path d="M395.717 392.58C394.512 396.563 390.252 398.786 386.269 397.582L274.107 363.035C271.606 362.294 269.846 360.349 269.105 358.033C268.642 356.644 268.642 355.162 269.105 353.68C270.124 350.438 273.088 348.401 276.329 348.401C277.07 348.401 277.811 348.493 278.552 348.771L390.715 383.133C394.698 384.43 396.921 388.598 395.717 392.58Z" fill="#FB7185"/>
<path d="M406.46 357.755C405.256 361.738 400.996 363.961 397.013 362.757L284.851 328.21C282.35 327.469 280.59 325.524 279.849 323.208C279.386 321.819 279.386 320.337 279.849 318.855C280.868 315.613 283.832 313.576 287.073 313.576C287.814 313.576 288.555 313.668 289.296 313.946L401.459 348.493C405.349 349.512 407.665 353.773 406.46 357.755Z" fill="#FB7185"/>
<path d="M395.716 392.58C394.512 396.563 390.252 398.786 386.269 397.582L274.106 363.035C271.606 362.294 269.846 360.349 269.105 358.033C270.124 354.792 273.088 352.754 276.329 352.754C277.07 352.754 277.811 352.847 278.552 353.124L390.715 387.579C393.216 388.32 394.975 390.265 395.716 392.58Z" fill="#F43F5E"/>
<path d="M406.46 357.756C405.256 361.738 400.995 363.961 397.013 362.757L284.85 328.21C282.349 327.469 280.59 325.524 279.849 323.208C280.867 319.967 283.831 317.929 287.073 317.929C287.814 317.929 288.555 318.022 289.296 318.299L401.459 352.847C403.959 353.495 405.719 355.44 406.46 357.756Z" fill="#F43F5E"/>
<path d="M90.1636 378.132C79.5123 378.132 70.7134 369.426 70.7134 358.682V321.356C70.7134 310.705 79.4197 301.906 90.1636 301.906C100.815 301.906 109.614 310.612 109.614 321.356V358.589C109.614 369.333 100.907 378.132 90.1636 378.132Z" fill="white"/>
<path d="M279.756 378.132C269.105 378.132 260.306 369.426 260.306 358.682V321.356C260.306 310.705 269.012 301.906 279.756 301.906C290.408 301.906 299.207 310.612 299.207 321.356V358.589C299.207 369.333 290.5 378.132 279.756 378.132Z" fill="white"/>
<path d="M186.581 186.872C200.136 186.872 211.125 175.883 211.125 162.327C211.125 148.772 200.136 137.783 186.581 137.783C173.025 137.783 162.037 148.772 162.037 162.327C162.037 175.883 173.025 186.872 186.581 186.872Z" fill="#FECDD3"/>
<path d="M186.581 179.74C200.136 179.74 211.125 168.751 211.125 155.196C211.125 141.64 200.136 130.651 186.581 130.651C173.025 130.651 162.037 141.64 162.037 155.196C162.037 168.751 173.025 179.74 186.581 179.74Z" fill="white"/>
<path d="M200.727 156.631C201.506 148.792 195.782 141.806 187.943 141.027C180.104 140.249 173.119 145.972 172.34 153.811C171.561 161.65 177.285 168.636 185.124 169.414C192.963 170.193 199.948 164.469 200.727 156.631Z" fill="#9F1222"/>
<path d="M164.207 507.082H98.2544C88.6945 507.082 81 499.363 81 489.773V449.309C81 439.719 88.6945 432 98.2544 432H164.207C173.767 432 181.461 439.719 181.461 449.309V489.89C181.461 499.363 173.767 507.082 164.207 507.082Z" fill="white"/>
<path d="M74.5108 461.212L99.4256 478.161C104.334 481.495 105.539 488.164 102.297 493.073C98.9625 497.982 92.2939 499.186 87.385 495.944L62.4702 478.995C57.5614 475.66 56.3573 468.992 59.599 464.083C62.9333 459.174 69.602 457.877 74.5108 461.212Z" fill="#E11D3A"/>
<path d="M331.628 434.901C337.545 423.161 332.825 408.848 321.085 402.93C309.346 397.013 295.032 401.733 289.115 413.473C283.198 425.212 287.918 439.526 299.657 445.443C311.397 451.36 325.711 446.64 331.628 434.901Z" fill="#F43F5E"/>
<path d="M293.649 422.219L269.383 440.095C264.659 443.614 257.898 442.595 254.378 437.872C250.859 433.148 251.878 426.387 256.601 422.867L280.868 404.992C285.591 401.472 292.352 402.491 295.872 407.214C299.392 411.938 298.373 418.699 293.649 422.219Z" fill="#F43F5E"/>
<path d="M303.097 415.087C293.186 399.62 297.725 378.965 313.192 369.055L360.614 338.676C376.081 328.765 396.735 333.304 406.646 348.771C416.556 364.239 412.018 384.893 396.55 394.803L349.036 425.183C333.569 435.093 313.007 430.555 303.097 415.087Z" fill="white"/>
<path d="M261.047 426.387L285.313 408.511C289.667 405.362 295.594 405.918 299.299 409.622C299.762 409.252 300.133 408.881 300.596 408.511C309.302 402.028 320.972 402.491 329.215 408.789C321.343 398.508 306.616 396.47 296.243 404.158C295.78 404.528 295.316 404.899 294.946 405.269C291.241 401.565 285.313 401.009 280.96 404.158L256.694 422.034C251.97 425.553 250.951 432.314 254.471 437.038C255.49 438.335 256.694 439.353 257.991 440.094C255.49 435.463 256.694 429.628 261.047 426.387Z" fill="#FB7185"/>
<path d="M287.444 462.138L304.856 449.264C302.911 448.338 301.059 447.133 299.299 445.744L283.091 457.785C278.367 461.304 277.348 468.066 280.868 472.789C281.887 474.086 283.091 475.105 284.387 475.846C281.887 471.215 283.183 465.287 287.444 462.138Z" fill="white"/>
<path d="M288.555 432.685C289.296 434.352 290.13 435.926 291.241 437.408C292.63 439.261 294.205 440.835 295.872 442.132C295.78 442.039 295.687 441.947 295.594 441.762C293.094 438.427 291.612 434.63 291.149 430.74L288.555 432.685Z" fill="white"/>
<path d="M306.616 421.2C296.706 405.732 301.245 385.078 316.712 375.168L364.133 344.788C379.601 334.878 400.255 339.416 410.166 354.884C420.076 370.351 415.537 391.006 400.07 400.916L352.649 431.295C337.088 441.298 316.527 436.76 306.616 421.2Z" fill="#FFE4E7"/>
<path d="M410.165 354.977C407.109 350.16 403.034 346.456 398.403 343.862C407.016 359.145 402.293 378.687 387.288 388.227L339.867 418.607C329.123 425.46 315.971 425.368 305.597 419.625C305.875 420.181 306.246 420.737 306.616 421.293C316.527 436.76 337.088 441.298 352.648 431.388L400.07 401.009C415.537 391.098 420.076 370.444 410.165 354.977Z" fill="#FECDD3"/>
<path d="M284.498 499.489H212.987C202.467 499.489 194 491.022 194 480.502V435.987C194 425.467 202.467 417 212.987 417H284.498C295.018 417 303.485 425.467 303.485 435.987V480.502C303.485 491.022 295.018 499.489 284.498 499.489Z" fill="white"/>
<path fill-rule="evenodd" clip-rule="evenodd" d="M118.208 448H143.792C144.312 448 144.796 447.999 145.235 448.068C147.655 448.444 149.553 450.333 149.932 452.74C150.001 453.177 150 453.658 150 454.175L150 454.3L150 454.425C150 454.942 150.001 455.423 149.932 455.86C149.582 458.084 147.935 459.866 145.778 460.421V475.375C145.778 477.268 145.778 478.796 145.692 480.039C145.605 481.317 145.42 482.448 144.974 483.518C143.903 486.091 141.848 488.135 139.262 489.201C138.186 489.644 137.049 489.828 135.764 489.915C134.514 490 132.979 490 131.075 490H130.925C129.021 490 127.486 490 126.236 489.915C124.951 489.828 123.814 489.644 122.738 489.201C120.152 488.135 118.097 486.091 117.026 483.518C116.58 482.448 116.395 481.317 116.308 480.039C116.222 478.796 116.222 477.268 116.222 475.375V460.421C114.065 459.866 112.418 458.084 112.068 455.86C111.999 455.423 112 454.942 112 454.425L112 454.3L112 454.176C112 453.658 111.999 453.177 112.068 452.74C112.447 450.333 114.345 448.444 116.765 448.068C117.204 447.999 117.688 448 118.208 448ZM120.445 452.2H118.333C117.607 452.2 117.486 452.206 117.418 452.217C116.811 452.312 116.334 452.785 116.239 453.39C116.229 453.457 116.222 453.577 116.222 454.3C116.222 455.023 116.229 455.143 116.239 455.211C116.334 455.815 116.811 456.289 117.418 456.383C117.486 456.394 117.606 456.4 118.331 456.4H120.445V452.2ZM124.667 456.4V452.2H128.889V456.4H124.667ZM133.111 452.2H137.333V456.4H133.111V452.2ZM141.555 452.2V456.4H143.667C144.393 456.4 144.514 456.394 144.582 456.383C145.189 456.289 145.666 455.815 145.761 455.211C145.771 455.143 145.778 455.023 145.778 454.3C145.778 453.577 145.771 453.457 145.761 453.39C145.666 452.785 145.189 452.312 144.582 452.217C144.514 452.206 144.393 452.2 143.667 452.2H141.555ZM122.556 469C122.556 467.84 123.501 466.9 124.667 466.9H137.333C138.499 466.9 139.444 467.84 139.444 469C139.444 470.16 138.499 471.1 137.333 471.1H124.667C123.501 471.1 122.556 470.16 122.556 469ZM124.667 475.3C123.501 475.3 122.556 476.24 122.556 477.4C122.556 478.56 123.501 479.5 124.667 479.5H131C132.166 479.5 133.111 478.56 133.111 477.4C133.111 476.24 132.166 475.3 131 475.3H124.667Z" fill="#F43F5E"/>
<path d="M235.796 473.594C241.659 474.736 247.388 471.119 248.713 465.438L250.166 466.786C251.474 468 252.128 468.607 252.596 469.324C253.011 469.959 253.317 470.656 253.503 471.387C253.713 472.212 253.713 473.092 253.713 474.851V481.68C253.713 482.111 253.713 482.327 253.75 482.506C253.9 483.242 254.491 483.818 255.246 483.964C255.43 484 255.652 484 256.094 484H256.951C257.793 484 258.475 483.335 258.475 482.514V472.239C258.475 468.637 256.96 465.192 254.283 462.707C253.78 462.24 253.558 461.555 253.694 460.891L254.904 454.996C257.524 457.943 261.339 460.058 265.626 460.637C265.899 460.674 266.036 460.693 266.239 460.678C267.007 460.621 267.793 459.954 267.957 459.22C268 459.026 268 458.843 268 458.477C268 457.995 268 457.755 267.972 457.597C267.839 456.857 267.491 456.446 266.77 456.18C266.616 456.123 266.288 456.061 265.633 455.939C262.166 455.291 259.323 453.251 257.761 450.588L255.38 446.875C254.427 445.483 252.999 444.555 251.332 444.555C251.247 444.555 251.205 444.555 250.971 444.57C250.331 444.611 249.699 444.736 249.092 444.941C248.871 445.016 248.466 445.183 247.656 445.517L245.348 446.469C244.352 446.879 243.854 447.085 243.414 447.31C239.812 449.154 237.426 452.662 237.087 456.614C237.045 457.096 237.045 457.623 237.045 458.676C237.045 458.922 237.045 459.045 237.057 459.148C237.156 460.009 237.854 460.689 238.737 460.785C238.843 460.797 238.969 460.797 239.222 460.797H239.537C239.877 460.797 240.046 460.797 240.189 460.776C241.013 460.654 241.66 460.023 241.786 459.22C241.807 459.081 241.807 458.916 241.807 458.584V457.389C241.807 454.688 243.509 452.263 246.093 451.284L244.106 461.087C243.707 463.056 243.508 464.041 243.137 464.811C242.007 467.161 239.629 468.703 236.968 468.812C236.096 468.848 235.068 468.643 233.014 468.235C232.531 468.139 232.289 468.091 232.084 468.093C231.336 468.103 230.663 468.538 230.363 469.206C230.281 469.389 230.234 469.621 230.139 470.083L230.065 470.443C230.039 470.569 230.026 470.631 230.019 470.685C229.885 471.618 230.488 472.5 231.423 472.738C231.477 472.752 231.541 472.765 231.67 472.79L235.796 473.594Z" fill="#F43F5E"/>
<path d="M248.713 437.641C248.713 436.929 248.713 436.574 248.761 436.276C249.028 434.612 250.367 433.307 252.075 433.047C252.38 433 252.745 433 253.475 433C254.205 433 254.57 433 254.875 433.047C256.583 433.307 257.922 434.612 258.19 436.276C258.237 436.574 258.237 436.929 258.237 437.641C258.237 438.352 258.237 438.708 258.19 439.005C257.922 440.669 256.583 441.974 254.875 442.235C254.57 442.281 254.205 442.281 253.475 442.281C252.745 442.281 252.38 442.281 252.075 442.235C250.367 441.974 249.028 440.669 248.761 439.005C248.713 438.708 248.713 438.352 248.713 437.641Z" fill="#F43F5E"/>
<path d="M320.046 457.877L295.779 475.753C291.056 479.273 284.295 478.254 280.775 473.53C277.255 468.806 278.274 462.045 282.998 458.526L307.264 440.65C311.988 437.13 318.749 438.149 322.269 442.873C325.788 447.689 324.769 454.45 320.046 457.877Z" fill="#F43F5E"/>
<g opacity="0.35">
<path d="M186.005 155.41C188.754 152.661 188.754 148.204 186.005 145.455C183.256 142.706 178.799 142.706 176.05 145.455C173.301 148.204 173.301 152.661 176.05 155.41C178.799 158.159 183.256 158.159 186.005 155.41Z" fill="white"/>
</g>
<path d="M186.581 158.715C188.525 158.715 190.1 157.14 190.1 155.196C190.1 153.252 188.525 151.676 186.581 151.676C184.637 151.676 183.061 153.252 183.061 155.196C183.061 157.14 184.637 158.715 186.581 158.715Z" fill="white"/>
<path fill-rule="evenodd" clip-rule="evenodd" d="M305.749 164H279.097C268.122 164 259 173.122 259 184.097V194.501C259 202.625 263.989 209.752 270.972 212.887V214.028V226L283.943 214.74H305.607C316.724 214.74 325.703 205.618 325.703 194.644V184.239C325.846 173.122 316.724 164 305.749 164Z" fill="white"/>
<path fill-rule="evenodd" clip-rule="evenodd" d="M280.807 179.251C283.8 176.258 288.646 176.258 291.639 179.251L293.064 180.676L294.49 179.251C297.483 176.258 302.329 176.258 305.322 179.251C308.315 182.244 308.315 187.09 305.322 190.083L293.064 202.483L280.664 190.083C277.814 187.232 277.814 182.244 280.807 179.251Z" fill="#F43F5E"/>
<path fill-rule="evenodd" clip-rule="evenodd" d="M77.1282 127H116.872C133.538 127 147 140.462 147 157.128V172.833C147 185.013 139.628 195.59 129.051 200.397V202V219.949L109.5 202.962H77.1282C60.4615 202.962 47 189.5 47 172.833V157.128C47 140.462 60.4615 127 77.1282 127Z" fill="white"/>
<path fill-rule="evenodd" clip-rule="evenodd" d="M76.127 150.4H109.781C112.345 150.4 114.589 152.643 114.589 155.208C114.589 157.772 112.345 160.015 109.781 160.015H76.127C73.5629 160.015 71.3193 157.772 71.3193 155.208C71.3193 152.323 73.5629 150.4 76.127 150.4Z" fill="#C5C8C6"/>
<path fill-rule="evenodd" clip-rule="evenodd" d="M76.1282 168.667H87.9872C90.5513 168.667 92.7949 170.91 92.7949 173.474C92.7949 176.039 90.5513 178.282 87.9872 178.282H75.8077C73.2436 178.282 71 176.039 71 173.474C71.3205 170.59 73.5641 168.667 76.1282 168.667Z" fill="#C5C8C6"/>
</g>
<defs>
<clipPath id="clip0_112_1640">
<path d="M0 0H375V443.2C375 470.083 375 483.524 369.768 493.792C365.166 502.823 357.823 510.166 348.792 514.768C338.524 520 325.083 520 298.2 520H76.8C49.9175 520 36.4762 520 26.2085 514.768C17.1767 510.166 9.83361 502.823 5.23169 493.792C0 483.524 0 470.083 0 443.2V0Z" fill="white"/>
</clipPath>
</defs>
</svg>
