<svg width="285" height="300" viewBox="0 0 285 300" fill="none" xmlns="http://www.w3.org/2000/svg">
<rect x="2.5" y="22.5" width="256" height="256" rx="96" fill="#212C24"/>
<path fill-rule="evenodd" clip-rule="evenodd" d="M118.664 258.007H141.087C151.866 258.007 160.706 249.149 160.706 238.348V218.905C160.706 218.761 160.634 218.689 160.49 218.689H99.2606C99.1169 218.689 99.045 218.761 99.045 218.905V238.348C99.045 249.221 107.885 258.007 118.664 258.007Z" fill="#C5C8C6"/>
<path fill-rule="evenodd" clip-rule="evenodd" d="M107.31 47.594H152.442C179.535 47.594 201.742 69.773 201.742 96.9928V126.445C201.742 137.39 192.83 146.392 181.835 146.392H77.9166C66.993 146.392 58.0098 137.39 58.0098 126.445V96.9928C58.0098 69.8451 80.2163 47.594 107.31 47.594Z" fill="#F5F5F5"/>
<path fill-rule="evenodd" clip-rule="evenodd" d="M127.792 245.117H131.888C158.981 245.117 181.188 222.938 181.188 195.718V146.895C181.188 146.607 180.972 146.391 180.685 146.391H79.0665C78.7791 146.391 78.5635 146.607 78.5635 146.895V195.718C78.5635 222.866 100.698 245.117 127.792 245.117Z" fill="#A2A9A4"/>
<path fill-rule="evenodd" clip-rule="evenodd" d="M127.792 245.116H131.888C158.981 245.116 181.188 222.937 181.188 195.718V192.405C181.188 174.403 166.455 159.641 148.489 159.641H111.262C93.296 159.641 78.5635 174.403 78.5635 192.405V195.718C78.5635 222.865 100.698 245.116 127.792 245.116Z" fill="#F5F5F5"/>
<path fill-rule="evenodd" clip-rule="evenodd" d="M121.252 78.1252H138.5C148.848 78.1252 157.329 86.6224 157.329 96.9918V108.225C157.329 112.402 153.879 115.858 149.711 115.858H110.041C105.873 115.858 102.423 112.474 102.423 108.225V96.9918C102.423 86.6224 110.903 78.1252 121.252 78.1252Z" fill="#647067"/>
<path fill-rule="evenodd" clip-rule="evenodd" d="M133.469 86.9828L142.524 102.753C143.314 104.049 143.314 105.561 142.524 106.93C141.733 108.226 140.44 109.018 138.931 109.018H120.749C119.239 109.018 117.946 108.226 117.155 106.93C116.365 105.633 116.365 104.121 117.155 102.753L126.21 86.9828C127.001 85.6866 128.294 84.8945 129.804 84.8945C131.385 84.9665 132.678 85.6866 133.469 86.9828Z" fill="#84CC16"/>
<path opacity="0.64" fill-rule="evenodd" clip-rule="evenodd" d="M115.934 47.594H136.415C163.509 47.594 185.715 69.773 185.715 96.9928V126.445C185.715 137.39 176.804 146.392 165.809 146.392H145.327C156.25 146.392 165.234 137.462 165.234 126.445V96.9928C165.162 69.8451 143.027 47.594 115.934 47.594Z" fill="#E3E4E3"/>
<path fill-rule="evenodd" clip-rule="evenodd" d="M121.252 78.1252H128.295C117.946 78.1252 109.466 86.6224 109.466 96.9918V108.225C109.466 112.402 112.844 115.858 117.084 115.858H110.041C105.873 115.858 102.423 112.474 102.423 108.225V96.9918C102.423 86.6224 110.903 78.1252 121.252 78.1252Z" fill="#48524B"/>
<path fill-rule="evenodd" clip-rule="evenodd" d="M130.379 41.9772C135.122 41.9772 139.074 38.0887 139.074 33.336C139.074 28.5833 135.194 24.6228 130.379 24.6228C125.635 24.6228 121.683 28.5113 121.683 33.336C121.683 38.0887 125.635 41.9772 130.379 41.9772Z" fill="#C5C8C6"/>
<path fill-rule="evenodd" clip-rule="evenodd" d="M130.379 20.4454C133.182 20.4454 135.481 18.1411 135.481 15.3327C135.481 12.5243 133.182 10.22 130.379 10.22C127.576 10.22 125.276 12.5243 125.276 15.3327C125.276 18.1411 127.576 20.4454 130.379 20.4454Z" fill="#C5C8C6"/>
<path fill-rule="evenodd" clip-rule="evenodd" d="M130.379 5.68374C131.816 5.68374 132.966 4.53158 132.966 3.09138C132.966 1.65118 131.816 0.499023 130.379 0.499023C128.941 0.499023 127.791 1.65118 127.791 3.09138C127.791 4.53158 128.941 5.68374 130.379 5.68374Z" fill="#C5C8C6"/>
<path fill-rule="evenodd" clip-rule="evenodd" d="M53.4102 216.96L55.2787 215.88C67.4959 208.895 71.8079 193.197 64.9088 180.955L64.0464 179.443C59.4469 171.306 49.0264 168.426 40.9056 173.034L24.0889 182.539C15.9681 187.148 13.0935 197.59 17.6929 205.727L18.5553 207.239C25.5263 219.553 41.193 223.873 53.4102 216.96Z" fill="#C5C8C6"/>
<path fill-rule="evenodd" clip-rule="evenodd" d="M207.347 216.96L205.479 215.88C193.261 208.895 188.95 193.197 195.849 180.955L196.711 179.443C201.31 171.306 211.731 168.426 219.852 173.034L236.597 182.539C244.717 187.148 247.592 197.59 242.993 205.727L242.13 207.239C235.231 219.553 219.564 223.873 207.347 216.96Z" fill="#C5C8C6"/>
<path fill-rule="evenodd" clip-rule="evenodd" d="M129.587 299.56C139.289 299.56 147.338 292.071 148.201 282.566C144.679 287.607 138.786 290.847 132.246 290.847H126.928C120.317 290.847 114.495 287.535 110.974 282.566C111.836 292.071 119.885 299.56 129.587 299.56Z" fill="#C5C8C6"/>
<path fill-rule="evenodd" clip-rule="evenodd" d="M129.588 282.565C136.558 282.565 142.308 277.236 142.883 270.396C140.367 273.996 136.127 276.372 131.456 276.372H127.647C122.904 276.372 118.736 273.996 116.22 270.396C116.867 277.236 122.617 282.565 129.588 282.565Z" fill="#C5C8C6"/>
<g filter="url(#filter0_d_112_1523)">
<path fill-rule="evenodd" clip-rule="evenodd" d="M241.322 10.5H205.588C190.603 10.5 178.5 22.6033 178.5 37.5884V51.7089C178.5 62.6595 185.128 72.1693 194.638 76.4919V77.9328V94.0705L212.216 78.7973H241.322C256.307 78.7973 268.41 66.694 268.41 51.7089V37.5884C268.41 22.6033 256.307 10.5 241.322 10.5Z" fill="white"/>
<path fill-rule="evenodd" clip-rule="evenodd" d="M205.876 31.5391H236.134C238.44 31.5391 240.457 33.5563 240.457 35.8617C240.457 38.1671 238.44 40.1843 236.134 40.1843H205.876C203.571 40.1843 201.553 38.1671 201.553 35.8617C201.553 33.2681 203.571 31.5391 205.876 31.5391Z" fill="#8B5CF6"/>
<path fill-rule="evenodd" clip-rule="evenodd" d="M205.877 47.9626H216.54C218.845 47.9626 220.862 49.9799 220.862 52.2853C220.862 54.5907 218.845 56.6079 216.54 56.6079H205.589C203.284 56.6079 201.266 54.5907 201.266 52.2853C201.555 49.6917 203.572 47.9626 205.877 47.9626Z" fill="#8B5CF6"/>
</g>
<g filter="url(#filter1_d_112_1523)">
<path fill-rule="evenodd" clip-rule="evenodd" d="M36.4557 65.5H63.1085C74.0832 65.5 83.2051 74.6218 83.2051 85.5966V96.0011C83.2051 104.125 78.2166 111.252 71.2327 114.387V115.528V127.5L58.2625 116.24H36.5982C25.4809 116.24 16.5016 107.118 16.5016 96.1437V85.7391C16.3591 74.6218 25.4809 65.5 36.4557 65.5Z" fill="white"/>
<path fill-rule="evenodd" clip-rule="evenodd" d="M61.398 80.7507C58.4049 77.7576 53.559 77.7576 50.5659 80.7507L49.1406 82.176L47.7153 80.7507C44.7222 77.7576 39.8762 77.7576 36.8831 80.7507C33.89 83.7438 33.89 88.5898 36.8831 91.5829L49.1406 103.983L61.5406 91.5829C64.3911 88.7323 64.3911 83.7438 61.398 80.7507Z" fill="#F43F5E"/>
</g>
<defs>
<filter id="filter0_d_112_1523" x="162.5" y="2.5" width="121.91" height="115.571" filterUnits="userSpaceOnUse" color-interpolation-filters="sRGB">
<feFlood flood-opacity="0" result="BackgroundImageFix"/>
<feColorMatrix in="SourceAlpha" type="matrix" values="0 0 0 0 0 0 0 0 0 0 0 0 0 0 0 0 0 0 127 0" result="hardAlpha"/>
<feOffset dy="8"/>
<feGaussianBlur stdDeviation="8"/>
<feComposite in2="hardAlpha" operator="out"/>
<feColorMatrix type="matrix" values="0 0 0 0 0.184314 0 0 0 0 0.235294 0 0 0 0 0.2 0 0 0 0.1 0"/>
<feBlend mode="normal" in2="BackgroundImageFix" result="effect1_dropShadow_112_1523"/>
<feBlend mode="normal" in="SourceGraphic" in2="effect1_dropShadow_112_1523" result="shape"/>
</filter>
<filter id="filter1_d_112_1523" x="0.5" y="57.5" width="98.7051" height="94" filterUnits="userSpaceOnUse" color-interpolation-filters="sRGB">
<feFlood flood-opacity="0" result="BackgroundImageFix"/>
<feColorMatrix in="SourceAlpha" type="matrix" values="0 0 0 0 0 0 0 0 0 0 0 0 0 0 0 0 0 0 127 0" result="hardAlpha"/>
<feOffset dy="8"/>
<feGaussianBlur stdDeviation="8"/>
<feComposite in2="hardAlpha" operator="out"/>
<feColorMatrix type="matrix" values="0 0 0 0 0.184314 0 0 0 0 0.235294 0 0 0 0 0.2 0 0 0 0.1 0"/>
<feBlend mode="normal" in2="BackgroundImageFix" result="effect1_dropShadow_112_1523"/>
<feBlend mode="normal" in="SourceGraphic" in2="effect1_dropShadow_112_1523" result="shape"/>
</filter>
</defs>
</svg>
