<svg width="1024" height="1024" viewBox="0 0 1024 1024" fill="none" xmlns="http://www.w3.org/2000/svg">
<rect width="1024" height="1024" fill="#84CC16"/>
<path d="M442.667 528V506.667C442.667 453.647 399.686 410.667 346.667 410.667H240C186.981 410.667 144 453.647 144 506.667V528C144 581.019 186.981 624 240 624H346.667C399.686 624 442.667 581.019 442.667 528Z" fill="#111A14"/>
<path d="M869.333 528V506.667C869.333 453.647 826.353 410.667 773.333 410.667H666.667C613.647 410.667 570.667 453.647 570.667 506.667V528C570.667 581.019 613.647 624 666.667 624H773.333C826.353 624 869.333 581.019 869.333 528Z" fill="#111A14"/>
<path d="M517.333 581.333H496C442.981 581.333 400 624.314 400 677.333V784C400 837.019 442.981 880 496 880H517.333C570.353 880 613.333 837.019 613.333 784V677.333C613.333 624.314 570.353 581.333 517.333 581.333Z" fill="#111A14"/>
<path d="M517.333 154.667H496C442.981 154.667 400 197.647 400 250.667V357.333C400 410.353 442.981 453.333 496 453.333H517.333C570.353 453.333 613.333 410.353 613.333 357.333V250.667C613.333 197.647 570.353 154.667 517.333 154.667Z" fill="#111A14"/>
</svg>
